<?xml version="1.0" encoding="UTF-8" standalone="no"?>
<!DOCTYPE svg PUBLIC "-//W3C//DTD SVG 1.1//EN" "http://www.w3.org/Graphics/SVG/1.1/DTD/svg11.dtd">
<svg width="200" height="200" viewBox="0 0 200 200" version="1.1" xmlns="http://www.w3.org/2000/svg" xmlns:xlink="http://www.w3.org/1999/xlink" xml:space="preserve" xmlns:serif="http://www.serif.com/" style="fill-rule:evenodd;clip-rule:evenodd;stroke-linejoin:round;stroke-miterlimit:2;">
    <g id="Apolitical" transform="matrix(2,0,0,2,0,0)">
        <path id="rect5322" d="M100,3.75C100,1.68 98.32,0 96.25,0L3.75,0C1.68,0 0,1.68 0,3.75L0,96.25C0,98.32 1.68,100 3.75,100L96.25,100C98.32,100 100,98.32 100,96.25L100,3.75Z" style="fill:rgb(34,34,34);"/>
        <path id="rect5324" d="M95,7.5C95,6.12 93.88,5 92.5,5L7.5,5C6.12,5 5,6.12 5,7.5L5,92.5C5,93.88 6.12,95 7.5,95L92.5,95C93.88,95 95,93.88 95,92.5L95,7.5Z" style="fill:rgb(128,128,128);"/>
        <g id="drama-masks-svgrepo-com" transform="matrix(0.22259,0,0,0.22259,50,44.0036)">
            <g transform="matrix(1,0,0,1,-149.598,-149.598)">
                <g>
                    <path d="M101.833,91.468C96.951,86.586 96.951,78.672 101.833,73.79C105.748,69.875 111.614,69.108 116.302,71.474C120.797,63.557 127.976,57.479 136.725,54.376C140.838,52.917 145.136,52.177 149.499,52.177C156.523,52.177 163.405,54.111 169.401,57.77C171.181,58.856 173.046,59.947 174.985,61.04L174.985,27.843C174.985,22.492 172.601,17.484 168.446,14.105C164.282,10.719 158.89,9.4 153.657,10.498C135.628,14.268 112.131,16.343 87.493,16.343C62.855,16.343 39.358,14.268 21.329,10.498C20.115,10.244 18.892,10.119 17.679,10.119C13.655,10.119 9.731,11.494 6.537,14.093C2.382,17.47 0,22.482 0,27.843L0,120.473C0,164.933 33.335,201.754 76.323,207.255C75.506,193.043 77.53,178.674 82.446,164.859L85.854,155.281C79.573,155.664 73.402,158.244 68.613,163.033C63.732,167.914 55.816,167.914 50.935,163.033C46.053,158.151 46.053,150.237 50.935,145.355C62.82,133.47 79.098,128.599 94.59,130.729L107.028,95.772C105.186,94.514 103.445,93.08 101.833,91.468ZM71.95,91.468C65.175,98.243 56.166,101.975 46.584,101.975C37.001,101.975 27.992,98.244 21.217,91.468C16.335,86.586 16.335,78.672 21.217,73.79C26.098,68.909 34.014,68.909 38.895,73.79C43.136,78.031 50.034,78.029 54.273,73.79C59.154,68.909 67.07,68.909 71.951,73.79C76.832,78.672 76.832,86.587 71.95,91.468Z" style="fill:rgb(34,34,34);fill-rule:nonzero;"/>
                    <path d="M296.544,127.725C293.697,123.041 288.89,119.875 283.46,119.133C265.936,116.74 243.316,111.042 219.265,102.484C195.214,93.926 174.079,84.056 158.982,74.842C156.092,73.078 152.806,72.177 149.499,72.177C147.449,72.177 145.39,72.523 143.412,73.225C138.243,75.059 134.179,79.126 132.341,84.293L101.289,171.563C84.998,217.348 108.908,267.671 154.693,283.961C164.443,287.43 174.399,289.076 184.188,289.076C220.367,289.076 254.269,266.592 267.091,230.557L298.143,143.287C299.98,138.124 299.391,132.408 296.544,127.725ZM131.629,151.079C128.666,144.844 131.319,137.387 137.555,134.425C146.21,130.312 155.949,129.817 164.976,133.029C174.003,136.242 181.24,142.777 185.352,151.432C188.315,157.667 185.662,165.124 179.426,168.086C177.695,168.909 175.868,169.299 174.071,169.299C169.395,169.299 164.912,166.664 162.772,162.16C161.525,159.537 159.332,157.555 156.595,156.582C153.859,155.607 150.907,155.759 148.284,157.005C142.049,159.97 134.591,157.315 131.629,151.079ZM208.213,242.594C201.072,245.987 193.532,247.594 186.108,247.594C166.759,247.594 148.172,236.693 139.332,218.085C136.369,211.85 139.022,204.394 145.258,201.431C151.493,198.467 158.95,201.121 161.912,207.357C168.23,220.654 184.187,226.332 197.485,220.014C203.721,217.051 211.177,219.704 214.139,225.94C217.102,232.175 214.448,239.631 208.213,242.594ZM255.378,195.11C253.647,195.933 251.82,196.323 250.023,196.323C245.347,196.323 240.864,193.688 238.724,189.184C236.15,183.768 229.651,181.455 224.235,184.029C218.002,186.994 210.544,184.34 207.581,178.103C204.618,171.868 207.271,164.411 213.507,161.449C231.371,152.96 252.816,160.588 261.305,178.456C264.267,184.691 261.613,192.148 255.378,195.11Z" style="fill:rgb(34,34,34);fill-rule:nonzero;"/>
                </g>
            </g>
        </g>
        <path id="path5326" d="M2.75,70L2.75,95C2.75,100.817 7.433,96.25 13.25,96.25L86.75,96.25C92.567,96.25 97.25,100.817 97.25,95L97.25,70L2.75,70Z" style="fill:rgb(34,34,34);fill-rule:nonzero;"/>
        <g transform="matrix(0.435943,0,0,0.501084,16.0389,-0.166712)">
            <g id="Text" transform="matrix(31.9308,0,0,31.9308,-19.9879,177.434)">
                <path d="M0.584,0L0.519,-0.151L0.226,-0.151L0.161,0L-0.005,0L0.297,-0.699L0.448,-0.699L0.75,0L0.584,0ZM0.373,-0.491L0.285,-0.288L0.46,-0.288L0.373,-0.491Z" style="fill:rgb(255,238,238);fill-rule:nonzero;"/>
            </g>
            <g transform="matrix(31.9308,0,0,31.9308,3.80053,177.434)">
                <path d="M0.333,-0.699C0.44,-0.699 0.519,-0.678 0.568,-0.636C0.617,-0.595 0.641,-0.531 0.641,-0.445C0.641,-0.358 0.616,-0.295 0.566,-0.255C0.515,-0.215 0.438,-0.195 0.335,-0.195L0.242,-0.195L0.242,0L0.086,0L0.086,-0.699L0.333,-0.699ZM0.347,-0.33C0.399,-0.33 0.434,-0.341 0.453,-0.362C0.472,-0.383 0.481,-0.413 0.481,-0.454C0.481,-0.494 0.469,-0.523 0.445,-0.54C0.42,-0.557 0.382,-0.565 0.331,-0.565L0.242,-0.565L0.242,-0.33L0.347,-0.33Z" style="fill:rgb(255,238,238);fill-rule:nonzero;"/>
            </g>
            <g transform="matrix(31.9308,0,0,31.9308,25.4177,177.434)">
                <path d="M0.621,-0.354C0.621,-0.416 0.601,-0.469 0.561,-0.513C0.521,-0.557 0.472,-0.579 0.413,-0.579C0.355,-0.579 0.306,-0.557 0.266,-0.513C0.226,-0.469 0.206,-0.416 0.206,-0.354C0.206,-0.291 0.226,-0.238 0.266,-0.195C0.306,-0.151 0.355,-0.129 0.413,-0.129C0.472,-0.129 0.521,-0.151 0.561,-0.195C0.601,-0.238 0.621,-0.291 0.621,-0.354ZM0.674,-0.097C0.603,-0.028 0.516,0.007 0.413,0.007C0.31,0.007 0.223,-0.028 0.152,-0.097C0.081,-0.166 0.046,-0.251 0.046,-0.354C0.046,-0.457 0.081,-0.543 0.152,-0.612C0.223,-0.681 0.31,-0.715 0.413,-0.715C0.516,-0.715 0.603,-0.681 0.674,-0.612C0.745,-0.543 0.78,-0.457 0.78,-0.354C0.78,-0.251 0.745,-0.166 0.674,-0.097Z" style="fill:rgb(255,238,238);fill-rule:nonzero;"/>
            </g>
            <g transform="matrix(31.9308,0,0,31.9308,51.7925,177.434)">
                <path d="M0.086,0L0.086,-0.699L0.242,-0.699L0.242,-0.139L0.54,-0.139L0.54,0L0.086,0Z" style="fill:rgb(255,238,238);fill-rule:nonzero;"/>
            </g>
            <g transform="matrix(31.9308,0,0,31.9308,69.9292,177.434)">
                <rect x="0.086" y="-0.699" width="0.156" height="0.699" style="fill:rgb(255,238,238);fill-rule:nonzero;"/>
            </g>
            <g transform="matrix(31.9308,0,0,31.9308,80.4025,177.434)">
                <path d="M0.382,-0.564L0.382,0L0.226,0L0.226,-0.564L0.028,-0.564L0.028,-0.699L0.58,-0.699L0.58,-0.564L0.382,-0.564Z" style="fill:rgb(255,238,238);fill-rule:nonzero;"/>
            </g>
            <g transform="matrix(31.9308,0,0,31.9308,99.8164,177.434)">
                <rect x="0.086" y="-0.699" width="0.156" height="0.699" style="fill:rgb(255,238,238);fill-rule:nonzero;"/>
            </g>
            <g transform="matrix(31.9308,0,0,31.9308,110.29,177.434)">
                <path d="M0.407,-0.138C0.484,-0.138 0.546,-0.168 0.595,-0.229L0.695,-0.126C0.616,-0.037 0.522,0.008 0.414,0.008C0.307,0.008 0.218,-0.026 0.149,-0.094C0.079,-0.162 0.044,-0.248 0.044,-0.352C0.044,-0.455 0.08,-0.542 0.151,-0.611C0.222,-0.68 0.308,-0.715 0.411,-0.715C0.526,-0.715 0.622,-0.671 0.699,-0.584L0.602,-0.474C0.553,-0.535 0.491,-0.566 0.418,-0.566C0.359,-0.566 0.309,-0.547 0.268,-0.508C0.226,-0.47 0.205,-0.419 0.205,-0.354C0.205,-0.289 0.225,-0.236 0.264,-0.197C0.303,-0.158 0.351,-0.138 0.407,-0.138Z" style="fill:rgb(255,238,238);fill-rule:nonzero;"/>
            </g>
            <g transform="matrix(31.9308,0,0,31.9308,133.48,177.434)">
                <path d="M0.584,0L0.519,-0.151L0.226,-0.151L0.161,0L-0.005,0L0.297,-0.699L0.448,-0.699L0.75,0L0.584,0ZM0.373,-0.491L0.285,-0.288L0.46,-0.288L0.373,-0.491Z" style="fill:rgb(255,238,238);fill-rule:nonzero;"/>
            </g>
            <g transform="matrix(31.9308,0,0,31.9308,157.268,177.434)">
                <path d="M0.086,0L0.086,-0.699L0.242,-0.699L0.242,-0.139L0.54,-0.139L0.54,0L0.086,0Z" style="fill:rgb(255,238,238);fill-rule:nonzero;"/>
            </g>
        </g>
    </g>
</svg>
