<?xml version="1.0" encoding="UTF-8" standalone="no"?>
<!DOCTYPE svg PUBLIC "-//W3C//DTD SVG 1.1//EN" "http://www.w3.org/Graphics/SVG/1.1/DTD/svg11.dtd">
<svg width="200" height="200" viewBox="0 0 200 200" version="1.1" xmlns="http://www.w3.org/2000/svg" xmlns:xlink="http://www.w3.org/1999/xlink" xml:space="preserve" xmlns:serif="http://www.serif.com/" style="fill-rule:evenodd;clip-rule:evenodd;stroke-linejoin:round;stroke-miterlimit:2;">
    <g id="Collective" transform="matrix(2,0,0,2,0,0)">
        <path id="rect5322" d="M100,3.75C100,1.68 98.32,0 96.25,0L3.75,0C1.68,0 0,1.68 0,3.75L0,96.25C0,98.32 1.68,100 3.75,100L96.25,100C98.32,100 100,98.32 100,96.25L100,3.75Z" style="fill:rgb(34,34,34);"/>
        <path id="rect5324" d="M95,7.5C95,6.12 93.88,5 92.5,5L7.5,5C6.12,5 5,6.12 5,7.5L5,92.5C5,93.88 6.12,95 7.5,95L92.5,95C93.88,95 95,93.88 95,92.5L95,7.5Z" style="fill:rgb(218,0,0);"/>
        <g id="_155938" serif:id="155938" transform="matrix(0.0578125,0,0,0.0578125,50,38.0914)">
            <g transform="matrix(1,0,0,1,-640,-439.5)">
                <clipPath id="_clip1">
                    <rect x="0" y="0" width="1280" height="879"/>
                </clipPath>
                <g clip-path="url(#_clip1)">
                    <g transform="matrix(0.1,0,0,-0.1,0,879)">
                        <path d="M5105,8720C4619,8594 3426,8292 2885,8158L2355,8026L2128,7866C2003,7777 1760,7607 1589,7488L1277,7270L637,7270L-3,7270L4,5068C9,3856 13,2864 13,2863C14,2862 240,2858 516,2854L1016,2847L1141,2733C1827,2100 1905,2030 1928,2030C1936,2030 1969,2056 2003,2088C2037,2120 2142,2218 2235,2305C2329,2393 2661,2707 2974,3004C3286,3301 3562,3560 3586,3579C3644,3623 3707,3631 3773,3602C3798,3591 3980,3478 4177,3352C4591,3087 4668,3040 4689,3040C4708,3040 4773,3110 4873,3239C4918,3297 5000,3390 5056,3447C5146,3538 5161,3550 5192,3550C5252,3550 5311,3509 5845,3095C5988,2984 6305,2744 6550,2560C7040,2193 7146,2109 7155,2079C7166,2046 7121,1934 7059,1839L7000,1749L7000,1220C7000,928 7003,690 7007,690C7011,690 7195,795 7417,923L7821,1155L7816,1945C7813,2481 7808,2750 7800,2781C7792,2815 7773,2845 7732,2891C7701,2926 7425,3188 7120,3474C6815,3761 6500,4058 6421,4136L6276,4277L6269,4336C6252,4475 6263,4643 6291,4661C6315,4676 6361,4671 6396,4649C6453,4614 6460,4596 6460,4488L6460,4390L7245,3654L8030,2918L8030,2502C8030,1795 8042,1170 8055,1170C8074,1170 8305,1306 8529,1450L8739,1585L8740,2654L8740,3722L8077,4394C7240,5241 7106,5381 7079,5437C7059,5478 7058,5493 7062,5614C7069,5784 7072,5790 7156,5790C7251,5790 7266,5772 7274,5649C7277,5597 7281,5541 7283,5524C7285,5497 7404,5373 8118,4655L8950,3817L8951,2966C8952,2056 8960,1537 8973,1523C8985,1512 9089,1569 9429,1771L9720,1944L9720,4467L9128,5041C8802,5357 8253,5891 7908,6228C7563,6564 7278,6840 7275,6840C7271,6840 7150,6749 7006,6637C6685,6388 6684,6388 6635,6363C6613,6351 6548,6333 6491,6322C6433,6310 6380,6294 6372,6286C6362,6276 6356,6241 6352,6178L6348,6085L6206,5980C6129,5922 5881,5738 5655,5571C5137,5186 5089,5153 5022,5140C4992,5135 4760,5130 4482,5130L3995,5129L3924,5192C3479,5589 3212,5834 3198,5858C3169,5907 3175,5944 3218,5986C3238,6006 3537,6226 3881,6476L4507,6930L4513,7308C4517,7515 4522,7697 4526,7711C4533,7742 4524,7737 5145,8070C5748,8393 5810,8429 5810,8451C5810,8484 5426,8791 5386,8790C5380,8790 5254,8758 5105,8720Z" style="fill:rgb(34,34,34);fill-rule:nonzero;"/>
                        <path d="M6945,8773C6892,8763 6822,8730 6680,8650C6430,8509 6230,8401 5605,8070C5281,7898 4951,7722 4873,7677L4730,7597L4728,7211L4725,6825L4470,6637C4330,6533 4051,6329 3850,6183C3649,6037 3481,5914 3476,5909C3461,5895 3770,5620 3801,5620C3820,5620 3979,5723 4280,5931C4529,6103 4668,6190 4694,6190C4727,6190 4775,6155 4789,6121C4797,6103 4800,6076 4796,6055C4787,6011 4769,5997 4350,5711C4171,5589 4014,5480 4000,5470L3975,5450L4023,5405L4072,5360L5002,5360L5069,5407C5132,5452 5841,5978 6036,6124L6127,6192L6133,6439C6137,6574 6140,6748 6140,6826C6140,6903 6143,7014 6146,7072L6153,7178L6203,7201L6252,7225L6299,7199L6345,7173L6351,6854C6354,6679 6357,6533 6358,6532C6362,6524 6486,6543 6525,6557C6547,6564 6590,6590 6620,6613C6650,6637 6769,6730 6884,6820C7126,7008 7244,7090 7275,7090C7338,7090 7509,6930 8949,5520C9430,5050 9857,4634 9897,4597L9970,4528L9970,3274L9970,2020L10378,2020L10785,2021L11216,2439L11646,2858L12223,2865L12800,2873L12800,7170L12283,7170L11765,7169L11640,7273C11571,7330 11470,7411 11415,7452C11360,7494 11244,7586 11158,7657C11002,7785 11000,7786 10908,7812C10795,7844 10076,8024 9555,8150C9346,8201 9099,8262 9005,8286C8522,8412 7112,8757 7050,8765C7025,8769 6996,8773 6985,8774C6974,8776 6956,8775 6945,8773Z" style="fill:rgb(34,34,34);fill-rule:nonzero;"/>
                        <path d="M3573,3272C3376,3090 2228,1995 2117,1883L2018,1783L2142,1678C2364,1489 2793,1136 2878,1072C2950,1018 2964,1011 2979,1022C3025,1055 3262,1325 3592,1720C3727,1882 3994,2197 4184,2420C4399,2672 4530,2833 4530,2846C4530,2862 4479,2900 4303,3017C4062,3176 3807,3336 3741,3369L3702,3390L3573,3272ZM3698,2968L3768,2900L3677,2809L3585,2719L3645,2662C3678,2631 3761,2563 3828,2512C3896,2460 3950,2414 3948,2410C3941,2391 3834,2250 3827,2250C3809,2250 3426,2531 3338,2610C3281,2660 3277,2689 3318,2746C3353,2793 3610,3042 3621,3038C3625,3036 3660,3005 3698,2968Z" style="fill:rgb(34,34,34);fill-rule:nonzero;"/>
                        <path d="M5137,3208C5096,3162 4886,2916 4669,2660C4453,2404 4152,2049 4000,1870C3848,1691 3682,1493 3630,1430C3578,1367 3484,1252 3420,1175C3294,1023 3230,938 3230,923C3230,909 3452,848 4299,629L4503,576L4554,631C4622,704 5173,1419 5309,1610C5350,1668 5465,1821 5565,1950C5926,2418 6070,2610 6070,2625C6070,2647 5994,2721 5929,2762C5899,2781 5737,2901 5570,3027C5402,3153 5253,3264 5239,3274L5212,3291L5137,3208ZM5241,2920C5292,2894 5360,2832 5360,2812C5360,2804 5344,2778 5325,2754C5272,2689 5190,2568 5190,2554C5190,2547 5232,2516 5283,2485C5455,2380 5500,2346 5500,2325C5500,2299 5413,2150 5398,2150C5392,2150 5299,2203 5192,2268C4916,2433 4853,2498 4895,2576C4928,2638 5179,2940 5196,2940C5199,2940 5219,2931 5241,2920Z" style="fill:rgb(34,34,34);fill-rule:nonzero;"/>
                        <path d="M6183,2388C6141,2331 5995,2141 5860,1965C5627,1662 5064,916 4862,642L4768,516L4803,504C4822,497 4948,464 5082,430C5215,396 5424,341 5545,308L5765,248L5802,292C5842,337 6271,1001 6470,1325C6534,1430 6637,1594 6697,1690C6857,1943 6884,1994 6869,2017C6830,2077 6306,2490 6269,2490C6265,2490 6226,2444 6183,2388ZM6357,2135L6412,2085L6376,2035C6319,1955 6288,1901 6294,1891C6297,1886 6339,1855 6388,1822C6437,1789 6482,1755 6488,1748C6505,1727 6405,1560 6375,1560C6362,1560 6143,1701 6067,1759C5983,1822 5974,1867 6027,1959C6054,2005 6136,2106 6203,2177L6243,2219L6273,2202C6289,2193 6327,2163 6357,2135Z" style="fill:rgb(34,34,34);fill-rule:nonzero;"/>
                        <path d="M1038,2329C844,2162 630,1966 631,1956C632,1939 1150,1468 1232,1409L1258,1390L1302,1426C1325,1446 1438,1551 1552,1659L1760,1855L1662,1949C1544,2062 1304,2281 1235,2336C1182,2379 1148,2400 1131,2400C1125,2400 1083,2368 1038,2329Z" style="fill:rgb(34,34,34);fill-rule:nonzero;"/>
                        <path d="M1701,1486C1549,1333 1552,1350 1653,1273C1722,1220 2399,750 2417,743C2424,740 2489,769 2562,807C2713,885 2725,901 2671,949C2428,1161 1863,1620 1845,1620C1839,1620 1774,1560 1701,1486Z" style="fill:rgb(34,34,34);fill-rule:nonzero;"/>
                        <path d="M6647,1183C6428,841 6250,550 6250,534C6250,521 6481,538 6621,560L6758,582L6765,865C6772,1141 6766,1330 6750,1330C6745,1330 6699,1264 6647,1183Z" style="fill:rgb(34,34,34);fill-rule:nonzero;"/>
                        <path d="M3290,654C3290,615 3717,250 3762,250C3776,250 4008,429 4013,445C4017,454 4012,464 4000,470C3990,475 3838,518 3663,564C3293,662 3290,662 3290,654Z" style="fill:rgb(34,34,34);fill-rule:nonzero;"/>
                        <path d="M4730,254C4712,234 4693,53 4706,40C4724,22 4880,9 5083,7L5282,5L5316,45C5357,93 5359,117 5323,131C5268,152 4778,270 4747,270C4744,270 4737,263 4730,254Z" style="fill:rgb(34,34,34);fill-rule:nonzero;"/>
                    </g>
                </g>
            </g>
        </g>
        <path id="path5326" d="M2.75,70L2.75,95C2.75,100.817 7.433,96.25 13.25,96.25L86.75,96.25C92.567,96.25 97.25,100.817 97.25,95L97.25,70L2.75,70Z" style="fill:rgb(34,34,34);fill-rule:nonzero;"/>
        <g transform="matrix(0.445965,0,0,0.501084,15.9577,-0.166712)">
            <g id="Text" transform="matrix(31.9308,0,0,31.9308,-25.0948,177.434)">
                <path d="M0.407,-0.138C0.484,-0.138 0.546,-0.168 0.595,-0.229L0.695,-0.126C0.616,-0.037 0.522,0.008 0.414,0.008C0.307,0.008 0.218,-0.026 0.149,-0.094C0.079,-0.162 0.044,-0.248 0.044,-0.352C0.044,-0.455 0.08,-0.542 0.151,-0.611C0.222,-0.68 0.308,-0.715 0.411,-0.715C0.526,-0.715 0.622,-0.671 0.699,-0.584L0.602,-0.474C0.553,-0.535 0.491,-0.566 0.418,-0.566C0.359,-0.566 0.309,-0.547 0.268,-0.508C0.226,-0.47 0.205,-0.419 0.205,-0.354C0.205,-0.289 0.225,-0.236 0.264,-0.197C0.303,-0.158 0.351,-0.138 0.407,-0.138Z" style="fill:rgb(255,238,238);fill-rule:nonzero;"/>
            </g>
            <g transform="matrix(31.9308,0,0,31.9308,-2.25958,177.434)">
                <path d="M0.621,-0.354C0.621,-0.416 0.601,-0.469 0.561,-0.513C0.521,-0.557 0.472,-0.579 0.413,-0.579C0.355,-0.579 0.306,-0.557 0.266,-0.513C0.226,-0.469 0.206,-0.416 0.206,-0.354C0.206,-0.291 0.226,-0.238 0.266,-0.195C0.306,-0.151 0.355,-0.129 0.413,-0.129C0.472,-0.129 0.521,-0.151 0.561,-0.195C0.601,-0.238 0.621,-0.291 0.621,-0.354ZM0.674,-0.097C0.603,-0.028 0.516,0.007 0.413,0.007C0.31,0.007 0.223,-0.028 0.152,-0.097C0.081,-0.166 0.046,-0.251 0.046,-0.354C0.046,-0.457 0.081,-0.543 0.152,-0.612C0.223,-0.681 0.31,-0.715 0.413,-0.715C0.516,-0.715 0.603,-0.681 0.674,-0.612C0.745,-0.543 0.78,-0.457 0.78,-0.354C0.78,-0.251 0.745,-0.166 0.674,-0.097Z" style="fill:rgb(255,238,238);fill-rule:nonzero;"/>
            </g>
            <g transform="matrix(31.9308,0,0,31.9308,24.1152,177.434)">
                <path d="M0.086,0L0.086,-0.699L0.242,-0.699L0.242,-0.139L0.54,-0.139L0.54,0L0.086,0Z" style="fill:rgb(255,238,238);fill-rule:nonzero;"/>
            </g>
            <g transform="matrix(31.9308,0,0,31.9308,42.2519,177.434)">
                <path d="M0.086,0L0.086,-0.699L0.242,-0.699L0.242,-0.139L0.54,-0.139L0.54,0L0.086,0Z" style="fill:rgb(255,238,238);fill-rule:nonzero;"/>
            </g>
            <g transform="matrix(31.9308,0,0,31.9308,60.3886,177.434)">
                <path d="M0.59,-0.699L0.59,-0.56L0.242,-0.56L0.242,-0.416L0.555,-0.416L0.555,-0.283L0.242,-0.283L0.242,-0.138L0.601,-0.138L0.601,0L0.086,0L0.086,-0.699L0.59,-0.699Z" style="fill:rgb(255,238,238);fill-rule:nonzero;"/>
            </g>
            <g transform="matrix(31.9308,0,0,31.9308,81.2714,177.434)">
                <path d="M0.407,-0.138C0.484,-0.138 0.546,-0.168 0.595,-0.229L0.695,-0.126C0.616,-0.037 0.522,0.008 0.414,0.008C0.307,0.008 0.218,-0.026 0.149,-0.094C0.079,-0.162 0.044,-0.248 0.044,-0.352C0.044,-0.455 0.08,-0.542 0.151,-0.611C0.222,-0.68 0.308,-0.715 0.411,-0.715C0.526,-0.715 0.622,-0.671 0.699,-0.584L0.602,-0.474C0.553,-0.535 0.491,-0.566 0.418,-0.566C0.359,-0.566 0.309,-0.547 0.268,-0.508C0.226,-0.47 0.205,-0.419 0.205,-0.354C0.205,-0.289 0.225,-0.236 0.264,-0.197C0.303,-0.158 0.351,-0.138 0.407,-0.138Z" style="fill:rgb(255,238,238);fill-rule:nonzero;"/>
            </g>
            <g transform="matrix(31.9308,0,0,31.9308,104.645,177.434)">
                <path d="M0.382,-0.564L0.382,0L0.226,0L0.226,-0.564L0.028,-0.564L0.028,-0.699L0.58,-0.699L0.58,-0.564L0.382,-0.564Z" style="fill:rgb(255,238,238);fill-rule:nonzero;"/>
            </g>
            <g transform="matrix(31.9308,0,0,31.9308,124.059,177.434)">
                <rect x="0.086" y="-0.699" width="0.156" height="0.699" style="fill:rgb(255,238,238);fill-rule:nonzero;"/>
            </g>
            <g transform="matrix(31.9308,0,0,31.9308,134.532,177.434)">
                <path d="M0.344,-0.254L0.522,-0.699L0.691,-0.699L0.41,0L0.278,0L-0.003,-0.699L0.166,-0.699L0.344,-0.254Z" style="fill:rgb(255,238,238);fill-rule:nonzero;"/>
            </g>
            <g transform="matrix(31.9308,0,0,31.9308,156.5,177.434)">
                <path d="M0.59,-0.699L0.59,-0.56L0.242,-0.56L0.242,-0.416L0.555,-0.416L0.555,-0.283L0.242,-0.283L0.242,-0.138L0.601,-0.138L0.601,0L0.086,0L0.086,-0.699L0.59,-0.699Z" style="fill:rgb(255,238,238);fill-rule:nonzero;"/>
            </g>
        </g>
    </g>
</svg>
