<?xml version="1.0" encoding="UTF-8" standalone="no"?>
<!DOCTYPE svg PUBLIC "-//W3C//DTD SVG 1.1//EN" "http://www.w3.org/Graphics/SVG/1.1/DTD/svg11.dtd">
<svg width="200" height="200" viewBox="0 0 200 200" version="1.1" xmlns="http://www.w3.org/2000/svg" xmlns:xlink="http://www.w3.org/1999/xlink" xml:space="preserve" xmlns:serif="http://www.serif.com/" style="fill-rule:evenodd;clip-rule:evenodd;stroke-linejoin:round;stroke-miterlimit:2;">
    <g id="Ecological" transform="matrix(2,0,0,2,0,0)">
        <path id="rect5322" d="M100,3.75C100,1.68 98.32,0 96.25,0L3.75,0C1.68,0 0,1.68 0,3.75L0,96.25C0,98.32 1.68,100 3.75,100L96.25,100C98.32,100 100,98.32 100,96.25L100,3.75Z" style="fill:rgb(34,34,34);"/>
        <path id="rect5324" d="M95,7.5C95,6.12 93.88,5 92.5,5L7.5,5C6.12,5 5,6.12 5,7.5L5,92.5C5,93.88 6.12,95 7.5,95L92.5,95C93.88,95 95,93.88 95,92.5L95,7.5Z" style="fill:rgb(0,204,0);"/>
        <path id="path5326" d="M2.75,70L2.75,95C2.75,100.817 7.433,96.25 13.25,96.25L86.75,96.25C92.567,96.25 97.25,100.817 97.25,95L97.25,70L2.75,70Z" style="fill:rgb(34,34,34);fill-rule:nonzero;"/>
        <g id="Leaf_icon_15" transform="matrix(1.2989,0,0,1.2989,50.3097,45.5984)">
            <g transform="matrix(1,0,0,1,-24.0054,-24.4084)">
                <clipPath id="_clip1">
                    <rect x="0" y="0" width="48.011" height="48.817"/>
                </clipPath>
                <g clip-path="url(#_clip1)">
                    <g id="path134" transform="matrix(1.25,0,0,1.25,-0.46804,0)">
                        <path d="M10.011,39.054C7.132,38.849 5.626,37.811 4.853,36.659C5.002,33.855 5.431,30.363 6.637,27.194C7.329,25.379 8.311,23.736 9.515,22.528C10.831,21.089 12.048,19.981 13.273,19.068C15.693,17.276 17.815,16.495 18.487,16.221C19.166,15.958 20.385,15.466 21.859,14.917C23.328,14.414 25.108,13.686 26.627,12.795C29.742,11.092 32.323,9.17 32.319,9.17C32.324,9.17 29.564,10.7 26.357,11.97C24.739,12.66 23.086,13.113 21.542,13.471C20.024,13.861 18.741,14.259 18.035,14.532C16.714,15.083 8.801,17.615 4.76,26.103C3.845,28.271 3.272,30.514 2.901,32.615C1.987,32.099 0.85,31.101 0.54,29.254C0,26.036 0.3,16.379 9.051,11.015C17.803,5.651 27.574,6.723 32.249,5.15C36.925,3.577 38.783,0 38.783,0C38.783,0 34.887,36.407 10.011,39.054Z" style="fill:rgb(34,34,34);fill-rule:nonzero;"/>
                    </g>
                </g>
            </g>
        </g>
        <g transform="matrix(0.425921,0,0,0.501084,15.4103,-0.166712)">
            <g id="Text" transform="matrix(31.9308,0,0,31.9308,-25.686,177.434)">
                <path d="M0.59,-0.699L0.59,-0.56L0.242,-0.56L0.242,-0.416L0.555,-0.416L0.555,-0.283L0.242,-0.283L0.242,-0.138L0.601,-0.138L0.601,0L0.086,0L0.086,-0.699L0.59,-0.699Z" style="fill:rgb(255,238,238);fill-rule:nonzero;"/>
            </g>
            <g transform="matrix(31.9308,0,0,31.9308,-4.80322,177.434)">
                <path d="M0.407,-0.138C0.484,-0.138 0.546,-0.168 0.595,-0.229L0.695,-0.126C0.616,-0.037 0.522,0.008 0.414,0.008C0.307,0.008 0.218,-0.026 0.149,-0.094C0.079,-0.162 0.044,-0.248 0.044,-0.352C0.044,-0.455 0.08,-0.542 0.151,-0.611C0.222,-0.68 0.308,-0.715 0.411,-0.715C0.526,-0.715 0.622,-0.671 0.699,-0.584L0.602,-0.474C0.553,-0.535 0.491,-0.566 0.418,-0.566C0.359,-0.566 0.309,-0.547 0.268,-0.508C0.226,-0.47 0.205,-0.419 0.205,-0.354C0.205,-0.289 0.225,-0.236 0.264,-0.197C0.303,-0.158 0.351,-0.138 0.407,-0.138Z" style="fill:rgb(255,238,238);fill-rule:nonzero;"/>
            </g>
            <g transform="matrix(31.9308,0,0,31.9308,18.0066,177.434)">
                <path d="M0.621,-0.354C0.621,-0.416 0.601,-0.469 0.561,-0.513C0.521,-0.557 0.472,-0.579 0.413,-0.579C0.355,-0.579 0.306,-0.557 0.266,-0.513C0.226,-0.469 0.206,-0.416 0.206,-0.354C0.206,-0.291 0.226,-0.238 0.266,-0.195C0.306,-0.151 0.355,-0.129 0.413,-0.129C0.472,-0.129 0.521,-0.151 0.561,-0.195C0.601,-0.238 0.621,-0.291 0.621,-0.354ZM0.674,-0.097C0.603,-0.028 0.516,0.007 0.413,0.007C0.31,0.007 0.223,-0.028 0.152,-0.097C0.081,-0.166 0.046,-0.251 0.046,-0.354C0.046,-0.457 0.081,-0.543 0.152,-0.612C0.223,-0.681 0.31,-0.715 0.413,-0.715C0.516,-0.715 0.603,-0.681 0.674,-0.612C0.745,-0.543 0.78,-0.457 0.78,-0.354C0.78,-0.251 0.745,-0.166 0.674,-0.097Z" style="fill:rgb(255,238,238);fill-rule:nonzero;"/>
            </g>
            <g transform="matrix(31.9308,0,0,31.9308,44.3815,177.434)">
                <path d="M0.086,0L0.086,-0.699L0.242,-0.699L0.242,-0.139L0.54,-0.139L0.54,0L0.086,0Z" style="fill:rgb(255,238,238);fill-rule:nonzero;"/>
            </g>
            <g transform="matrix(31.9308,0,0,31.9308,61.8044,177.434)">
                <path d="M0.621,-0.354C0.621,-0.416 0.601,-0.469 0.561,-0.513C0.521,-0.557 0.472,-0.579 0.413,-0.579C0.355,-0.579 0.306,-0.557 0.266,-0.513C0.226,-0.469 0.206,-0.416 0.206,-0.354C0.206,-0.291 0.226,-0.238 0.266,-0.195C0.306,-0.151 0.355,-0.129 0.413,-0.129C0.472,-0.129 0.521,-0.151 0.561,-0.195C0.601,-0.238 0.621,-0.291 0.621,-0.354ZM0.674,-0.097C0.603,-0.028 0.516,0.007 0.413,0.007C0.31,0.007 0.223,-0.028 0.152,-0.097C0.081,-0.166 0.046,-0.251 0.046,-0.354C0.046,-0.457 0.081,-0.543 0.152,-0.612C0.223,-0.681 0.31,-0.715 0.413,-0.715C0.516,-0.715 0.603,-0.681 0.674,-0.612C0.745,-0.543 0.78,-0.457 0.78,-0.354C0.78,-0.251 0.745,-0.166 0.674,-0.097Z" style="fill:rgb(255,238,238);fill-rule:nonzero;"/>
            </g>
            <g transform="matrix(31.9308,0,0,31.9308,88.1792,177.434)">
                <path d="M0.54,-0.356L0.697,-0.356L0.697,-0.108C0.628,-0.031 0.532,0.008 0.409,0.008C0.306,0.008 0.22,-0.026 0.151,-0.094C0.081,-0.162 0.046,-0.248 0.046,-0.352C0.046,-0.455 0.082,-0.542 0.153,-0.611C0.224,-0.68 0.309,-0.715 0.409,-0.715C0.51,-0.715 0.597,-0.682 0.671,-0.616L0.59,-0.499C0.559,-0.526 0.53,-0.545 0.503,-0.556C0.477,-0.566 0.449,-0.571 0.418,-0.571C0.359,-0.571 0.309,-0.551 0.268,-0.51C0.227,-0.47 0.207,-0.417 0.207,-0.351C0.207,-0.285 0.227,-0.232 0.266,-0.193C0.305,-0.153 0.351,-0.133 0.405,-0.133C0.459,-0.133 0.504,-0.143 0.54,-0.164L0.54,-0.356Z" style="fill:rgb(255,238,238);fill-rule:nonzero;"/>
            </g>
            <g transform="matrix(31.9308,0,0,31.9308,112.127,177.434)">
                <rect x="0.086" y="-0.699" width="0.156" height="0.699" style="fill:rgb(255,238,238);fill-rule:nonzero;"/>
            </g>
            <g transform="matrix(31.9308,0,0,31.9308,122.601,177.434)">
                <path d="M0.407,-0.138C0.484,-0.138 0.546,-0.168 0.595,-0.229L0.695,-0.126C0.616,-0.037 0.522,0.008 0.414,0.008C0.307,0.008 0.218,-0.026 0.149,-0.094C0.079,-0.162 0.044,-0.248 0.044,-0.352C0.044,-0.455 0.08,-0.542 0.151,-0.611C0.222,-0.68 0.308,-0.715 0.411,-0.715C0.526,-0.715 0.622,-0.671 0.699,-0.584L0.602,-0.474C0.553,-0.535 0.491,-0.566 0.418,-0.566C0.359,-0.566 0.309,-0.547 0.268,-0.508C0.226,-0.47 0.205,-0.419 0.205,-0.354C0.205,-0.289 0.225,-0.236 0.264,-0.197C0.303,-0.158 0.351,-0.138 0.407,-0.138Z" style="fill:rgb(255,238,238);fill-rule:nonzero;"/>
            </g>
            <g transform="matrix(31.9308,0,0,31.9308,145.786,177.434)">
                <path d="M0.584,0L0.519,-0.151L0.226,-0.151L0.161,0L-0.005,0L0.297,-0.699L0.448,-0.699L0.75,0L0.584,0ZM0.373,-0.491L0.285,-0.288L0.46,-0.288L0.373,-0.491Z" style="fill:rgb(255,238,238);fill-rule:nonzero;"/>
            </g>
            <g transform="matrix(31.9308,0,0,31.9308,169.575,177.434)">
                <path d="M0.086,0L0.086,-0.699L0.242,-0.699L0.242,-0.139L0.54,-0.139L0.54,0L0.086,0Z" style="fill:rgb(255,238,238);fill-rule:nonzero;"/>
            </g>
        </g>
    </g>
</svg>
