<?xml version="1.0" encoding="UTF-8" standalone="no"?>
<!DOCTYPE svg PUBLIC "-//W3C//DTD SVG 1.1//EN" "http://www.w3.org/Graphics/SVG/1.1/DTD/svg11.dtd">
<svg width="200" height="200" viewBox="0 0 200 200" version="1.1" xmlns="http://www.w3.org/2000/svg" xmlns:xlink="http://www.w3.org/1999/xlink" xml:space="preserve" xmlns:serif="http://www.serif.com/" style="fill-rule:evenodd;clip-rule:evenodd;stroke-linejoin:round;stroke-miterlimit:2;">
    <g id="Essentialist" transform="matrix(2,0,0,2,0,0)">
        <path id="rect5322" d="M100,3.75C100,1.68 98.32,0 96.25,0L3.75,0C1.68,0 0,1.68 0,3.75L0,96.25C0,98.32 1.68,100 3.75,100L96.25,100C98.32,100 100,98.32 100,96.25L100,3.75Z" style="fill:rgb(34,34,34);"/>
        <path id="rect5324" d="M95,7.5C95,6.12 93.88,5 92.5,5L7.5,5C6.12,5 5,6.12 5,7.5L5,92.5C5,93.88 6.12,95 7.5,95L92.5,95C93.88,95 95,93.88 95,92.5L95,7.5Z" style="fill:rgb(0,204,0);"/>
        <g id="mandala" transform="matrix(0.0973669,-1.08099e-17,1.08099e-17,0.0973669,50,57.9375)">
            <g transform="matrix(1,0,0,1,-432,-432)">
                <path d="M142.193,317.088C135.468,305.997 128.648,295.795 120.445,286.528C114.017,279.265 108.002,271.637 101.644,264.31C96.932,258.881 91.947,253.689 87.121,248.358C85.273,246.317 83.536,244.175 81.732,242.094C80.525,240.701 80.086,239.041 80.837,237.429C81.628,235.735 83.084,235.562 85.052,235.745C90.222,236.225 94.777,238.761 99.793,239.66C101.767,240.014 103.681,240.702 105.652,241.066C113.053,242.435 120.458,243.79 127.881,245.031C131.42,245.623 135.004,245.951 138.569,246.386C139.282,246.473 140.026,246.404 140.714,246.575C150.525,249.019 160.577,249.485 170.595,250.147C173.377,250.331 176.207,249.813 179.429,249.586C172.927,243.472 172.007,236.513 174.767,228.621C167.441,225.514 162.429,220.397 160.449,212.401C158.498,204.522 160.398,197.769 165.816,191.796C164.958,191.013 164.396,190.413 163.752,189.924C158.594,186.016 157.076,177.227 160.473,171.39C162.955,167.123 165.858,163.312 170.098,160.369C169.327,159.515 168.734,158.807 168.087,158.15C165.874,155.905 164.95,153.178 164.643,150.072C164.054,144.116 163.452,138.15 162.485,132.248C161.948,128.969 160.669,125.811 159.721,122.6C159.382,121.454 159.032,120.313 158.69,119.168C158.284,117.805 158.237,116.624 159.768,115.805C161.262,115.005 162.559,115.273 163.77,116.24C164.692,116.977 165.444,117.935 166.389,118.637C170.225,121.488 174.893,122.224 179.301,123.624C184.184,125.175 189.209,126.412 193.871,128.468C196.447,129.605 198.407,132.14 200.838,134.209C204.045,130.955 208.153,128.33 212.961,127.078C219.383,125.406 228.247,128.452 230.183,135.453C230.338,136.013 230.638,136.548 230.952,137.044C231.126,137.32 231.466,137.492 231.991,137.926C233.088,137.072 234.207,136.243 235.28,135.358C240.176,131.322 246.725,130.946 252.296,134.142C255.103,135.753 257.894,137.273 260.202,139.629C262.46,141.934 263.852,144.551 264.325,147.73C264.534,149.126 264.97,150.488 265.298,151.849C279.091,149.316 282.032,153.257 285.443,162.066C285.762,161.028 286.126,160.323 286.181,159.594C286.791,151.608 287.318,143.614 287.942,135.628C288.418,129.541 289.234,123.471 289.468,117.376C289.712,111.036 289.486,104.674 289.38,98.323C289.271,91.862 289.108,85.4 288.862,78.942C288.758,76.2 288.209,73.469 288.182,70.731C288.155,67.885 288.418,65.024 288.766,62.195C288.869,61.366 289.696,60.626 290.182,59.859C293.08,60.339 294.446,62.526 295.959,64.231C302.709,71.834 309.365,79.523 315.873,87.335C319.24,91.378 322.014,95.923 325.431,99.92C332.432,108.107 339.504,116.243 347.782,123.231C350.323,125.376 352.565,127.874 354.956,130.2C355.116,130.356 355.364,130.423 355.878,130.691C357.39,123.243 360.898,117.182 368.032,113.787C364.042,106.461 362.838,99.404 366.714,91.702C370.694,83.791 378.005,82.518 385.508,81.121C385.486,78.275 384.278,75.743 384.812,72.913C385.771,67.828 388.541,64.11 392.789,61.56C395.873,59.709 399.317,58.588 403.076,58.969C404.478,59.111 405.906,58.992 407.572,58.992C407.572,57.355 407.39,56.044 407.607,54.804C408.119,51.894 408.958,49.219 410.615,46.552C414.83,39.774 418.443,32.622 422.233,25.585C422.731,24.661 422.789,23.51 423.17,22.509C423.715,21.071 424.293,19.634 425,18.27C425.59,17.133 426.58,16.441 427.959,16.743C429.17,17.008 429.83,17.613 430.412,18.931C433.205,25.259 436.25,31.477 439.278,37.7C440.579,40.374 443.038,42.195 444.294,45.058C446.151,49.289 447.39,53.296 445.439,57.754C445.261,58.16 445.265,58.645 445.134,59.363C448.507,59.585 451.691,59.702 454.853,60.025C459.013,60.45 462.955,61.687 465.421,65.299C468.386,69.637 470.126,74.389 468.474,79.781C468.24,80.544 468.103,81.338 467.798,82.65C473.462,82.141 478.595,82.775 482.778,86.506C486.729,90.031 489.596,94.198 490.274,99.614C490.96,105.078 489.405,109.938 486.03,114.642C490.026,115.933 492.212,119.026 494.483,122.043C496.932,125.298 496.928,128.842 496.092,132.851C497.944,131.212 499.92,129.694 501.621,127.912C506.664,122.629 511.832,117.44 516.514,111.848C522.895,104.221 528.942,96.309 535.004,88.422C541.801,79.582 548.438,70.618 555.19,61.744C556.567,59.935 558.151,58.284 559.729,56.455C560.454,56.383 561.284,56.204 562.106,56.236C565.28,56.36 565.864,57.27 565.44,60.478C564.86,64.846 564.71,69.281 563.958,73.615C562.681,80.964 563.126,88.389 562.628,95.769C562.45,98.375 562.999,101.025 563.148,103.658C563.589,111.439 563.763,119.244 564.476,126.999C565.285,135.811 566.138,144.645 568.451,153.244C568.697,154.155 568.76,155.116 568.914,156.088C571.984,154.454 574.816,152.409 577.978,151.417C581.146,150.423 584.615,150.824 587.767,152.265C588.847,149.484 589.785,146.785 590.929,144.177C594.173,136.782 600.091,133.764 607.96,133.292C613.993,132.93 618.144,135.957 622.499,139.931C625.052,132.903 630.272,128.624 637.29,128.163C644.04,127.721 650.532,129.795 654.907,135.824C655.106,135.787 655.489,135.809 655.534,135.697C657.53,130.661 662.083,129.064 666.618,127.502C669.638,126.461 672.858,125.893 675.731,124.556C679.942,122.595 683.926,120.144 687.999,117.883C688.729,117.478 689.395,116.962 690.11,116.528C691.319,115.795 692.559,115.475 693.714,116.592C695.085,117.923 695.247,119.326 694.331,120.983C691.759,125.628 691.376,130.769 690.972,135.902C690.577,140.909 690.298,145.928 689.781,150.923C689.453,154.082 687.541,156.402 685.049,158.252C684.477,158.677 683.865,159.049 683.018,159.613C684.313,160.515 685.475,161.254 686.559,162.094C687.975,163.193 689.401,164.297 690.7,165.529C698.427,172.856 696.698,183.693 689.274,190.016C688.208,190.925 687.331,192.057 686.495,192.948C687.997,195.175 689.546,197.339 690.958,199.59C694.001,204.442 693.118,209.448 691.312,214.416C689.529,219.325 686.255,222.971 681.609,225.372C680.449,225.971 679.293,226.579 677.804,227.354C681.202,234.792 681.005,241.819 674.613,247.937C678.013,247.937 681.068,248.207 684.06,247.887C693.703,246.858 703.304,245.44 712.955,244.497C722.986,243.517 732.748,241.2 742.588,239.22C750.43,237.641 758.301,236.199 766.156,234.686C767.947,234.341 769.515,234.645 770.592,236.233C771.592,237.707 771.428,239.531 770.012,241.176C767.68,243.884 765.315,246.573 762.836,249.146C756.584,255.638 750.824,262.544 746.16,270.25C741.461,278.012 735.06,284.336 729.248,291.152C723.551,297.832 718.783,305.045 714.992,313.423C722.83,313.015 727.855,317.079 731.691,323.171C733.644,321.643 735.277,320.235 737.045,319.026C738.207,318.23 739.51,317.33 740.844,317.144C749.365,315.956 757.141,317.582 763.043,324.319C764.711,326.223 765.596,328.819 766.807,331.116C767.184,331.833 767.452,332.606 767.764,333.339C783.076,328.104 794.836,339.808 795.821,354.14C796.952,353.919 798.063,353.566 799.186,353.519C800.594,353.46 802.077,353.415 803.416,353.776C812.064,356.099 820.682,358.54 829.314,360.927C829.886,361.085 830.494,361.211 831.084,361.204C833.477,361.179 835.535,361.687 836.811,364.018C837.108,364.561 837.924,364.82 838.522,365.225C837.711,367.922 836.417,369.565 833.487,370.163C831.36,370.597 829.247,371.901 827.518,373.3C824.557,375.698 821.967,378.546 819.102,381.071C816.053,383.757 813.092,386.655 809.661,388.753C807.456,390.103 804.47,390.175 801.632,390.868C802.386,395.527 802.482,400.434 801.376,405.39C799.774,412.561 794.505,416.45 786.911,416.901C785.725,416.971 784.53,416.911 782.891,416.911C782.891,419.096 782.883,421.097 782.893,423.099C782.952,437.037 767.629,445.321 756.577,442.217C755.46,441.903 754.407,441.355 753.11,440.828C752.426,448.518 747.251,451.328 740.354,452.751C740.915,453.494 741.26,454.231 741.834,454.674C747.324,458.912 752.824,463.142 758.381,467.291C762.799,470.588 767.242,473.855 771.785,476.977C775.924,479.822 780.164,482.529 784.445,485.159C790.777,489.048 797.097,492.97 803.59,496.576C807.762,498.893 812.195,500.762 816.586,502.654C819.242,503.799 819.58,506.141 819.912,508.434C820.004,509.069 819.121,510.008 818.467,510.534C817.959,510.941 817.115,510.951 816.41,511.083C811.367,512.024 806.326,512.985 801.273,513.875C796.216,514.765 791.148,515.585 786.082,516.427C776.174,518.073 766.201,519.407 756.375,521.448C747.727,523.244 739.238,525.814 730.689,528.08C729.666,528.351 728.705,528.857 727.279,529.43C734.228,534.044 735.685,540.542 734.718,548.012C736.888,548.414 739.058,548.852 741.241,549.215C747.149,550.196 751.626,553.571 755.108,558.133C756.555,560.029 757.354,562.643 757.778,565.048C758.616,569.807 758.878,574.629 755.329,578.797C758.083,580.576 760.999,581.996 763.311,584.084C765.813,586.343 767.495,589.523 767.918,592.853C768.316,595.988 768.1,599.319 767.484,602.43C766.869,605.536 765.937,608.738 762.838,611.056C769.834,614.453 772.156,621.337 775.969,626.996C779.455,632.172 782.852,637.367 787.477,641.646C790.159,644.127 790.526,645.872 788.858,647.797C788.299,648.441 787.251,649.087 786.475,649.034C783.897,648.862 781.342,648.363 778.776,648.008C777.712,647.861 776.628,647.584 775.575,647.666C768.538,648.215 761.495,648.73 754.481,649.493C750.626,649.912 747.497,648.574 744.504,646.45C743.697,645.877 742.815,645.41 741.553,644.643C740.623,650.083 736.278,652.288 733.223,655.525C732.387,656.409 730.965,656.886 729.725,657.213C723.895,658.744 718.151,659.574 713.637,654.115C713.432,653.867 713.01,653.799 712.344,653.482C711.381,654.543 710.336,655.631 709.362,656.779C706.544,660.092 703.598,663.231 699.007,663.934C697.861,664.11 696.597,664.237 695.507,663.942C691.589,662.882 687.632,661.866 683.868,660.383C680.686,659.131 678.364,656.652 676.93,653.462C676.455,652.407 675.987,651.351 675.368,649.96C669.8,652.718 664.729,656.88 657.833,652.359C658.323,655.926 658.61,658.563 659.063,661.171C659.493,663.647 660.11,666.088 660.618,668.551C663.975,684.884 668.745,700.756 675.657,715.975C677.628,720.314 678.991,724.93 680.639,729.415C681.629,732.11 682.678,734.785 683.616,737.498C684.505,740.073 685.284,742.686 686.139,745.374C684.936,746.209 683.979,746.875 682.633,747.809C680.699,746.591 678.69,745.388 676.742,744.09C671.967,740.905 667.207,737.696 662.465,734.463C659.315,732.317 656.274,730.006 653.061,727.96C649.84,725.907 646.471,724.086 643.159,722.175C639.024,719.786 634.966,717.243 630.723,715.065C623.596,711.405 616.389,707.896 609.139,704.489C605.463,702.761 601.623,701.383 597.846,699.874C596.772,699.445 595.66,699.114 594.119,698.585C595.135,700.467 595.93,701.864 596.654,703.299C600.142,710.229 599.068,715.134 593.146,720.022C594.091,720.77 594.964,721.521 595.896,722.189C598.863,724.318 600.775,727.177 601.357,730.748C601.988,734.622 602.433,738.533 602.755,742.445C603.003,745.439 601.142,747.636 599.325,749.72C597.911,751.34 596.477,753.018 594.766,754.285C593.073,755.541 591.024,756.315 588.799,757.473C593.195,763.505 593.143,769.94 589.817,776.316C586.569,782.545 581.639,786.775 573.827,787.602C575.94,791.163 576.518,794.727 575.891,798.446C575.553,800.45 575.397,802.543 574.684,804.415C572.598,809.899 572.809,815.674 572.37,821.349C572.241,823.017 573.186,824.787 573.733,826.483C574.221,828.001 574.659,829.306 573.202,830.724C572.39,831.512 572.239,832.978 571.64,834.525C570.556,835.331 569.548,835.009 568.425,833.574C566.439,831.036 564.337,828.559 562.058,826.286C560.298,824.534 558.21,823.107 556.236,821.58C552.754,818.888 549.062,816.493 546.144,813.074C543.951,810.505 541.628,808.109 541.082,804.622C540.824,802.984 540.728,801.32 540.533,799.403C539.707,799.701 538.912,799.855 538.256,800.243C528.789,805.847 520.842,802.7 515.334,798.018C512.928,795.971 511.785,792.962 511.047,789.879C510.783,788.785 510.471,787.702 510.213,786.733C509.51,786.733 509.197,786.633 509.055,786.747C502.106,792.229 495.84,788.624 490.116,784.754C483.755,780.455 481.704,772.829 483.815,765.309C484.141,764.148 484.151,762.899 484.313,761.66C474.762,761.02 469.667,757.111 467.721,746.263C467.073,746.991 466.455,747.481 466.1,748.117C464.237,751.461 462.336,754.79 460.647,758.223C458.381,762.833 456.155,767.474 454.17,772.209C451.672,778.164 449.217,784.155 447.139,790.265C444.518,797.965 442.338,805.814 439.887,813.574C437.653,820.652 435.33,827.703 433.006,834.753C432.316,836.846 430.759,838.139 429.338,837.99C426.412,837.684 425.439,836.626 424.65,834.021C422.682,827.524 420.606,821.055 418.411,814.63C415.895,807.273 413.347,799.92 410.536,792.672C408.766,788.108 406.436,783.764 404.454,779.278C401.708,773.065 399.091,766.796 396.349,760.582C394.575,756.563 392.673,752.601 390.677,748.284C388.525,751.47 387.814,755.08 384.493,757.339C381.206,759.574 377.305,758.963 374.036,760.657C377.044,767.755 373.61,777.008 368.236,780.642C367.049,781.445 365.994,782.44 364.813,783.252C360.854,785.978 356.615,787.095 351.903,785.399C351.122,785.118 350.29,784.978 349.475,784.792C349.376,784.77 349.25,784.861 349.137,784.9C344.571,799.629 334.442,805.908 317.097,800.702C316.832,800.99 316.368,801.277 316.233,801.675C315.008,805.325 312.214,807.933 309.169,809.556C300.997,813.914 295.197,820.707 289.224,827.402C289.144,827.491 289.083,827.598 288.997,827.681C288.169,828.49 287.411,829.965 286.112,829.179C285.235,828.649 284.52,827.341 284.341,826.279C284.028,824.418 284.481,822.414 284.088,820.583C282.836,814.756 281.664,808.877 279.856,803.212C277.913,797.122 277.935,791.51 281.706,786.252C275.01,783.812 268.799,780.939 264.567,774.995C262.878,772.623 262.182,770.041 262.672,767.187C263.289,763.593 262.96,759.625 266.914,756.955C261.97,754.712 257.726,751.811 256.259,746.756C254.84,741.864 253.828,736.766 255.453,731.576C257.015,726.585 260.726,723.19 264.392,719.426C256.239,714.114 256.535,707.158 260.316,699.639C259.863,699.489 259.598,699.298 259.443,699.364C250.534,703.141 241.455,706.576 232.789,710.845C225.287,714.54 218.174,719.054 211.039,723.452C204.434,727.523 198.041,731.937 191.535,736.168C186.428,739.489 181.287,742.758 176.166,746.058C173.977,747.469 173.269,747.303 169.98,744.275C171.759,740.501 173.634,736.588 175.451,732.649C177.736,727.688 180.202,722.838 181.636,717.483C182.953,712.561 185.055,707.851 186.772,703.035C189.818,694.493 192.879,685.956 195.827,677.38C196.44,675.594 196.604,673.65 196.95,671.773C197.798,667.182 198.647,662.591 199.455,657.994C199.636,656.961 199.65,655.898 199.773,654.474C192.302,657.994 185.573,657.568 179.458,651.88C174.993,658.331 169.858,663.663 161.359,662.909C153.721,662.232 146.862,659.847 142.77,652.193C139.212,654.363 135.832,657.105 131.246,656.869C126.962,656.649 123.04,655.413 119.397,653.218C115.547,650.898 113.532,646.996 111.182,643.436C110.982,643.505 110.852,643.515 110.774,643.583C106.922,646.919 102.454,647.147 97.643,646.543C92.549,645.902 87.406,645.511 82.275,645.377C79.953,645.316 77.468,645.787 75.303,646.642C71.677,648.072 68.927,646.885 66.196,644.695C66.193,642.89 67.036,641.616 68.342,640.683C71.873,638.161 73.709,634.319 75.946,630.835C78.967,626.13 81.383,621.014 84.625,616.48C86.487,613.876 89.472,612.075 92.015,609.857C91.152,608.618 89.6,607.114 88.934,605.288C87.218,600.579 85.716,595.618 86.566,590.619C87.458,585.375 90.849,581.369 95.123,578.27C95.999,577.633 97.329,577.538 98.477,577.376C100.52,577.09 101.01,576.573 100.473,574.572C99.885,572.378 98.963,570.265 98.485,568.052C97.542,563.69 98.667,559.843 101.544,556.365C105.065,552.107 109.512,549.569 114.879,548.631C116.593,548.331 118.376,548.434 120.571,548.331C120.21,544.066 120.739,539.868 122.675,535.985C124.726,531.873 128.659,530.42 132.845,528.672C131.155,528.101 129.493,527.412 127.769,526.979C118.484,524.648 109.22,522.206 99.872,520.152C93.582,518.769 87.161,517.984 80.806,516.892C78.925,516.569 77.078,516.049 75.198,515.723C68.359,514.538 61.516,513.38 54.669,512.246C49.955,511.466 45.23,510.75 40.513,509.99C37.614,509.524 37.406,509.31 37.254,506.3C37.201,505.232 37.38,504.154 37.362,503.083C37.338,501.645 38.197,500.991 39.358,500.419C46.547,496.875 53.796,493.44 60.872,489.682C69.93,484.871 78.927,479.931 87.784,474.76C91.583,472.541 94.952,469.587 98.534,466.992C105.126,462.218 111.733,457.461 118.819,452.346C117.462,452.058 116.608,451.747 115.743,451.715C108.389,451.44 104.079,447.961 102.237,440.759C102.124,440.31 101.929,439.881 101.753,439.386C93.978,442.603 86.763,442.587 79.792,437.242C73.137,432.139 70.075,425.696 71.128,417.403C55.703,417.708 47.192,403.414 52.87,390.195C52.725,390.02 52.586,389.702 52.433,389.694C46.428,389.403 42.197,386.003 38.505,381.714C35.989,378.792 33.236,376.212 29.952,374.115C25.637,371.36 21.517,368.3 17.01,365.159C17.562,364.575 17.979,363.829 18.609,363.528C20.12,362.807 21.714,362.249 23.303,361.71C30.633,359.222 37.972,356.766 45.305,354.29C45.759,354.138 46.21,353.96 46.633,353.738C50.105,351.91 53.607,351.261 57.263,353.272C57.726,353.527 58.385,353.426 59.235,353.523C59.364,348.266 60.77,343.514 62.847,338.911C63.82,336.755 65.267,335.149 67.219,333.934C70.926,331.626 74.892,330.016 79.324,330.094C80.708,330.117 82.095,330.664 83.456,331.056C84.456,331.344 85.416,331.772 86.651,332.233C88.808,324.088 93.388,318.807 101.645,316.856C109.579,314.983 116.201,317.104 122.264,322.659C124.18,318.954 127.373,317.286 130.848,315.915C134.641,314.414 137.974,317.112 142.193,317.088ZM361.292,720.323C361.062,723.708 361.048,726.683 360.623,729.599C359.713,735.856 357.323,741.572 353.48,746.598C350.1,751.019 345.784,754.418 341.056,757.304C335.767,760.532 330.672,764.168 324.727,766.119C319.856,767.718 314.998,769.18 310.51,771.818C306.283,774.301 305.272,773.765 303.197,769.266C303.048,768.943 303.012,768.564 302.846,768.253C300.364,763.609 297.94,758.935 295.36,754.347C292.712,749.638 290.08,744.892 289.122,739.538C288.262,734.726 287.54,729.829 287.427,724.955C287.253,717.368 288.109,709.858 292.096,703.112C293.298,701.078 294.7,699.163 296.175,696.948C294.07,694.759 291.976,692.582 289.843,690.365C282.036,697.617 277.738,706.425 275.161,715.948C272.861,724.448 273.849,733.153 276.532,741.477C279.022,749.205 281.542,756.919 284.737,764.44C287.014,769.797 289.561,774.866 293.036,779.445C295.831,783.129 299.011,786.522 301.86,789.856C311.36,788.115 319.655,784.531 328.018,780.911C336.764,777.127 344.78,772.296 352.582,766.937C357.75,763.387 361.467,758.542 364.552,753.344C369.455,745.082 370.612,735.663 371.582,726.281C370.16,724.338 371.167,722.299 371.321,720.289C371.334,720.116 371.099,719.926 371.003,719.776C367.798,719.959 364.613,720.138 361.292,720.323ZM162.371,542.808C161.007,542.729 159.691,542.37 158.514,542.629C150.725,544.353 142.93,545.998 136.133,550.644C131.86,553.565 127.582,556.557 124.643,560.763C121.028,565.937 117.866,571.47 114.968,577.086C113.356,580.211 112.643,583.809 111.594,587.214C110.291,591.438 108.934,595.651 107.853,599.933C107.338,601.97 107.151,604.17 107.272,606.271C107.54,610.864 107.182,615.319 105.731,619.711C105.185,621.362 105.084,623.161 104.752,625.048C109.187,626.847 113.295,628.741 117.557,630.189C124.463,632.535 131.461,634.608 138.436,636.747C140.377,637.342 142.35,638.053 144.348,638.213C151.702,638.804 158.989,639.865 166.461,639.486C175.046,639.05 182.551,636.042 189.46,631.483C193.592,628.756 197.143,625.119 200.808,621.731C202.162,620.478 203.093,618.769 204.377,617.054C201.199,614.485 198.359,612.19 195.742,610.075C193.164,612.793 190.863,615.36 188.41,617.773C183.619,622.485 177.405,624.476 171.104,625.615C163.558,626.978 155.986,626.195 148.378,624.744C140.083,623.162 132.302,620.279 124.484,617.336C122.674,616.655 121.807,615.555 122.018,613.536C122.672,607.251 123.174,600.949 123.875,594.669C124.177,591.961 124.336,589.078 125.409,586.649C127.508,581.898 129.084,576.938 132.239,572.587C137.342,565.548 142.748,559.085 150.765,555.171C153.698,553.739 156.579,552.5 159.853,552.206C160.733,552.127 161.574,551.612 162.369,551.32C162.371,548.432 162.371,545.822 162.371,542.808ZM693.443,552.778C694.238,552.954 694.783,553.099 695.339,553.189C696.03,553.302 696.773,553.25 697.421,553.475C705.294,556.195 712.306,560.181 717.966,566.51C722.271,571.322 724.816,576.999 727.472,582.738C730.257,588.754 731.804,595.11 733.468,601.445C734.374,604.898 734.958,608.439 735.572,611.961C735.695,612.674 735.535,613.702 735.082,614.195C734.043,615.328 732.883,616.528 731.521,617.152C727.281,619.094 723.013,621.059 718.587,622.5C712.819,624.378 706.874,625.708 701.032,627.37C690.276,630.429 680.261,628.595 670.665,623.162C665.714,620.358 661.501,616.784 658.106,612.141C655.71,613.76 653.473,615.271 651.368,616.694C651.884,621.247 653.276,625.072 656.694,627.674C660.012,630.2 663.387,632.864 667.151,634.544C672.473,636.921 678.051,639.117 683.747,640.171C690.876,641.488 698.265,642.07 705.497,640.507C713.429,638.791 721.292,636.749 729.171,634.788C730.552,634.444 731.866,633.82 733.196,633.288C736.409,632.003 739.608,630.68 742.827,629.403C745.556,628.32 748.304,627.281 751.007,626.235C751.007,625.066 751.103,624.339 750.993,623.644C750.036,617.63 749.054,611.622 748.059,605.615C746.987,599.124 745.879,592.626 743.27,586.538C740.497,580.065 737.653,573.619 734.633,567.259C731.401,560.445 725.908,555.655 719.674,551.702C716.779,549.867 713.68,548.348 710.621,546.791C709.279,546.107 707.711,545.851 706.41,545.11C702.162,542.688 698.004,542.147 693.828,545.198C693.5,547.69 695.453,550.191 693.443,552.778ZM585.537,195.178C585.851,193.959 586.105,192.821 586.439,191.706C586.882,190.227 587.193,188.664 587.898,187.314C592.492,178.539 599.714,172.542 608.839,169.179C614.495,167.095 620.515,165.833 626.474,164.792C630.908,164.018 635.501,164.131 640.029,163.963C643.131,163.848 646.275,164.196 649.328,163.794C650.607,163.626 651.791,162.83 652.889,163.902C653.889,164.879 655.246,165.95 655.487,167.17C656.71,173.357 657.458,179.637 658.68,185.823C660.336,194.203 658.93,202.537 658.485,210.859C658.001,219.903 648.542,234.591 638.942,237.793C638.665,237.885 638.503,238.319 638.049,238.896C639.201,241.463 640.406,244.144 641.623,246.852C644.004,245.75 646.178,244.998 648.086,243.818C656.467,238.638 662.416,231.087 666.857,222.566C670.57,215.443 672.38,207.579 672.601,199.403C672.904,188.204 671.54,177.209 669.085,166.325C667.907,161.099 666.554,155.914 665.28,150.712C664.305,150.628 663.596,150.515 662.885,150.513C651.041,150.476 639.196,150.315 627.354,150.474C618.934,150.588 610.708,151.81 603.045,155.791C596.428,159.23 590.352,163.337 585.289,168.826C581.492,172.942 579.875,178.307 577.424,183.188C575.977,186.072 576.77,189.058 577.559,191.933C577.764,192.685 578.649,193.551 579.407,193.795C581.312,194.412 583.324,194.704 585.537,195.178ZM60.397,372.767C61.263,374.773 61.974,376.679 62.885,378.484C66.556,385.749 70.347,392.967 75.632,399.217C79.107,403.326 82.907,407.158 86.53,411.145C87.979,412.739 89.126,414.683 90.784,415.993C94.915,419.256 99.138,422.435 103.567,425.266C105.931,426.777 108.722,427.804 111.46,428.503C115.961,429.653 120.542,430.657 125.151,431.175C130.819,431.812 136.425,431.128 141.873,428.699C140.86,425.662 139.925,422.857 138.937,419.899C138.026,420.001 137.083,419.852 136.432,420.221C133.725,421.76 130.847,421.277 128.002,421.12C126.58,421.04 125.177,420.649 123.754,420.515C116.098,419.792 109.421,416.812 103.75,411.672C98.338,406.769 93.239,401.548 89.423,395.255C86.082,389.747 82.825,384.185 79.66,378.573C78.325,376.205 78.731,374.183 80.683,372.435C83.345,370.052 86.008,367.653 88.849,365.495C93.876,361.675 99.148,358.171 104.118,354.278C110.537,349.251 117.761,346.341 125.83,346.09C129.824,345.966 133.859,346.946 137.865,347.503C139.261,347.696 140.701,347.938 141.992,348.47C145.045,349.727 148.019,351.172 150.998,352.529C152.793,350.054 154.466,347.748 156.204,345.35C155.704,344.887 155.299,344.456 154.838,344.097C149.566,339.974 143.356,337.72 137.17,335.517C130.338,333.083 123.14,333.579 116.219,334.556C108.024,335.713 100.304,338.958 93.411,343.605C87.293,347.729 81.469,352.304 75.656,356.862C69.913,361.368 64.55,366.299 60.397,372.767ZM427.263,62.244C421.913,66.595 416.716,70.793 411.551,75.03C405.253,80.195 399.024,85.432 394.275,92.163C391.8,95.671 389.066,99.024 386.894,102.709C385.025,105.883 383.675,109.385 382.29,112.821C379.905,118.745 378.052,124.748 379.896,131.277C380.475,133.328 380.706,135.515 380.821,137.653C381.104,142.975 383.349,147.698 384.866,152.935C387.79,151.671 390.356,150.561 392.885,149.468C388.402,135.602 389.808,132.975 391.448,125.224C394.173,112.344 402.052,102.429 411.234,93.498C414.811,90.019 418.817,86.982 422.612,83.725C425.27,81.442 428.719,81.111 431.005,82.918C436.425,87.205 441.894,91.443 446.304,96.833C449.325,100.526 452.445,104.16 455.204,108.044C458.479,112.652 460.429,117.969 462.04,123.338C464.575,131.791 463.913,140.176 461.011,148.592C462.97,149.65 465.171,150.816 467.353,152.023C469.697,153.321 470.517,153.036 471.165,150.446C472.675,144.416 474.14,138.374 475.587,132.328C476.312,129.295 476.526,126.278 476.001,123.126C474.89,116.469 473.278,110.012 469.183,104.514C465.329,99.339 461.419,94.183 457.208,89.3C453.081,84.514 448.64,79.986 444.149,75.532C441.866,73.267 439.202,71.377 436.657,69.387C433.66,67.045 430.605,64.779 427.263,62.244ZM713.26,431.138C714.563,431.677 715.199,432.056 715.885,432.2C717.754,432.594 719.666,432.794 721.522,433.237C733.874,436.185 744.71,432.307 754.708,425.521C758.02,423.272 760.429,419.731 763.606,417.233C768.481,413.398 772.167,408.487 775.864,403.711C780.829,397.294 785.063,390.295 789.397,383.412C791.043,380.8 792.108,377.819 793.405,374.993C794.094,373.493 793.755,372.359 792.403,371.246C787.983,367.601 783.44,364.058 779.38,360.036C773.806,354.512 767.435,350.06 761.075,345.607C754.077,340.708 746.372,337.132 737.782,336.148C733.559,335.665 729.249,335.888 724.977,335.871C720.655,335.853 716.36,336.053 712.498,338.391C712.219,338.56 711.799,338.487 711.447,338.547C707.898,339.154 704.957,341.014 702.439,343.418C699.767,345.971 699.793,347.904 702.037,350.87C702.726,351.782 703.469,352.654 704.316,353.703C706.406,351.041 708.912,349.555 711.877,348.735C721.111,346.181 730.063,347.133 738.856,350.699C750.844,355.56 761.665,362.24 771.096,371.129C771.965,371.946 772.842,372.879 773.897,373.349C775.909,374.246 775.956,375.457 775.436,377.393C772.928,386.761 767.342,394.421 761.543,401.827C757.963,406.395 753.297,410.104 749.219,414.298C747.332,416.237 745.053,417.458 742.635,418.45C741.217,419.031 739.633,419.192 738.176,419.692C732.348,421.694 726.289,422.206 720.205,422.475C718.777,422.537 717.328,422.091 715.437,421.813C714.752,424.747 714.029,427.837 713.26,431.138ZM216.895,237.132C214.593,235.597 212.273,234.177 210.091,232.569C204.657,228.564 200.614,223.319 198.086,217.156C194.841,209.246 193.805,200.794 193.999,192.299C194.196,183.651 196.108,175.248 198.96,167.081C200.003,164.094 201.54,163.263 204.681,163.423C207.783,163.581 210.949,163.928 213.991,163.505C218.633,162.86 222.978,164.361 227.472,164.679C230.061,164.862 232.716,165.118 235.178,165.876C242.004,167.979 248.694,170.43 254.31,175.123C258.058,178.254 261.81,181.374 264.305,185.646C265.964,188.488 267.368,191.48 268.886,194.403C272.013,193.708 275.119,193.019 278.496,192.269C277.85,190.19 277.327,188.501 276.802,186.812C272.314,172.387 263.267,162 249.401,155.886C247.544,155.067 245.748,153.951 243.802,153.52C238.554,152.358 233.257,151.393 227.948,150.54C223.358,149.803 218.704,149.456 214.118,148.696C210.023,148.017 205.959,147.981 202.009,149.106C197.46,150.402 192.882,150.814 187.925,150.299C186.853,154.109 185.714,157.743 184.812,161.436C182.703,170.081 182.473,178.951 181.991,187.773C181.737,192.42 181.42,197.16 182.028,201.739C183.432,212.307 186.894,222.158 194.117,230.342C194.83,231.15 195.503,231.994 196.195,232.821C199.496,236.762 202.965,240.462 208.039,242.201C209.891,242.835 211.641,243.77 213.447,244.572C214.531,242.231 215.681,239.75 216.895,237.132ZM495.398,721.408C491.509,720.843 488.146,720.354 484.412,719.811C484.668,721.778 484.748,723.564 485.154,725.272C486.476,730.857 487.906,736.417 489.324,741.978C489.59,743.016 490.013,744.013 490.318,745.042C491.562,749.254 494.418,752.582 496.427,756.362C499.286,761.744 503.388,765.709 508.316,769.054C515.162,773.7 522.298,777.797 529.888,781.112C536.355,783.936 542.706,787.034 549.228,789.726C554.587,791.939 555.529,791.622 558.384,786.488C563.486,777.319 569.206,768.518 573.271,758.736C576.732,750.407 580.281,742.208 580.281,733.048C580.281,728.291 580.361,723.346 579.158,718.818C576.978,710.608 572.785,703.182 568.029,696.133C566.857,694.398 565.554,692.751 564.201,690.912C562.09,693.281 560.293,695.3 558.531,697.277C565.705,706.107 568.496,716.007 567.965,726.936C567.537,735.763 565.053,744.149 561.57,752.138C558.627,758.889 555.125,765.426 551.047,771.618C549.104,774.567 549.18,774.808 546.012,773.566C542.819,772.314 539.805,770.612 536.635,769.295C530.026,766.548 523.596,763.516 517.678,759.413C511.793,755.333 505.391,751.87 501.705,745.345C500.187,742.66 498.639,739.945 497.566,737.07C495.715,732.109 494.908,726.909 495.398,721.408ZM305.968,322.391C305.179,319.569 304.257,316.893 303.691,314.143C301.306,302.572 310.552,292.398 322.286,293.702C326.514,294.171 330.698,294.981 334.656,297.608C335.114,291.737 338.14,288.241 343.654,286.728C341.955,284.211 339.674,283.38 337.541,282.465C330.709,279.53 323.481,277.967 316.246,276.375C311.528,275.337 306.781,275.18 302.016,274.804C297.957,274.484 294.024,274.761 289.784,275.408C289.485,279.217 289.159,282.896 288.917,286.579C288.39,294.583 287.786,302.586 287.438,310.599C287.135,317.58 287.672,324.483 291.068,330.826C291.366,331.381 291.904,331.806 292.608,332.609C293.102,326.459 297.067,324.431 301.891,323.32C303.373,322.979 304.857,322.644 305.968,322.391ZM507.137,284.966C514.375,285.579 516.662,290.472 518.754,295.733C520.152,294.855 521.266,293.84 522.574,293.384C530.308,290.692 537.736,289.582 544.894,295.528C550.203,299.936 553.279,306.719 551.546,313.466C550.9,315.978 549.913,318.403 549.034,321.007C554.907,322.652 559.895,325.489 562.11,332.562C563.516,328.753 564.665,325.766 565.71,322.742C566.095,321.629 566.407,320.436 566.452,319.269C566.694,312.951 567.071,306.64 566.587,300.306C566.007,292.691 565.597,285.06 564.37,277.509C564.222,276.589 563.936,275.69 563.718,274.793C561.749,274.676 559.98,274.488 558.208,274.479C545.853,274.417 533.63,275.96 521.522,278.171C516.588,279.07 511.902,281.234 507.137,284.966ZM598.1,443.827C603.733,441.962 607.657,438.901 610.78,434.85C614.731,429.728 618.534,424.493 622.391,419.3C625.953,414.507 629.532,409.726 633.045,404.898C634.074,403.486 634.912,401.936 635.959,400.252C630.543,396.14 625.311,392.373 620.307,388.323C612.014,381.61 602.561,377.544 592.194,375.437C591.239,375.243 590.214,375.411 589.448,375.411C589.762,378.065 590.442,380.462 590.206,382.765C589.974,385.007 588.804,387.153 588.02,389.415C589.926,389.599 591.821,389.284 593.178,389.995C600.596,393.886 607.229,398.517 606.819,409.137C606.643,413.659 605.327,417.578 602.366,420.947C600.411,423.173 598.378,425.331 596.284,427.626C599.707,432.2 601.439,437.411 598.1,443.827ZM265.701,489.84C265.397,489.728 265.095,489.615 264.791,489.504C264.083,490.368 263.344,491.209 262.67,492.102C257.326,499.192 254.455,507.454 251.906,515.78C249.649,523.156 247.953,530.707 246.128,538.21C245.607,540.356 245.503,542.602 245.218,544.727C250.406,546.409 255.127,548.104 259.945,549.457C266.257,551.23 272.556,553.1 279.196,553.395C281.918,553.516 284.616,554.358 287.333,554.394C291.097,554.444 294.976,555.524 299.374,553.352C293.675,549.964 291.319,545.082 292.134,538.438C287.797,540.036 284.165,539.04 280.405,538.084C274.925,536.692 270.373,534.521 268.552,528.648C267.071,523.87 266.412,519.001 268.16,514.254C269.29,511.188 271.209,508.411 272.911,505.25C266.833,502.096 264.164,496.979 265.701,489.84ZM580.512,505.197C590.076,515.408 590.426,524.822 585.278,532.229C582.862,535.703 579.163,537.626 575.286,538.839C571.116,540.143 566.761,540.913 562.081,538.599C564.22,545.262 559.88,548.816 555.595,553.251C559.79,553.382 563.113,553.604 566.429,553.564C574.96,553.465 583.286,551.994 591.39,549.365C596.812,547.605 602.16,545.621 607.872,544.935C608.768,544.828 609.62,544.345 610.745,543.947C609.696,540.558 608.571,537.425 607.765,534.21C606.406,528.779 605.312,523.281 603.972,517.846C603.488,515.884 602.488,514.053 601.949,512.101C600.189,505.729 597.336,499.822 594.254,494.029C593.527,492.662 592.09,491.674 590.359,489.862C591.469,498.313 588.143,503.09 580.512,505.197ZM407.626,269.655C410.425,263.821 413.571,258.435 419.401,254.821C423.084,252.539 426.921,252.507 430.344,253.484C436.569,255.259 440.817,259.851 443.358,265.878C443.852,267.048 444.356,268.213 444.846,269.357C447.678,268.255 450.147,266.756 452.762,266.426C455.36,266.099 458.104,266.948 461.276,267.343C459.975,264.181 459.108,261.048 457.479,258.38C455.504,255.144 452.917,252.275 450.538,249.292C444.073,241.184 436.151,234.61 428.136,228.142C427.527,227.65 426.713,227.411 425.737,226.925C422.387,230.328 419.118,233.633 415.868,236.954C411.343,241.578 406.691,246.088 402.365,250.891C399.579,253.984 397.212,257.467 394.79,260.87C393.335,262.914 392.509,265.254 392.454,268.07C395.198,267.536 397.778,266.464 400.218,266.72C402.679,266.978 405.001,268.555 407.626,269.655ZM216.886,520.09C205.95,518.532 196.216,515.042 186.814,510.45C186.057,512.6 185.238,514.467 184.75,516.416C183.709,520.562 182.36,524.715 182.025,528.935C181.611,534.161 181.983,539.462 182.22,544.722C182.513,551.201 183.715,557.538 186.317,563.506C187.488,566.191 188.49,569.069 191.402,571.649C192.011,570.733 192.564,569.958 193.062,569.147C194.994,566.001 197.13,562.955 198.778,559.665C201.067,555.095 202.927,550.311 205.08,545.67C207.059,541.4 209.254,537.272 214.839,536.686C214.09,530.92 213.408,525.417 216.886,520.09ZM159.7,387.002C161.458,386.592 162.55,386.379 163.617,386.078C165.441,385.564 167.232,384.922 169.071,384.466C174.718,383.063 179.768,380.352 184.458,377.06C189.667,373.405 194.889,370.834 200.937,374.141C202.652,371.825 203.929,369.421 205.833,367.719C207.745,366.012 210.282,365.004 212.7,363.6C209.292,361.057 206.734,358.358 205.059,355.053C202.694,350.384 200.672,345.541 198.499,340.776C197.829,339.307 197.145,337.844 196.268,335.951C193.167,337.698 190.333,339.002 187.836,340.779C184.842,342.911 181.984,345.295 179.354,347.862C177.579,349.594 176.174,351.753 174.822,353.86C172.318,357.762 169.682,361.624 167.637,365.766C165.11,370.886 163.069,376.251 160.946,381.562C160.353,383.045 160.208,384.706 159.7,387.002ZM407.524,436.865C407.412,447.892 416.144,456.86 427.209,457.082C438.293,457.304 447.518,448.26 447.553,437.138C447.586,426.192 438.672,417.213 427.658,417.098C416.7,416.982 407.636,425.881 407.524,436.865ZM401.47,610.164C395.842,609.454 391.095,607.445 388.316,602.238C387.837,602.644 387.543,602.85 387.302,603.109C386.652,603.809 386.009,604.518 385.393,605.248C380.576,610.945 374.553,612.685 367.353,610.942C359.593,609.064 353.828,602.313 353.384,594.391C353.281,592.566 353.163,590.741 353.032,588.574C347.536,591.982 343.318,588.493 338.575,586.255C338.323,591.693 339.686,596.319 340.975,600.824C342.378,605.725 344.639,610.383 346.556,615.134C347.969,618.637 349.469,622.105 350.856,625.618C352.082,628.722 353.206,631.864 354.372,634.991C355.243,637.327 356.122,637.736 358.409,636.65C362.501,634.706 366.579,632.731 370.624,630.692C375.626,628.169 380.474,625.303 385.603,623.084C389.511,621.393 393.079,619.308 396.057,616.375C397.946,614.515 400.57,613.188 401.47,610.164ZM332.349,694.669C332.498,690.207 332.19,686.421 331.322,682.732C329.795,676.236 327.748,669.894 325.494,663.6C324.385,660.502 324.254,657.09 326.069,653.956C326.531,653.159 326.744,652.219 327.083,651.315C323.005,647.71 319.463,643.943 319.536,638.461C315.965,640.164 312.693,641.872 309.304,643.304C304.354,645.395 299.358,647.367 293.848,647.546C292.623,647.586 291.42,648.248 290.071,648.666C291.513,654.4 293.425,659.545 296.598,664.093C299.4,668.108 302.365,672.027 305.498,675.787C308.242,679.081 311.068,682.391 314.313,685.16C318.196,688.474 322.738,690.939 327.398,693.077C328.766,693.706 330.281,694.018 332.349,694.669ZM518.301,697.943C517.893,697.153 517.674,696.599 517.346,696.119C515.315,693.145 513.047,690.449 509.977,688.4C506.11,685.821 502.44,682.944 498.684,680.196C493.975,676.75 488.67,673.855 487.032,667.569C486.981,667.379 486.694,667.251 486.745,667.297C483.804,667.297 480.89,667.927 478.444,667.125C475.858,666.276 473.717,664.067 470.69,661.974C468.911,672.37 462.835,680.154 456.991,688.209C476.146,700.822 496.367,703.503 518.301,697.943ZM580.93,666.951C601.354,669.515 619.035,678.272 636.366,687.998C636.35,687.81 636.389,687.449 636.282,687.14C633.723,679.795 631.665,672.321 630.372,664.645C629.005,656.529 627.444,648.449 627.448,640.15C627.448,636.265 626.876,632.38 626.587,628.769C621.441,629.246 616.767,629.679 611.737,630.145C612.448,636.026 613.079,641.588 613.801,647.139C614.311,651.046 615.014,654.929 615.485,658.84C615.631,660.05 615.85,661.515 614.549,662.198C604.758,659.049 595.166,655.964 585.418,652.828C583.895,657.622 582.453,662.154 580.93,666.951ZM524.229,695.726C525.124,695.383 525.551,695.245 525.961,695.06C531.799,692.425 536.715,688.389 541.563,684.354C547.555,679.368 552.518,673.533 556.682,666.788C559.973,661.455 562.428,655.879 564.791,650.18C565.504,648.461 565.119,647.763 563.332,647.369C561.353,646.935 559.373,646.52 557.387,646.133C550.701,644.825 543.912,643.805 538.557,638.984C538.442,638.88 538.133,638.991 537.727,639.01C536.569,644.193 534.911,649.165 529.196,651.107C531.544,658.045 531.575,659.359 529.298,666.596C528.511,669.1 527.497,671.533 526.667,674.024C524.369,680.915 523.408,687.963 524.229,695.726ZM430.931,163.704C430.788,163.98 430.648,164.256 430.505,164.532C435.386,173.925 439.695,183.639 447.349,191.368C449.917,193.962 451.521,197.221 449.915,201.143C449.712,201.636 449.888,202.283 449.888,203.253C454.829,204.355 457.699,208.304 460.98,211.757C465.238,204.884 471.058,200.03 477.539,195.846C480.119,194.18 482.613,192.384 485.391,190.479C484.141,188.841 483.18,187.491 482.127,186.218C477.941,181.161 472.397,177.786 466.885,174.51C458.819,169.714 449.967,166.789 440.754,165.048C437.51,164.437 434.207,164.143 430.931,163.704ZM267.916,373.921C262.84,373.377 258.773,375.578 255.062,377.742C245.394,383.381 236.039,389.554 226.589,395.564C224.773,396.719 223.077,398.069 221.37,399.384C220.343,400.175 219.71,401.101 220.647,402.443C223.317,406.26 225.811,410.207 228.618,413.919C232.944,419.643 237.473,425.213 241.915,430.85C245.568,435.485 249.969,439.246 254.951,442.348C254.854,439.705 254.267,437.14 254.816,434.846C255.362,432.562 257.048,430.551 258.331,428.248C257.442,427.702 256.288,427.099 255.255,426.334C254.11,425.487 252.767,424.687 252.044,423.531C249.019,418.691 246.468,413.879 246.224,407.715C245.984,401.61 252.462,392.47 258.453,391.505C260.651,391.151 262.797,390.471 264.948,389.943C263.626,383.31 263.654,379.049 267.916,373.921ZM222.308,684.818C224.761,683.535 226.868,682.239 229.121,681.294C234.289,679.126 239.513,677.084 244.744,675.072C251.102,672.627 257.673,671.017 264.444,670.201C267.288,669.858 270.118,669.4 272.944,668.929C273.603,668.819 274.217,668.437 275.13,668.067C273.688,662.833 272.292,657.768 270.891,652.685C266.574,654.047 262.598,655.175 258.716,656.562C254.97,657.901 251.341,659.566 247.617,660.97C245.769,661.667 243.823,662.103 242.03,662.625C240.114,659.067 240.152,655.773 240.747,652.411C241.745,646.757 242.766,641.105 243.677,635.436C243.892,634.093 243.708,632.686 243.708,631.528C238.546,630.308 233.928,629.216 228.794,628.003C229.031,647.322 226.505,665.935 222.308,684.818ZM396.193,711.678C397.146,712.85 397.744,713.576 398.332,714.312C401.759,718.598 405.301,722.798 408.574,727.198C411.922,731.695 415.066,736.347 418.182,741.01C420.23,744.072 422.185,747.21 423.972,750.431C425.613,753.387 426.972,756.498 428.822,760.292C436.889,742.867 445.639,726.634 456.852,712.158C452.961,709.489 449.248,706.941 445.307,704.237C444.629,705.017 443.723,705.804 443.137,706.782C440.506,711.167 437.889,715.564 435.416,720.039C433.469,723.562 432.242,727.52 428.775,730.563C426.186,728.343 423.603,726.136 421.874,723.17C418.865,718.011 416.029,712.75 413.082,707.553C412.408,706.365 411.579,705.263 411.117,704.569C408.32,705.88 405.996,706.953 403.685,708.053C401.341,709.169 399.009,710.313 396.193,711.678ZM312.593,211.772C290.765,207.064 272.157,213.882 253.989,226.043C256.065,227.346 257.432,228.544 259.026,229.146C267.066,232.181 275.026,235.502 283.89,235.47C287.754,235.456 290.661,237.553 292.596,240.92C293.001,241.625 293.43,242.316 294.077,243.394C299.346,239.881 304.639,242.181 310.178,243.512C310.028,242.249 309.984,241.556 309.857,240.879C308.878,235.664 308.337,230.44 309.639,225.199C310.389,222.179 311.276,219.193 311.987,216.163C312.332,214.696 312.41,213.167 312.593,211.772ZM694.381,392.15C693.699,392.55 693.131,392.765 692.715,393.146C685.215,400.024 678.11,407.275 671.873,415.343C669.887,417.913 667.447,419.668 663.988,419.449C660.574,419.233 660.545,419.233 660.082,422.745C659.629,426.188 658.402,429.189 655.594,431.421C654.811,432.044 654.188,432.868 653.565,433.522C655.69,434.418 657.614,435.023 659.331,435.995C664.638,438.997 669.722,442.298 673.612,447.157C674.76,448.594 676.272,449.739 677.794,451.182C680.64,447.498 683.237,444.24 685.714,440.891C687.194,438.889 688.925,436.91 689.775,434.633C691.853,429.049 693.58,423.325 695.271,417.607C696.722,412.712 696.314,407.635 696.263,402.617C696.227,399.184 696.547,395.66 694.381,392.15ZM163.806,515.175C165.41,510.608 167.003,506.071 168.66,501.355C167.908,501.03 167.176,500.668 166.414,500.391C158.459,497.494 150.346,495.025 142.647,491.428C141.22,490.761 140.11,490.146 140.084,488.417C140.059,486.844 140.562,485.672 142.119,484.97C142.941,484.599 143.652,483.916 144.322,483.278C148.722,479.09 153.086,474.863 157.49,470.677C158.428,469.785 159.48,469.012 160.197,468.419C157.62,463.706 155.318,459.496 152.685,454.681C140.8,472.161 125.027,484.236 107.388,494.271C109.902,496.535 112.446,497.294 115.201,497.764C119.651,498.523 124.116,499.318 128.477,500.466C140.943,503.75 153.111,507.819 163.806,515.175ZM499.074,638.068C502.039,631.226 504.754,624.375 507.949,617.756C510.924,611.596 513.529,605.333 515.431,598.769C516.161,596.248 517.054,593.774 517.72,591.239C518.116,589.727 518.214,588.136 518.447,586.581C513.801,589.658 509.218,590.584 504.265,589.06C503.714,597.667 502.355,605.819 493.757,610.047C482.968,615.352 474.308,611.248 467.073,603.251C465.094,604.822 463.489,606.584 461.499,607.541C459.501,608.501 457.118,608.657 454.663,609.222C456.194,611.034 457.458,612.969 459.134,614.434C464.999,619.569 471.417,623.913 478.31,627.605C484.91,631.14 492.279,633.192 498.244,637.951C498.479,638.137 498.934,638.052 499.074,638.068ZM654.1,374.556C658.153,373.229 661.508,373.85 664.934,376.022C672.028,380.518 679.776,383.733 687.752,386.315C689.777,386.971 691.895,388.268 694.377,387.161C694.301,386.472 694.318,385.873 694.154,385.331C693.701,383.847 693.273,382.341 692.654,380.923C688.97,372.489 685.343,364.031 678.531,357.452C676.656,355.64 675.011,353.554 673.463,351.443C670.088,346.84 665.457,343.655 661.033,340.25C659.896,339.375 658.316,339.073 656.941,338.508C652.709,347.506 649.384,356.517 642.183,363.807C648.398,365.3 650.887,370.102 654.1,374.556ZM384.312,660.678C379.624,665.368 374.881,667.755 369.07,666.593C367.66,671.147 366.558,672.922 364.229,674.652C357.804,679.421 351.365,684.17 344.974,688.983C342.15,691.111 339.744,693.652 337.725,696.786C338.487,697.047 338.929,697.219 339.383,697.351C347.232,699.654 355.331,698.853 363.304,698.905C369.232,698.943 375.081,697.226 380.708,695.169C384.601,693.744 388.509,692.342 392.312,690.702C394.458,689.777 396.404,688.39 398.624,687.105C396.184,683.684 394.021,680.562 391.765,677.509C388.207,672.694 384.832,667.809 384.312,660.678ZM665.859,572.349C676.345,552.037 675.453,532.257 667.193,511.882C662.379,513.891 657.863,515.459 653.65,517.622C649.591,519.707 645.377,521.004 640.449,521.499C643.105,524.995 642.832,528.603 642.773,532.165C642.759,532.998 642.628,533.833 642.507,534.661C642.335,535.838 642.583,536.834 643.73,537.375C649.251,539.976 651.584,545.065 653.013,550.376C655.258,558.698 659.715,565.533 665.859,572.349ZM679.432,327.273C680.705,323.402 681.662,320.203 682.811,317.074C684.54,312.369 686.192,307.615 688.272,303.064C690.108,299.046 692.598,295.332 694.598,291.382C696.827,286.981 699.188,282.711 702.614,279.088C703.626,278.018 704.309,276.64 705.387,275.04C704.309,275.04 703.838,275.005 703.373,275.046C698.023,275.509 692.685,276.176 687.326,276.41C679.689,276.743 672.039,276.817 664.394,276.885C661.66,276.909 658.914,276.689 656.191,276.405C653.73,276.149 651.293,275.654 648.763,275.25L648.763,287.784C653.521,288.142 658.136,288.456 662.745,288.847C667.257,289.229 671.78,289.555 676.263,290.168C678.783,290.513 679.876,292.853 678.714,294.933C676.681,298.572 674.46,302.105 672.47,305.765C670.214,309.91 668.124,314.144 665.847,318.566C670.402,321.486 674.68,324.229 679.432,327.273ZM236.117,575.182C233.317,577.423 229.691,577.814 225.734,577.262C220.176,576.487 214.588,575.76 208.99,575.476C204.131,575.23 199.196,575.247 194.008,577.061C196.528,580.436 198.555,583.893 201.294,586.64C204.817,590.172 208.977,593.062 212.746,596.362C217.174,600.24 222.523,602.331 227.947,604.128C229.843,604.757 231.691,605.346 233.519,606.196C236.857,607.748 240.291,609.252 244.325,608.342C244.841,603.648 245.299,598.912 245.896,594.195C246.512,589.335 248.552,584.889 250.464,580.488C245.587,578.684 241.029,576.999 236.117,575.182ZM692.812,465.186C695.837,468.695 698.457,471.776 701.126,474.814C704.423,478.566 708.14,481.863 712.368,484.525C713.831,485.447 714.733,486.639 714.698,488.257C714.682,489.001 714.014,490.073 713.346,490.408C706.114,494.043 698.828,497.572 691.545,501.104C689.641,502.027 687.695,502.862 685.684,503.776C687.422,508.061 689.028,512.016 690.766,516.294C707.465,504.433 725.905,497.308 746.506,494.089C730.106,482.387 713.488,472.11 701.236,456.085C698.186,459.384 695.449,462.339 692.812,465.186ZM598.191,225.872C597.037,224.82 596.238,223.945 595.3,223.263C591.325,220.373 586.876,218.415 582.368,216.504C574.915,213.347 567.247,211.526 559.13,211.638C556.62,211.672 554.048,211.831 551.612,211.362C547.737,210.615 544.428,212.331 540.643,212.889C541.838,217.912 543.42,222.574 543.952,227.352C544.479,232.106 545.042,236.991 543.296,242.238C546.687,241.419 549.409,240.744 552.14,240.105C555.261,239.375 557.494,241.591 560.158,242.824C562.887,238.153 567.179,235.633 571.982,234.738C577.248,233.757 582.537,232.933 587.652,231.34C591.256,230.217 594.98,229.2 598.191,225.872ZM205.8,272.284C204.005,272.446 202.393,272.404 200.872,272.759C193.071,274.577 185.338,276.68 177.196,276.408C174.221,276.308 171.231,276.818 168.245,276.865C164.806,276.919 161.358,276.866 157.925,276.676C154.788,276.502 151.666,276.081 147.999,275.716C148.685,276.787 149.024,277.4 149.44,277.956C151.158,280.256 152.967,282.491 154.616,284.838C157.915,289.533 160.915,294.454 164.442,298.966C167.823,303.289 170.197,308.042 172.051,313.124C173.545,317.218 174.992,321.327 176.517,325.589C178.733,324.163 180.557,322.785 182.561,321.759C184.555,320.738 186.731,320.069 189.302,319.059C186.232,313.581 183.338,307.797 179.832,302.413C177.859,299.381 175.993,296.373 174.689,293.017C173.987,291.208 174.9,289.618 176.861,289.467C181.978,289.072 187.105,288.822 192.226,288.476C195.994,288.222 199.759,287.908 203.593,287.615C204.333,282.486 205.027,277.665 205.8,272.284ZM662.686,577.722C657.444,576.316 652.688,576.466 648.006,577.322C643.215,578.197 638.543,579.726 633.752,580.581C628.125,581.584 622.481,581.95 618.246,576.841C618.18,576.76 618.031,576.746 618.031,576.746C613.754,578.506 609.554,580.233 605.621,581.852C607.791,586.132 609.215,590.722 609.756,595.555C610.311,600.501 610.666,605.47 611.151,610.921C632.777,606.722 650.408,597.016 662.686,577.722ZM626.592,285.665C628.571,279.285 627.188,272.473 625.387,267.21C623.387,261.374 620.922,255.628 618,250.197C615.072,244.753 611.395,239.704 607.9,234.58C607.025,233.296 605.599,232.389 603.812,230.741C602.914,235.643 601.941,239.695 601.47,243.804C600.804,249.628 600.503,255.494 600.052,261.343C599.792,264.704 598.556,267.634 596.081,269.947C595.419,270.567 594.501,270.915 593.827,271.312C598.085,277.138 598.198,282.801 596.475,288.932C598.557,287.985 600.028,287.217 601.567,286.633C608.987,283.821 616.628,284.92 624.229,285.44C625.035,285.494 625.834,285.592 626.592,285.665ZM536.07,133.179C529.355,140.709 522.662,147.273 515.715,153.631C508.645,160.105 500.319,164.694 492.531,170.142C495.531,173.497 498.211,176.496 501.189,179.827C505.255,176.807 509.455,173.862 513.451,170.664C516.504,168.22 519.287,165.439 522.219,162.841C523.696,161.532 527.006,161.471 527.709,162.817C528.355,164.059 528.85,165.446 529.084,166.825C529.867,171.4 530.418,176.015 531.221,180.586C531.811,183.953 532.657,187.275 533.424,190.777C538.445,189.689 543.238,191.897 548.188,190.037C541.225,171.836 538.596,152.933 536.07,133.179ZM259.197,271.373C257.917,269.58 256.375,268.181 255.816,266.462C254.94,263.772 254.573,260.881 254.271,258.046C253.625,251.994 253.23,245.915 252.589,239.862C252.253,236.684 251.618,233.539 251.147,230.564C249.064,229.874 248.017,230.793 247.016,231.909C243.355,235.991 239.74,240.016 237.652,245.293C235.425,250.917 232.322,256.193 230.093,261.816C228.48,265.89 227.449,270.237 226.575,274.546C225.95,277.632 226.013,280.859 225.739,284.401C235.989,284.035 245.692,281.068 255.689,284.111C255.537,279.182 256.365,274.907 259.197,271.373ZM316.684,133.076C316.684,134.78 316.796,136.101 316.665,137.398C315.894,145.019 315.158,152.645 314.22,160.246C313.681,164.613 313.077,169.012 311.974,173.259C310.512,178.882 308.533,184.369 306.783,189.896C310.544,190.865 314.541,191.896 318.738,192.978C319.806,189.524 320.972,186.383 321.737,183.147C323.275,176.642 324.578,170.082 326.019,163.553C326.2,162.734 326.63,161.97 327.165,160.627C335.634,166.756 343.606,172.527 351.813,178.467C355.174,175.189 358.64,171.809 362.38,168.162C344.621,159.661 330.273,147.293 316.684,133.076ZM177.325,450.154C182.844,441.883 189.539,435.053 197.367,430.042C195.721,425.918 194.273,422.292 192.875,418.789C191.084,418.324 188.93,418.305 187.488,417.281C184.378,415.073 181.117,412.743 178.847,409.757C174.074,403.475 168.005,398.734 161.909,393.959C161.259,393.45 160.305,393.326 159.405,392.991C156.332,413.082 165.595,439.921 177.325,450.154ZM393.164,210.429C395.902,205.459 399.83,202.614 405.055,201.598C405.055,199.877 404.991,198.326 405.078,196.783C405.133,195.849 405.187,194.785 405.648,194.03C407.385,191.189 409.041,188.24 411.183,185.718C415.633,180.475 419.424,174.866 422.085,168.522C422.708,167.04 423.224,165.497 423.185,163.811C405.456,165.089 376.933,180.247 370.488,191.831C378.8,196.8 387.796,200.999 393.164,210.429ZM603.225,351.841C604.221,351.563 604.559,351.478 604.891,351.373C611.327,349.34 616.457,345.697 619.411,339.447C620.27,337.627 620.794,335.638 621.737,333.871C623.714,330.178 625.864,326.578 627.948,322.943C628.499,321.982 629.073,321.032 629.7,319.968C626.854,319.443 624.415,318.754 621.94,318.586C617.045,318.255 612.126,318.292 607.225,318.03C600.522,317.671 594.684,319.461 589.899,324.354C589.059,325.213 587.829,325.692 587.141,326.12C585.28,324.075 584.077,321.766 582.205,320.907C578.76,319.323 574.9,318.983 571.228,319.814C570.626,322.446 570.105,324.719 569.55,327.134C578.239,325.037 582.155,329.217 581.907,336.136C582.823,335.642 583.692,335.278 584.446,334.75C590.423,330.57 597.122,328.17 604.178,326.604C608.34,325.68 611.481,327.948 611.787,332.228C612.084,336.38 610.398,339.763 607.328,342.365C603.873,345.292 600.363,348.156 596.068,349.911C593.675,350.889 591.472,352.324 588.789,353.764C591.91,355.635 594.969,356.887 596.027,360.322C597.168,364.02 594.244,366.114 592.228,368.977C595.607,369.995 598.421,370.844 601.208,371.683C603.835,369.809 605.259,367.338 605.214,364.295C605.177,361.826 604.694,359.357 604.31,356.902C604.061,355.294 603.633,353.711 603.225,351.841ZM660.424,478.752C656.914,475.99 653.654,473.568 650.561,470.95C647.36,468.242 644.407,465.237 641.18,462.562C638.41,460.266 635.41,458.131 631.748,457.594C628.947,457.183 626.076,457.277 623.24,457.1C620.816,456.95 620.238,456.062 621.054,453.871C623.177,448.182 621.296,443.766 615.648,441.109C614.943,440.777 614.3,440.31 613.693,439.945C612.484,440.977 611.484,441.832 610.484,442.684C609.504,443.518 608.523,444.35 607.404,445.299C612.799,447.153 614.619,449.356 614.095,453.902C613.904,455.56 612.777,457.136 611.962,458.689C611.39,459.777 609.816,460.256 609.917,462.329C611.235,462.329 612.478,462.404 613.708,462.316C620.812,461.81 627.483,463.325 633.81,466.513C637.001,468.121 637.923,471.116 638.089,474.279C638.23,476.982 636.206,478.778 634.056,479.791C629.761,481.815 625.185,482.564 620.421,481.455C616.249,480.483 612.052,479.619 607.862,478.728C607.542,478.66 607.186,478.752 606.844,478.772C607.121,481.757 607.783,484.703 607.563,487.58C607.303,490.946 603.79,491.804 601.536,493.536C602.878,495.438 604.106,497.18 605.417,499.037C610.612,497.501 614.548,494.992 614.964,488.912C615.116,486.676 616.53,486.091 618.501,487.384C623.499,490.662 628.681,490.332 633.995,488.478C640.313,486.274 646.638,484.082 652.934,481.813C655.367,480.937 657.729,479.861 660.424,478.752ZM523.066,598.638C525.73,599.552 528.127,600.578 530.627,601.148C531.912,601.441 533.441,601.117 534.75,600.716C536.449,600.195 538.021,599.269 539.686,598.61C541.94,597.718 542.225,598.019 543.559,600.075C547.705,606.471 553.202,611.125 560.709,613.251C566.102,614.778 571.41,616.605 576.766,618.273C577.479,618.496 578.235,618.579 578.754,618.683C577.865,612.073 576.924,605.724 576.182,599.351C575.59,594.263 573.907,589.583 571.215,585.292C570.16,583.611 568.826,581.886 567.195,580.845C565.472,579.747 564.978,578.529 565.127,576.655C565.711,576.125 566.422,575.642 566.924,574.997C570.139,570.866 571.389,566.298 569.553,561.233C569.237,560.366 568.264,559.196 567.51,559.129C565.207,558.925 562.865,559.191 560.383,559.279C563.135,566.881 561.592,570.074 554.416,572.627C553.807,572.845 553.273,573.282 552.572,573.696C553.718,574.763 554.683,575.612 555.593,576.516C560.304,581.197 565.023,585.88 567.155,592.432C567.839,594.535 568.854,596.634 567.841,598.902C565.827,603.407 562.114,604.91 557.532,602.933C550.356,599.837 545.259,594.388 541.02,588.01C540.536,587.283 539.991,586.598 539.358,585.739C536.588,591.517 532.212,595.606 524.141,591.199C523.812,593.482 523.49,595.71 523.066,598.638ZM499.664,266.693C505.082,267.494 511.156,267.46 512.344,275.123C514.135,274.55 515.813,274.014 517.867,273.356C517.754,271.736 517.828,270.208 517.51,268.766C516.801,265.56 514.68,263.466 511.99,261.626C507.802,258.762 507.892,258.605 509.875,253.808C512.186,248.217 512.449,242.464 511.506,236.549C510.508,230.295 509.68,224.013 508.77,217.744C508.627,216.757 508.448,215.776 508.268,214.7C503.104,219.113 498.305,223.412 493.284,227.429C490.028,230.033 486.62,232.387 483.94,235.673C481.354,238.843 479.553,242.204 479.629,246.403C479.645,247.304 479.416,248.209 479.248,249.528C477.486,249.18 475.957,249.106 474.617,248.563C472.168,247.571 469.877,247.673 467.826,249.232C465.555,250.959 463.457,252.916 461.308,254.752C462.804,257.047 464.031,258.927 465.308,260.885C469.958,253.461 474.642,255.33 481.431,259.166C482.027,257.469 482.646,255.803 483.201,254.115C484.892,248.948 487.353,244.189 490.769,239.95C494.398,235.446 498.96,235.921 502.138,240.796C504.816,244.906 504.638,249.234 503.601,253.584C502.559,257.967 501.025,262.233 499.664,266.693ZM271.635,335.092C272.796,332.624 273.645,329.979 275.168,327.809C276.91,325.325 279.895,325.532 282.868,325.895C282.612,323.27 282.387,320.944 282.171,318.725C278.618,317.905 275.776,319.181 272.788,320.034C269.521,320.968 268.794,324.569 266.057,326.138C265.462,325.457 264.999,325.065 264.712,324.573C263.38,322.292 261.616,320.705 258.886,320.233C257.738,320.034 256.711,319.192 255.565,318.895C253.728,318.421 251.847,317.934 249.968,317.861C247.464,317.762 244.939,317.971 242.435,318.194C236.193,318.747 229.956,319.383 223.218,320.034C224.231,321.511 225.255,322.889 226.159,324.343C228.929,328.786 231.489,333.368 234.431,337.691C238.321,343.408 243.428,347.802 249.905,350.439C252.293,351.412 252.424,352.089 251.243,354.334C250.264,356.195 249.12,358.285 249.113,360.277C249.098,364.487 250.092,368.57 253.893,371.748C255.534,370.971 257.319,370.123 259.131,369.262C257.57,366.662 257.082,364.098 257.416,361.444C257.935,357.32 260.609,354.731 264.916,352.84C263.336,351.883 262.526,351.137 261.58,350.861C254.61,348.833 249.619,344.074 244.795,339.011C242.625,336.735 242.899,334.161 243.757,331.653C244.644,329.058 246.358,327.27 249.426,326.847C252.789,326.384 255.894,327.076 258.801,328.433C263.211,330.49 267.457,332.9 271.635,335.092ZM354.359,265.513C353.629,263.815 353.052,262.387 352.409,260.99C349.695,255.094 348.765,248.865 349.141,242.449C349.337,239.098 350.995,236.301 354.188,235.196C356.996,234.224 359.583,235.617 361.65,237.637C365.949,241.836 368.796,246.866 370.076,252.762C370.615,255.248 371.202,257.724 371.923,260.887C374.51,257.585 376.715,254.832 380.231,254.431C383.893,254.013 386.565,256.465 389.167,258.917C389.479,258.165 389.624,257.704 389.855,257.291C390.143,256.774 390.501,256.296 390.833,255.804C392.185,253.807 391.978,252.459 390.241,250.87C387.309,248.184 383.838,247.351 379.966,247.542C377.878,247.645 375.777,247.482 373.811,247.442C373.449,245.275 373.375,243.571 372.866,242.011C371.021,236.365 367.586,231.782 362.629,228.567C358.258,225.731 354.512,222.289 351.045,218.46C349.894,217.189 348.547,216.095 347.352,214.978C346.42,219.332 345.747,223.448 344.636,227.441C342.967,233.442 341.342,239.428 341.356,245.713C341.365,249.993 341.78,254.103 345.852,256.825C346.444,257.22 346.421,258.531 346.846,259.972C343.438,259.178 341.711,261.118 340.014,262.704C337.081,265.444 334.565,268.574 335.249,273.015C335.376,273.838 335.908,274.903 336.578,275.282C338.519,276.378 340.627,277.181 342.752,278.137C343.929,269.003 346.406,266.252 354.359,265.513ZM487.971,383.635C488.076,382.608 488.098,381.772 488.26,380.963C488.422,380.151 488.725,379.366 488.965,378.569C491.529,370.067 496.893,363.483 503.303,357.609C505.883,355.244 508.785,353.435 512.016,352.068C513.137,351.592 514.346,351.002 514.567,349.35C515.739,340.587 508.497,334.587 500.77,335.887C498.317,336.3 496.456,337.628 495.508,340.173C493.248,346.249 490.34,351.987 486.028,356.91C481.405,362.185 475.864,366.124 468.932,368.503C473.887,372.976 473.186,378.673 472.053,384.323C477.496,383.346 482.457,382.146 487.971,383.635ZM239.51,486.273C239.794,487.339 239.988,488.529 240.425,489.62C241.864,493.211 244.101,496.015 248.101,496.963C251.761,497.83 252.872,497.229 254.523,493.42C248.794,492.417 246.646,489.219 247.986,483.618C248.209,482.69 248.672,481.82 248.902,480.892C249.117,480.026 249.172,479.119 249.316,478.086C248.584,478.12 248.22,478.067 247.903,478.165C246.875,478.48 245.859,478.841 244.845,479.202C237.823,481.704 230.753,482.097 223.639,479.627C219.161,478.073 217.749,473.369 220.63,469.52C223.423,465.789 227.355,463.808 231.799,462.948C235.189,462.292 238.665,462.087 242.091,461.604C242.883,461.493 243.631,461.066 244.66,460.689C243.831,459.168 243.063,457.828 242.36,456.456C240.421,452.667 241.331,448.895 244.733,446.441C245.174,446.122 245.563,445.728 245.698,445.611C244.828,444.568 244.195,443.465 243.255,442.797C242.599,442.331 241.42,442.135 240.649,442.376C235.964,443.835 234.293,447.173 235.754,451.816C236.467,454.082 235.786,455.52 233.528,456.069C232.532,456.31 231.436,456.131 230.385,456.158C228.244,456.214 226.078,456.095 223.967,456.379C219.551,456.974 216.334,459.902 213.434,462.85C208.881,467.477 203.993,471.645 198.797,475.495C198.098,476.013 197.43,476.573 196.992,476.921C201.689,478.9 206.308,480.827 210.912,482.79C214.752,484.428 218.502,486.313 222.426,487.713C226.75,489.256 231.131,489.164 235.129,486.518C236.562,485.569 237.915,485.231 239.51,486.273ZM437.736,358.755C436.625,355.414 435.605,352.617 434.777,349.765C434.25,347.943 434.029,346.032 433.629,344.17C432.209,337.576 431.769,330.959 433.629,324.399C434.438,321.54 435.766,318.832 436.713,316.006C437.025,315.07 437.342,313.592 436.867,313.039C435.353,311.275 433.887,309.428 431.228,308.937C426.808,308.123 423.367,309.416 420.208,312.513C416.979,315.679 416.112,317.456 417.752,321.226C419.224,324.613 419.655,328.074 419.794,331.687C420.05,338.328 419.847,344.867 416.675,350.931C415.529,353.12 414.304,355.27 413.019,357.615C414.644,358.177 415.955,358.89 417.331,359.054C420.352,359.413 422.434,361.075 423.95,363.477C425.375,365.732 426.544,368.149 427.885,370.603C430.001,365.59 433.115,361.461 437.736,358.755ZM489.631,488.948C491.047,488.948 491.873,488.966 492.699,488.945C497.373,488.828 502.06,488.822 506.426,490.762C509.891,492.303 513.434,493.809 516.588,495.87C521.221,498.897 525.922,502.007 528.141,507.544C528.407,508.206 529.774,509.094 530.213,508.905C532.359,507.984 534.715,507.1 536.352,505.53C540.963,501.1 540.536,492.379 535.758,488.098C535.356,487.738 534.715,487.588 534.158,487.459C531.176,486.771 528.138,486.271 525.203,485.425C517.312,483.15 510.719,478.955 506.082,471.995C504.865,470.168 503.568,468.394 502.144,466.363C497.88,471.628 492.585,472.893 486.169,471.43C489.006,477.199 492.41,482.241 489.631,488.948ZM308.698,406.064C307.258,407.577 305.91,408.771 304.826,410.169C301.455,414.512 301.722,419.464 305.514,423.381C306.415,424.311 307.688,424.883 308.58,425.819C309.912,427.217 311.402,427.346 313.15,426.989C314.546,426.703 315.988,426.415 317.396,426.471C323.623,426.719 329.722,427.52 335.656,429.72C339.666,431.207 343.363,432.904 346.156,436.234C346.498,436.642 347.045,436.88 347.961,437.52C349.933,431.398 353.77,427.348 359.49,425.526C357.267,423.159 355.172,421.069 353.243,418.835C351.088,416.339 352.354,413.137 351.857,409.995C351.015,410.368 350.273,410.503 349.806,410.934C346.544,413.96 342.29,414.858 338.283,414.95C333.474,415.061 328.606,413.966 323.816,413.098C318.343,412.109 313.551,409.426 308.698,406.064ZM382.589,386.349C381.449,379.462 382.369,373.416 386.252,368.045C385.773,367.821 385.552,367.621 385.345,367.635C379.011,368.025 373.997,365.117 369.796,360.877C363.167,354.189 358.136,346.461 356.116,337.152C352.831,335.955 350.218,336.803 347.398,338.673C343.58,341.206 341.694,344.641 341.039,348.902C340.743,350.819 341.259,352.381 343.351,353.564C350.162,357.418 356.063,362.354 360.587,368.882C363.335,372.85 365.56,376.961 366.152,381.795C366.319,383.161 366.178,384.566 366.178,385.922C368.922,385.428 371.479,384.558 374.012,384.623C376.693,384.695 379.348,385.654 382.589,386.349ZM294.5,560.792C293.099,560.882 292.299,560.97 291.499,560.974C290.667,560.979 289.833,560.925 289.003,560.857C286.289,560.633 285.251,561.689 285.752,564.358C286.038,565.881 286.726,567.341 286.909,568.869C287.2,571.298 288.458,572.99 290.263,574.49C292.493,576.345 292.033,579.544 289.428,580.886C288.718,581.251 287.816,581.448 287.327,582.006C283.688,586.171 281.29,590.886 281.153,596.562C281.12,597.97 281.014,599.392 280.764,600.776C279.977,605.121 279.078,609.446 278.291,613.79C278.16,614.509 278.367,615.288 278.433,616.251C280.073,615.531 281.315,614.825 282.651,614.426C288.149,612.782 293.631,611.063 299.2,609.697C304.723,608.342 308.339,604.755 311.291,600.264C312.046,599.115 312.444,597.73 313.212,595.99C315.125,596.903 317.046,597.413 318.435,598.563C321.989,601.505 325.645,601.819 329.73,599.951C333.797,598.091 334.65,595.13 332.168,591.039C323.663,594.973 320.689,592.514 316.382,585.251C315.654,586.256 314.978,587.19 314.299,588.124C310.932,592.758 307.742,597.52 302.662,600.603C299.683,602.412 296.748,603.387 293.283,602.175C290.786,601.302 289.076,599.675 289.15,597.029C289.216,594.688 289.4,592.102 290.434,590.087C292.658,585.755 295.197,581.539 298.738,578.064C300.171,576.658 301.539,575.185 303.195,573.474C297.382,571.292 291.724,569.163 294.5,560.792ZM352.285,466.848C350.389,469.987 348.251,472.995 346.67,476.273C344.397,480.983 340.138,483.068 335.83,484.997C330.596,487.341 325.033,488.734 319.268,488.987C317.333,489.072 316.404,490.106 316.022,491.698C314.976,496.052 316.111,500.09 318.58,503.628C320.637,506.574 324.156,506.456 327.32,506.749C328.621,506.869 329.632,506.316 330.637,505.138C334.236,500.92 337.374,496.235 342.591,493.594C347.208,491.257 351.758,488.907 357.085,488.843C359.91,488.809 362.737,488.837 365.261,488.837C365.431,485.818 365.415,482.626 365.841,479.493C366.267,476.359 367.458,473.42 369.899,470.73C363.27,471.973 355.609,471.372 352.285,466.848ZM388.875,508.45C389.572,511.505 390.168,514.134 390.772,516.76C391.738,520.956 391.043,525.037 389.776,529.031C387.566,536.001 383.746,541.954 378.296,546.873C375.471,549.424 375.516,551.592 378.084,554.426C380.978,557.618 384.45,558.556 388.723,558.147C391.817,557.852 393.567,555.713 395.613,554.134C397.27,552.855 397.378,550.395 397.305,548.144C396.934,536.625 401.251,527.029 409.535,519.156C410.713,518.037 412.142,517.183 413.744,515.993C412.836,515.29 412.284,514.616 411.58,514.361C408.838,513.367 407.271,511.327 406.633,508.656C405.992,505.971 405.695,503.205 405.17,500.016C401.252,505.86 396.537,509.835 388.875,508.45ZM412.095,630.821C413.445,632.876 413.306,634.65 412.845,636.628C411.945,640.49 411.443,644.442 413.09,648.255C414.074,650.534 415.107,652.83 416.425,654.924C420.17,660.87 424.073,666.716 428.017,672.758C429.222,670.327 430.259,667.817 431.652,665.522C434.059,661.552 436.953,657.863 439.152,653.791C441.923,648.655 443.191,643.271 439.007,638.069C438.204,637.072 438.273,636.095 439.208,635.199C440.218,634.234 440.952,633.033 442.704,633.013C444.462,632.993 446.21,632.441 447.972,632.176C452.13,631.55 455.363,628.242 455.898,624.119C456.046,622.973 456.414,621.854 456.75,620.431C455.457,619.615 454.014,618.702 452.475,617.729C451.309,620.681 449.821,622.964 447.334,624.387C444.1,626.237 440.998,624.439 437.652,623.513C437.652,626.653 437.728,629.4 437.631,632.141C437.533,634.879 437.383,637.627 437.027,640.34C436.75,642.451 436.466,644.681 435.568,646.564C434.14,649.56 431.569,651.048 428.067,651.206C424.764,651.353 422.9,649.521 421.474,647.115C420.581,645.61 419.939,643.792 419.765,642.056C419.254,636.955 417.819,631.922 418.577,626.705C418.736,625.616 418.337,624.446 418.245,623.709C415.041,624.046 412.162,624.897 409.474,624.487C406.332,624.008 405.018,620.955 403.93,617.823C402.639,618.909 401.764,619.963 400.642,620.515C399.022,621.313 398.836,622.657 398.807,624.091C398.742,627.344 403.103,631.112 406.362,630.85C408.324,630.693 410.308,630.821 412.095,630.821ZM445.789,516.817C447.629,518.372 449.488,519.52 450.793,521.119C457.084,528.83 459.186,538.098 460.094,547.701C460.406,550.988 460.143,554.33 460.143,557.391C465.938,561.324 475.241,557.145 478.301,552.039C479.459,550.106 479.485,547.836 478.014,545.706C475.256,541.717 472.248,537.825 470.078,533.522C466.359,526.155 464.408,518.338 466.728,510.011C466.843,509.604 466.744,509.137 466.744,508.705C460.211,508.483 459.685,508.267 451.848,502.687C450.281,511.25 449.773,512.429 445.789,516.817ZM508.178,436.654C508.672,436.086 509.002,435.757 509.274,435.384C512.295,431.225 515.999,428.143 521.098,426.642C524.631,425.602 528.176,425.724 531.725,425.344C537.506,424.724 543.067,425.572 548.823,426.999C549.409,426.515 550.221,425.986 550.858,425.296C554.588,421.248 555.245,414.688 550.282,411.548C549.094,410.797 548.149,409.653 547.124,408.657C544.696,406.3 544.261,406.569 541.298,407.917C537.968,409.432 535.597,412.5 531.872,413.292C529.796,413.733 527.815,414.627 525.737,415.04C520.446,416.091 515.133,416.895 509.897,414.661C508.192,413.932 506.432,413.327 504.487,412.586C503.803,417.723 501.106,421.63 497.005,424.948C499.62,426.418 502.415,427.31 504.191,429.174C505.99,431.065 506.785,433.915 508.178,436.654ZM491.77,400.832C492.145,400.918 492.393,401.06 492.592,401.01C499.088,399.379 505.672,398.026 512.039,395.99C517.365,394.286 522.572,392.049 527.576,389.539C531.312,387.665 534.408,384.766 536.219,380.771C536.907,379.254 536.994,377.996 536.069,376.412C533.544,372.096 529.786,371.439 525.157,372.717C519.165,374.37 513.505,377.113 508.659,381.065C501.873,386.6 496.596,393.5 491.77,400.832ZM427.931,510.35C427.335,511.097 427.049,511.316 426.951,511.599C425.344,516.207 423.643,520.787 422.197,525.446C419.624,533.737 418.521,542.25 419.701,550.874C420.095,553.753 421.207,556.727 422.719,559.215C425.092,563.119 429.846,564.067 432.526,559.037C434.025,556.226 434.87,553.363 435.216,550.269C435.806,545.022 435.696,539.781 434.616,534.623C433.741,530.445 432.574,526.325 431.438,522.207C430.38,518.38 429.191,514.59 427.931,510.35ZM452.791,368.226C453.482,367.27 454.178,366.317 454.865,365.358C456.801,362.657 458.65,359.891 460.679,357.26C466.986,349.078 471.786,340.235 472.808,329.754C473.107,326.685 473.503,323.513 471.175,320.856C469.734,319.21 468.113,318.646 466.064,319.403C462.123,320.86 459.339,323.569 458.095,327.583C456.439,332.925 455.089,338.363 453.445,343.709C450.959,351.787 452.357,359.959 452.791,368.226ZM380.154,494.946C373.498,498.056 363.33,504.963 357.97,509.412C353.16,513.405 349.901,518.483 347.07,523.893C345.571,526.757 345.243,529.778 346.741,532.849C347.474,534.354 348.602,535.027 350.184,534.848C353.9,534.427 357.312,533.392 360.365,530.961C365.671,526.739 368.972,521.087 371.877,515.232C374.502,509.938 376.494,504.33 378.746,498.852C379.183,497.79 379.531,496.688 380.154,494.946ZM402.625,365.854C402.261,361.269 402.067,357.216 401.595,353.197C400.603,344.759 399.511,336.352 396.197,328.385C394.689,324.763 392.27,322.127 389.095,320.083C388.24,319.532 387.063,319.089 386.089,319.183C382.53,319.525 378.852,324.947 379.714,328.599C380.318,331.15 381.131,333.67 382.069,336.12C385.12,344.086 389.312,351.465 394.298,358.349C396.322,361.143 398.008,364.521 402.625,365.854ZM363.362,400.812C363.466,400.52 363.57,400.228 363.674,399.936C361,397.379 358.389,394.75 355.637,392.281C350.297,387.489 344.963,382.684 339.461,378.083C335.555,374.816 330.808,373.521 325.762,373.657C324.143,373.702 322.453,374.219 320.955,374.882C318.922,375.78 318.336,377.423 318.885,379.649C319.531,382.264 320.791,384.678 322.886,386.255C327.256,389.544 331.723,392.769 336.934,394.671C340.628,396.019 344.333,397.362 348.104,398.468C350.61,399.2 353.319,400.127 355.792,399.817C357.854,399.558 359.428,399.852 361.179,400.597C361.82,400.868 362.628,400.751 363.362,400.812ZM501.432,450.154C501.364,450.434 501.297,450.715 501.231,450.994C504.379,452.853 507.374,455.081 510.711,456.5C518.965,460.008 527.586,462.504 536.381,464.218C539.705,464.865 543.152,465.223 546.625,463.965C551.715,462.12 553.299,458.478 548.77,453.978C545.719,450.947 541.909,449.419 537.809,448.448C532.186,447.116 526.553,447.076 520.836,447.839C515.195,448.591 509.512,449.019 503.85,449.621C503.033,449.707 502.236,449.972 501.432,450.154ZM475.529,494.731C477.222,499.339 478.166,503.523 480.199,507.083C483.81,513.403 487.97,519.425 492.119,525.42C495.246,529.94 499.867,532.36 505.18,533.476C507.707,534.006 509.008,533.081 509.563,530.555C510.438,526.585 509.194,523.229 506.567,520.304C503.784,517.207 500.811,514.273 498.163,511.068C492.182,503.829 484.246,499.362 475.529,494.731ZM493.479,556.542C492.235,566.187 486.045,572.004 478.067,575.352C469.628,578.894 461.26,576.998 453.876,571.365C452.036,574.038 450.245,576.643 448.444,579.26C451.157,582.019 454.487,582.81 457.592,583.861C462.932,585.671 468.428,585.817 474.028,584.878C478.444,584.138 482.426,582.479 486.26,580.315C492.856,576.59 496.699,570.306 500.905,564.391C501.815,563.113 502.159,561.433 502.856,559.712C499.684,558.639 496.887,557.693 493.479,556.542ZM351.564,451.656C351.52,451.39 351.476,451.126 351.431,450.861C350.089,450.628 348.754,450.301 347.402,450.176C342.543,449.73 337.66,449.49 332.817,448.911C327.077,448.225 321.398,448.379 315.739,449.465C312.342,450.117 309.416,451.625 307.437,454.581C304.818,458.495 305.724,462.014 310.916,463.609C313.758,464.482 317.062,464.547 320.043,464.133C325.621,463.36 331.111,461.965 336.209,459.397C341.328,456.818 346.446,454.236 351.564,451.656ZM353.4,559.003C353.802,563.479 355.831,566.829 358.066,570.105C361.716,575.453 366.208,580.029 372.341,582.165C381.079,585.208 389.999,585.644 398.78,581.839C401.382,580.713 404.081,579.816 407.28,578.607C405.749,576.227 404.454,574.213 403.083,572.082C394.978,576.871 387.08,579.128 377.988,575.767C368.804,572.371 364.331,565.529 362.01,556.574C358.972,557.429 356.253,558.196 353.4,559.003ZM321.769,524.064C320.765,524.064 319.813,524.358 319.239,524.016C315.543,521.817 311.226,521.041 307.777,518.058C304.373,515.112 301.23,512.322 299.718,507.923C297.967,502.823 297.054,497.76 298.843,492.492C299.493,490.577 300.083,488.641 300.793,486.43C298.052,485.236 295.341,484.054 292.597,482.859C288.553,492.718 289.986,502.371 293.218,511.8C294.351,515.101 296.487,518.325 298.921,520.855C303.916,526.043 310.413,529.119 316.991,531.86C318.054,532.303 319.462,531.922 320.751,531.922C321.119,529.093 321.433,526.655 321.769,524.064ZM293.976,386.359C292.396,387.158 290.884,387.786 289.516,388.642C286.179,390.73 284.142,394.05 282.119,397.24C280.172,400.31 278.208,403.58 277.293,407.037C276.375,410.512 275.783,414.197 276.272,417.989C276.833,422.357 277.46,426.712 279.198,430.723C280.719,434.231 282.886,437.459 284.822,440.908C287.313,438.907 289.526,437.131 291.772,435.325C291.396,434.432 291.219,433.714 290.829,433.139C289.569,431.292 288.184,429.532 286.934,427.679C284.151,423.554 283.147,418.867 283.436,414.029C283.665,410.217 284.704,406.55 287.253,403.41C290.272,399.693 293.726,396.539 298.006,394.076C296.744,391.659 295.535,389.346 293.976,386.359ZM534.334,533.503C534.848,533.61 535.195,533.771 535.518,533.732C536.104,533.662 536.698,533.531 537.25,533.324C545.34,530.303 552.48,525.748 558.162,519.258C560.797,516.248 563.201,512.856 563.531,508.526C563.986,502.574 564.761,496.638 564.97,490.68C565.072,487.759 564.206,484.804 563.736,481.56C560.898,482.974 558.465,484.187 555.918,485.456C557.242,491.139 558.596,496.731 557.932,502.517C557.244,508.512 555.256,513.709 550.229,517.726C545.338,521.632 540.083,524.319 533.834,525.268C533.719,526.118 533.486,526.83 533.553,527.515C533.75,529.519 534.064,531.513 534.334,533.503ZM538.938,348.041C538.84,346.387 538.868,345.354 538.704,344.353C538.395,342.463 537.948,340.596 537.608,338.711C536.567,332.945 534.038,327.766 530.231,323.488C527.684,320.626 524.126,318.656 520.977,316.345C520.42,315.937 519.668,315.719 518.973,315.587C512.309,314.32 505.647,313.028 498.959,311.896C497.24,311.604 495.369,311.625 493.848,313.423C494.778,315.663 495.727,317.949 496.647,320.171C499.362,319.782 501.793,319.237 504.243,319.146C506.124,319.076 508.022,319.75 509.921,319.794C519.571,320.015 525.661,327.58 527.851,335.223C528.913,338.933 529.035,342.913 529.601,346.905C532.322,347.236 535.258,347.594 538.938,348.041ZM358.406,312.877C354.926,311.425 351.572,311.689 348.285,311.711C342.06,311.752 336.403,313.805 330.933,316.656C327.06,318.676 324.376,321.789 322.486,325.503C320.765,328.885 319.414,332.496 318.283,336.126C317.019,340.182 315.186,344.202 316.101,348.97C318.999,349.592 321.859,349.631 324.662,348.313C324.769,347.221 325.059,346.249 324.923,345.338C324.26,340.919 325.672,336.836 326.801,332.702C328.678,325.824 333.795,322.23 340.024,319.885C344.618,318.155 349.403,318.608 354.126,319.229C355.48,319.407 356.551,319.424 357.021,318.073C357.593,316.418 357.935,314.683 358.406,312.877ZM556.586,391.569C557.408,392.603 557.897,393.816 558.754,394.191C562.109,395.662 563.908,398.703 566.231,401.193C570.874,406.172 574.006,411.697 572.458,418.939C571.53,423.276 570.681,427.591 567.681,431.079C566.464,432.493 565.175,433.845 564.068,435.06C566.195,437.251 568.146,439.26 570.168,441.343C573.16,437.546 575.676,433.572 576.617,428.756C576.844,427.592 577.461,426.502 577.676,425.336C578.274,422.09 579.299,418.8 579.16,415.569C578.941,410.424 576.629,405.712 574.754,400.958C574.496,400.305 574.086,399.688 573.652,399.129C571.982,396.975 570.298,394.831 568.574,392.72C566.201,389.815 563.98,386.715 559.996,385.418C558.887,387.417 557.801,389.377 556.586,391.569ZM455.666,296.834C455.207,296.051 455.088,295.672 454.834,295.442C449.197,290.34 442.961,286.203 435.522,284.29C430.889,283.098 426.023,282.502 421.484,284.269C416.388,286.253 411.482,288.774 406.631,291.324C403.838,292.793 401.316,294.777 399.71,297.72C402.017,299.216 404.19,300.626 406.352,302.028C406.798,301.679 407.146,301.515 407.337,301.242C411.601,295.15 417.036,291.094 424.646,289.81C429.339,289.018 433.277,290.404 437.346,292.076C442.157,294.053 445.02,298.276 448.737,301.967C450.982,300.303 453.24,298.63 455.666,296.834ZM528.828,716.514C523.418,730.654 529.412,745.544 540.541,748.279C547.988,737.72 540.023,721.689 528.828,716.514ZM326.745,715.721C325.555,716.489 324.71,716.882 324.056,717.484C321.597,719.744 319.295,722.181 316.758,724.346C313.252,727.338 311.834,731.242 312.467,735.533C313.029,739.337 314.571,742.996 315.768,747.013C320.798,745.015 323.895,741.71 326.331,737.703C330.568,730.736 329.132,723.606 326.745,715.721ZM617.586,209.311C619.199,208.937 620.688,208.66 622.135,208.245C627.336,206.75 630.76,202.981 634.176,199.065C637.381,195.389 637.643,191.043 637.656,186.612C637.662,184.676 636.056,183.47 634.256,183.919C629.574,185.085 625.143,186.69 622.311,191.071C618.77,196.55 617.137,202.475 617.586,209.311ZM103.988,380.79C105.771,383.988 108.54,386.225 111.748,387.826C120.313,392.101 128.037,388.828 135.869,385.242C128.908,374.601 109.792,373.347 103.988,380.79ZM684.092,587.178C688.69,600.782 701.17,607.563 711.981,602.461C710.848,600.385 709.67,598.351 708.61,596.259C707.032,593.146 704.727,590.903 701.436,589.623C695.922,587.479 690.256,586.574 684.092,587.178ZM719.426,385.709C730.377,392.203 746.955,389.617 750.699,380.456C749.48,379.887 748.281,379.133 746.972,378.756C744.812,378.134 742.591,377.682 740.374,377.284C731.958,375.775 724.782,377.615 719.755,385.088C719.625,385.281 719.531,385.5 719.426,385.709ZM428.218,139.361C431.439,133.577 434.107,128.562 433.402,122.422C432.732,116.572 432.13,110.82 426.75,106.856C420.626,113.605 418.471,120.764 422.372,129.048C423.645,131.753 425.094,134.376 426.513,137.008C426.902,137.726 427.474,138.345 428.218,139.361ZM237.011,207.757C237.75,197.099 227.775,185.923 216.388,185.316C215.126,196.371 227.304,209.622 237.011,207.757ZM170.765,585.551C159.732,584.52 146.463,592.514 145.777,601.933C150.677,601.771 155.42,601.256 159.947,599.022C165.722,596.171 169.931,592.282 170.765,585.551ZM377.337,285.367C381.773,288.29 386.21,290.165 390.815,291.965C387.132,287.697 386.988,282.113 384.882,276.952C382.232,279.908 379.896,282.514 377.337,285.367ZM592.9,450.747C587.744,451.135 582.914,451.992 577.722,450.331M362.667,300.97C364.301,297.032 365.935,293.094 367.788,288.625C363.912,288.212 360.449,287.844 356.649,287.439C357.596,289.368 358.169,291.109 359.201,292.513C361.093,295.088 362.089,297.895 362.667,300.97ZM621.102,494.217C620.198,493.226 619.411,491.825 617.323,493.235C618.906,493.646 620.004,493.932 621.102,494.217Z" style="fill:rgb(34,34,34);"/>
            </g>
        </g>
        <path id="path5326" d="M2.75,70L2.75,95C2.75,100.817 7.433,96.25 13.25,96.25L86.75,96.25C92.567,96.25 97.25,100.817 97.25,95L97.25,70L2.75,70Z" style="fill:rgb(34,34,34);fill-rule:nonzero;"/>
        <g transform="matrix(0.395856,0,0,0.501084,14.6039,-0.166712)">
            <g id="Text" transform="matrix(31.9308,0,0,31.9308,-26.0102,177.434)">
                <path d="M0.59,-0.699L0.59,-0.56L0.242,-0.56L0.242,-0.416L0.555,-0.416L0.555,-0.283L0.242,-0.283L0.242,-0.138L0.601,-0.138L0.601,0L0.086,0L0.086,-0.699L0.59,-0.699Z" style="fill:rgb(255,238,238);fill-rule:nonzero;"/>
            </g>
            <g transform="matrix(31.9308,0,0,31.9308,-5.12748,177.434)">
                <path d="M0.311,-0.578C0.285,-0.578 0.265,-0.572 0.25,-0.56C0.234,-0.547 0.227,-0.531 0.227,-0.51C0.227,-0.49 0.236,-0.474 0.255,-0.462C0.273,-0.45 0.315,-0.436 0.382,-0.42C0.448,-0.403 0.499,-0.379 0.536,-0.346C0.573,-0.313 0.591,-0.266 0.591,-0.203C0.591,-0.14 0.568,-0.09 0.521,-0.051C0.473,-0.012 0.412,0.008 0.335,0.008C0.224,0.008 0.125,-0.033 0.036,-0.115L0.129,-0.229C0.204,-0.163 0.274,-0.13 0.338,-0.13C0.367,-0.13 0.389,-0.136 0.406,-0.149C0.422,-0.161 0.43,-0.178 0.43,-0.199C0.43,-0.22 0.421,-0.236 0.404,-0.249C0.387,-0.261 0.352,-0.273 0.301,-0.286C0.22,-0.305 0.16,-0.331 0.123,-0.362C0.085,-0.393 0.066,-0.441 0.066,-0.507C0.066,-0.574 0.09,-0.625 0.138,-0.661C0.185,-0.697 0.245,-0.715 0.316,-0.715C0.363,-0.715 0.409,-0.707 0.456,-0.691C0.503,-0.675 0.543,-0.652 0.578,-0.623L0.499,-0.509C0.438,-0.555 0.376,-0.578 0.311,-0.578Z" style="fill:rgb(255,238,238);fill-rule:nonzero;"/>
            </g>
            <g transform="matrix(31.9308,0,0,31.9308,15.2444,177.434)">
                <path d="M0.311,-0.578C0.285,-0.578 0.265,-0.572 0.25,-0.56C0.234,-0.547 0.227,-0.531 0.227,-0.51C0.227,-0.49 0.236,-0.474 0.255,-0.462C0.273,-0.45 0.315,-0.436 0.382,-0.42C0.448,-0.403 0.499,-0.379 0.536,-0.346C0.573,-0.313 0.591,-0.266 0.591,-0.203C0.591,-0.14 0.568,-0.09 0.521,-0.051C0.473,-0.012 0.412,0.008 0.335,0.008C0.224,0.008 0.125,-0.033 0.036,-0.115L0.129,-0.229C0.204,-0.163 0.274,-0.13 0.338,-0.13C0.367,-0.13 0.389,-0.136 0.406,-0.149C0.422,-0.161 0.43,-0.178 0.43,-0.199C0.43,-0.22 0.421,-0.236 0.404,-0.249C0.387,-0.261 0.352,-0.273 0.301,-0.286C0.22,-0.305 0.16,-0.331 0.123,-0.362C0.085,-0.393 0.066,-0.441 0.066,-0.507C0.066,-0.574 0.09,-0.625 0.138,-0.661C0.185,-0.697 0.245,-0.715 0.316,-0.715C0.363,-0.715 0.409,-0.707 0.456,-0.691C0.503,-0.675 0.543,-0.652 0.578,-0.623L0.499,-0.509C0.438,-0.555 0.376,-0.578 0.311,-0.578Z" style="fill:rgb(255,238,238);fill-rule:nonzero;"/>
            </g>
            <g transform="matrix(31.9308,0,0,31.9308,35.6162,177.434)">
                <path d="M0.59,-0.699L0.59,-0.56L0.242,-0.56L0.242,-0.416L0.555,-0.416L0.555,-0.283L0.242,-0.283L0.242,-0.138L0.601,-0.138L0.601,0L0.086,0L0.086,-0.699L0.59,-0.699Z" style="fill:rgb(255,238,238);fill-rule:nonzero;"/>
            </g>
            <g transform="matrix(31.9308,0,0,31.9308,56.4989,177.434)">
                <path d="M0.575,-0.699L0.731,-0.699L0.731,0L0.575,0L0.242,-0.438L0.242,0L0.086,0L0.086,-0.699L0.232,-0.699L0.575,-0.249L0.575,-0.699Z" style="fill:rgb(255,238,238);fill-rule:nonzero;"/>
            </g>
            <g transform="matrix(31.9308,0,0,31.9308,82.5864,177.434)">
                <path d="M0.382,-0.564L0.382,0L0.226,0L0.226,-0.564L0.028,-0.564L0.028,-0.699L0.58,-0.699L0.58,-0.564L0.382,-0.564Z" style="fill:rgb(255,238,238);fill-rule:nonzero;"/>
            </g>
            <g transform="matrix(31.9308,0,0,31.9308,102,177.434)">
                <rect x="0.086" y="-0.699" width="0.156" height="0.699" style="fill:rgb(255,238,238);fill-rule:nonzero;"/>
            </g>
            <g transform="matrix(31.9308,0,0,31.9308,112.474,177.434)">
                <path d="M0.584,0L0.519,-0.151L0.226,-0.151L0.161,0L-0.005,0L0.297,-0.699L0.448,-0.699L0.75,0L0.584,0ZM0.373,-0.491L0.285,-0.288L0.46,-0.288L0.373,-0.491Z" style="fill:rgb(255,238,238);fill-rule:nonzero;"/>
            </g>
            <g transform="matrix(31.9308,0,0,31.9308,136.262,177.434)">
                <path d="M0.086,0L0.086,-0.699L0.242,-0.699L0.242,-0.139L0.54,-0.139L0.54,0L0.086,0Z" style="fill:rgb(255,238,238);fill-rule:nonzero;"/>
            </g>
            <g transform="matrix(31.9308,0,0,31.9308,154.399,177.434)">
                <rect x="0.086" y="-0.699" width="0.156" height="0.699" style="fill:rgb(255,238,238);fill-rule:nonzero;"/>
            </g>
            <g transform="matrix(31.9308,0,0,31.9308,164.872,177.434)">
                <path d="M0.311,-0.578C0.285,-0.578 0.265,-0.572 0.25,-0.56C0.234,-0.547 0.227,-0.531 0.227,-0.51C0.227,-0.49 0.236,-0.474 0.255,-0.462C0.273,-0.45 0.315,-0.436 0.382,-0.42C0.448,-0.403 0.499,-0.379 0.536,-0.346C0.573,-0.313 0.591,-0.266 0.591,-0.203C0.591,-0.14 0.568,-0.09 0.521,-0.051C0.473,-0.012 0.412,0.008 0.335,0.008C0.224,0.008 0.125,-0.033 0.036,-0.115L0.129,-0.229C0.204,-0.163 0.274,-0.13 0.338,-0.13C0.367,-0.13 0.389,-0.136 0.406,-0.149C0.422,-0.161 0.43,-0.178 0.43,-0.199C0.43,-0.22 0.421,-0.236 0.404,-0.249C0.387,-0.261 0.352,-0.273 0.301,-0.286C0.22,-0.305 0.16,-0.331 0.123,-0.362C0.085,-0.393 0.066,-0.441 0.066,-0.507C0.066,-0.574 0.09,-0.625 0.138,-0.661C0.185,-0.697 0.245,-0.715 0.316,-0.715C0.363,-0.715 0.409,-0.707 0.456,-0.691C0.503,-0.675 0.543,-0.652 0.578,-0.623L0.499,-0.509C0.438,-0.555 0.376,-0.578 0.311,-0.578Z" style="fill:rgb(255,238,238);fill-rule:nonzero;"/>
            </g>
            <g transform="matrix(31.9308,0,0,31.9308,185.001,177.434)">
                <path d="M0.382,-0.564L0.382,0L0.226,0L0.226,-0.564L0.028,-0.564L0.028,-0.699L0.58,-0.699L0.58,-0.564L0.382,-0.564Z" style="fill:rgb(255,238,238);fill-rule:nonzero;"/>
            </g>
        </g>
    </g>
</svg>
