<?xml version="1.0" encoding="UTF-8" standalone="no"?>
<!DOCTYPE svg PUBLIC "-//W3C//DTD SVG 1.1//EN" "http://www.w3.org/Graphics/SVG/1.1/DTD/svg11.dtd">
<svg width="200" height="200" viewBox="0 0 200 200" version="1.1" xmlns="http://www.w3.org/2000/svg" xmlns:xlink="http://www.w3.org/1999/xlink" xml:space="preserve" xmlns:serif="http://www.serif.com/" style="fill-rule:evenodd;clip-rule:evenodd;stroke-linejoin:round;stroke-miterlimit:2;">
    <g id="Futurist" transform="matrix(2,0,0,2,0,0)">
        <path id="rect5322" d="M100,3.75C100,1.68 98.32,0 96.25,0L3.75,0C1.68,0 0,1.68 0,3.75L0,96.25C0,98.32 1.68,100 3.75,100L96.25,100C98.32,100 100,98.32 100,96.25L100,3.75Z" style="fill:rgb(34,34,34);"/>
        <path id="rect5324" d="M95,7.5C95,6.12 93.88,5 92.5,5L7.5,5C6.12,5 5,6.12 5,7.5L5,92.5C5,93.88 6.12,95 7.5,95L92.5,95C93.88,95 95,93.88 95,92.5L95,7.5Z" style="fill:rgb(7,79,245);"/>
        <g id="spaceship" transform="matrix(0.0715,0,0,0.0715,50,45.3366)">
            <g transform="matrix(1,0,0,1,-500,-500)">
                <g transform="matrix(0.1,0,0,-0.1,0,511)">
                    <path d="M8946.9,4689.2C8920,4685.4 8833.8,4671.9 8755.2,4660.4C8295,4593.3 7587.5,4303.8 6855.1,3885.8C6517.6,3692.1 5846.6,3245.4 5486.1,2975.1C5177.4,2741.2 4824.6,2461.3 4824.6,2447.8C4824.6,2442.1 4886,2407.5 4960.7,2371.1C5534,2081.6 6107.3,1625.3 6490.7,1147.8C6768.7,802.7 7023.7,367.4 7192.4,-50.6L7272.9,-248.1L7510.8,-2.6C8605.6,1128.6 9474.2,2390.3 9771.4,3276.1C10001.5,3968.3 9922.9,4415 9535.6,4604.8C9380.2,4679.6 9132.9,4716 8946.9,4689.2ZM8283.5,4324.8C8739.8,4050.6 9211.5,3536.8 9458.8,3045.9L9525.9,2909.8L9462.6,2781.3L9401.2,2650.9L9297.7,2865.6C9027.4,3425.5 8599.8,3889.5 8072.5,4196.2C7984.3,4246 7911.4,4294 7911.4,4299.7C7911.4,4315 8101.2,4389.8 8141.5,4391.7C8157,4393.9 8222.2,4363.2 8283.5,4324.8ZM7875.1,3439C8471.4,3274.1 8741.8,2570.4 8408.1,2052.8C8377.4,2002.9 8310.3,1924.3 8260.5,1878.3C8076.4,1705.7 7888.5,1632.9 7631.6,1632.9C6811,1632.9 6398.7,2616.5 6977.8,3195.5C7223.2,3441 7549.2,3529.1 7875.1,3439Z" style="fill:rgb(34,34,34);fill-rule:nonzero;"/>
                    <path d="M4168.9,1887.9C4082.6,1809.3 3998.3,1732.6 3982.9,1719.2C3959.9,1696.2 3971.4,1684.7 4063.4,1644.4C4207.2,1581.1 4556.2,1379.8 4709.6,1272.4C5213.8,919.6 5691.3,415.3 6011.5,-98.5C6122.7,-278.7 6324,-683.3 6389.2,-863.5C6419.9,-945.9 6452.5,-1013.1 6464,-1013.1C6473.6,-1011.2 6559.9,-938.3 6653.8,-850.1L6824.4,-691L6743.9,-453.2C6395,568.8 5674,1387.5 4701.9,1864.9C4305,2058.5 4356.8,2056.6 4168.9,1887.9Z" style="fill:rgb(34,34,34);fill-rule:nonzero;"/>
                    <path d="M2642.7,1479.5C2234.3,1370.2 1751.1,1074.9 1191.3,591.8C934.3,371.3 476,-67.8 393.6,-171.4L334.2,-248.1L435.8,-205.9C769.4,-73.6 1035.9,-16 1319.7,-16C1624.6,-16 1835.5,-92.7 1998.4,-259.5L2082.8,-345.8L1996.5,-462.7C1779.8,-761.8 1578.5,-1057.1 1576.6,-1080.1C1576.6,-1093.5 1641.8,-1179.8 1724.2,-1269.9C1804.7,-1358.1 1871.8,-1438.6 1871.8,-1448.2C1871.8,-1455.9 1816.2,-1515.3 1745.3,-1580.5L1616.8,-1695.5L2234.2,-2370.4C2575.5,-2742.4 2859.3,-3045.3 2865,-3045.3C2872.7,-3045.3 2935.9,-2993.5 3006.9,-2930.3L3133.4,-2815.3L3298.3,-2993.6L3461.3,-3170L3589.8,-3102.9C3660.7,-3066.5 3835.2,-2964.8 3979,-2878.6L4239.8,-2721.4L4329.9,-2815.4C4456.4,-2951.5 4502.5,-3081.9 4514,-3336.9C4527.4,-3649.4 4452.6,-3944.7 4270.5,-4320.5C4228.3,-4404.9 4195.7,-4475.8 4197.6,-4477.7C4211,-4491.1 4908.9,-3883.3 5146.7,-3651.3C5693.1,-3118.3 6011.4,-2679.2 6149.5,-2268.9C6214.7,-2079.1 6214.7,-1793.4 6151.4,-1655.4C6126.5,-1601.7 6082.4,-1532.7 6051.7,-1502C6013.4,-1463.7 5971.2,-1371.6 5917.5,-1214.4C5541.7,-115.8 4719.2,766.2 3655,1213C3597.5,1236 3513.1,1289.7 3467.1,1331.9C3325.2,1458.4 3196.7,1506.4 2974.3,1512.1C2830.6,1515.9 2748.1,1508.3 2642.7,1479.5ZM4445,18.5C4590.7,-48.6 4719.2,-171.3 4792,-313.2C4849.5,-420.6 4853.4,-441.7 4853.4,-629.6C4853.4,-811.7 4847.7,-840.5 4799.7,-936.4C4728.8,-1074.5 4598.4,-1206.8 4462.2,-1273.9C4364.4,-1325.6 4337.6,-1329.5 4153.5,-1329.5C3986.7,-1327.6 3936.8,-1319.9 3860.1,-1285.4C3733.6,-1227.9 3576.3,-1074.5 3509.2,-942.2C3457.4,-840.6 3453.6,-813.8 3453.6,-629.7C3453.6,-447.6 3459.4,-418.8 3507.3,-322.9C3595.5,-150.3 3714.4,-43 3902.3,35.6C4053.8,99 4287.8,91.3 4445,18.5Z" style="fill:rgb(34,34,34);fill-rule:nonzero;"/>
                    <path d="M1402.1,-2109.8C1187.3,-2261.3 853.7,-2589.1 723.4,-2775.1C669.7,-2853.7 629.4,-2920.8 633.3,-2924.7C637.1,-2930.5 687,-2918.9 742.6,-2903.6C869.1,-2865.3 1009.1,-2863.3 1009.1,-2899.8C1009.1,-2930.5 955.4,-2999.5 731.1,-3266C443.5,-3605.4 249.8,-3925.6 129.1,-4257.3C90.8,-4366.6 90.8,-4368.5 127.2,-4368.5C200.1,-4368.5 566.3,-4236.2 761.8,-4138.4C951.6,-4042.5 1133.8,-3927.5 1477,-3685.9C1611.2,-3591.9 1632.3,-3582.4 1657.2,-3609.2C1682.1,-3634.1 1680.2,-3655.2 1636.1,-3795.2C1609.2,-3883.4 1590.1,-3958.2 1593.9,-3963.9C1605.4,-3975.4 1841.2,-3831.6 1983.1,-3726.1C2140.3,-3611.1 2397.3,-3365.6 2510.4,-3219.9L2598.6,-3106.8L2148,-2612.1C1898.7,-2337.9 1668.7,-2086.7 1634.2,-2052.2L1572.8,-1988.9L1402.1,-2109.8Z" style="fill:rgb(34,34,34);fill-rule:nonzero;"/>
                </g>
            </g>
        </g>
        <path id="path5326" d="M2.75,70L2.75,95C2.75,100.817 7.433,96.25 13.25,96.25L86.75,96.25C92.567,96.25 97.25,100.817 97.25,95L97.25,70L2.75,70Z" style="fill:rgb(34,34,34);fill-rule:nonzero;"/>
        <g id="Text" transform="matrix(0.501084,0,0,0.501084,17.3409,-0.166712)">
            <g transform="matrix(31.9308,0,0,31.9308,-15.0905,177.434)">
                <path d="M0.566,-0.699L0.566,-0.562L0.242,-0.562L0.242,-0.411L0.55,-0.411L0.55,-0.274L0.242,-0.274L0.242,0L0.086,0L0.086,-0.699L0.566,-0.699Z" style="fill:rgb(255,238,238);fill-rule:nonzero;"/>
            </g>
            <g transform="matrix(31.9308,0,0,31.9308,4.45112,177.434)">
                <path d="M0.271,-0.181C0.297,-0.148 0.332,-0.132 0.376,-0.132C0.42,-0.132 0.455,-0.148 0.481,-0.181C0.506,-0.213 0.519,-0.257 0.519,-0.313L0.519,-0.699L0.675,-0.699L0.675,-0.308C0.675,-0.207 0.647,-0.129 0.591,-0.075C0.535,-0.02 0.463,0.007 0.376,0.007C0.289,0.007 0.217,-0.02 0.161,-0.075C0.104,-0.13 0.076,-0.207 0.076,-0.308L0.076,-0.699L0.232,-0.699L0.232,-0.313C0.232,-0.257 0.245,-0.213 0.271,-0.181Z" style="fill:rgb(255,238,238);fill-rule:nonzero;"/>
            </g>
            <g transform="matrix(31.9308,0,0,31.9308,28.4311,177.434)">
                <path d="M0.382,-0.564L0.382,0L0.226,0L0.226,-0.564L0.028,-0.564L0.028,-0.699L0.58,-0.699L0.58,-0.564L0.382,-0.564Z" style="fill:rgb(255,238,238);fill-rule:nonzero;"/>
            </g>
            <g transform="matrix(31.9308,0,0,31.9308,47.8451,177.434)">
                <path d="M0.271,-0.181C0.297,-0.148 0.332,-0.132 0.376,-0.132C0.42,-0.132 0.455,-0.148 0.481,-0.181C0.506,-0.213 0.519,-0.257 0.519,-0.313L0.519,-0.699L0.675,-0.699L0.675,-0.308C0.675,-0.207 0.647,-0.129 0.591,-0.075C0.535,-0.02 0.463,0.007 0.376,0.007C0.289,0.007 0.217,-0.02 0.161,-0.075C0.104,-0.13 0.076,-0.207 0.076,-0.308L0.076,-0.699L0.232,-0.699L0.232,-0.313C0.232,-0.257 0.245,-0.213 0.271,-0.181Z" style="fill:rgb(255,238,238);fill-rule:nonzero;"/>
            </g>
            <g transform="matrix(31.9308,0,0,31.9308,71.8251,177.434)">
                <path d="M0.653,-0.467C0.653,-0.355 0.609,-0.283 0.52,-0.25L0.697,0L0.505,0L0.35,-0.223L0.242,-0.223L0.242,0L0.086,0L0.086,-0.699L0.351,-0.699C0.46,-0.699 0.537,-0.681 0.584,-0.644C0.63,-0.607 0.653,-0.548 0.653,-0.467ZM0.356,-0.358C0.409,-0.358 0.446,-0.367 0.465,-0.384C0.484,-0.401 0.494,-0.429 0.494,-0.467C0.494,-0.504 0.484,-0.53 0.464,-0.544C0.444,-0.558 0.409,-0.565 0.359,-0.565L0.242,-0.565L0.242,-0.358L0.356,-0.358Z" style="fill:rgb(255,238,238);fill-rule:nonzero;"/>
            </g>
            <g transform="matrix(31.9308,0,0,31.9308,95.0388,177.434)">
                <rect x="0.086" y="-0.699" width="0.156" height="0.699" style="fill:rgb(255,238,238);fill-rule:nonzero;"/>
            </g>
            <g transform="matrix(31.9308,0,0,31.9308,105.512,177.434)">
                <path d="M0.311,-0.578C0.285,-0.578 0.265,-0.572 0.25,-0.56C0.234,-0.547 0.227,-0.531 0.227,-0.51C0.227,-0.49 0.236,-0.474 0.255,-0.462C0.273,-0.45 0.315,-0.436 0.382,-0.42C0.448,-0.403 0.499,-0.379 0.536,-0.346C0.573,-0.313 0.591,-0.266 0.591,-0.203C0.591,-0.14 0.568,-0.09 0.521,-0.051C0.473,-0.012 0.412,0.008 0.335,0.008C0.224,0.008 0.125,-0.033 0.036,-0.115L0.129,-0.229C0.204,-0.163 0.274,-0.13 0.338,-0.13C0.367,-0.13 0.389,-0.136 0.406,-0.149C0.422,-0.161 0.43,-0.178 0.43,-0.199C0.43,-0.22 0.421,-0.236 0.404,-0.249C0.387,-0.261 0.352,-0.273 0.301,-0.286C0.22,-0.305 0.16,-0.331 0.123,-0.362C0.085,-0.393 0.066,-0.441 0.066,-0.507C0.066,-0.574 0.09,-0.625 0.138,-0.661C0.185,-0.697 0.245,-0.715 0.316,-0.715C0.363,-0.715 0.409,-0.707 0.456,-0.691C0.503,-0.675 0.543,-0.652 0.578,-0.623L0.499,-0.509C0.438,-0.555 0.376,-0.578 0.311,-0.578Z" style="fill:rgb(255,238,238);fill-rule:nonzero;"/>
            </g>
            <g transform="matrix(31.9308,0,0,31.9308,125.692,177.434)">
                <path d="M0.382,-0.564L0.382,0L0.226,0L0.226,-0.564L0.028,-0.564L0.028,-0.699L0.58,-0.699L0.58,-0.564L0.382,-0.564Z" style="fill:rgb(255,238,238);fill-rule:nonzero;"/>
            </g>
        </g>
    </g>
</svg>
