<?xml version="1.0" encoding="UTF-8" standalone="no"?>
<!DOCTYPE svg PUBLIC "-//W3C//DTD SVG 1.1//EN" "http://www.w3.org/Graphics/SVG/1.1/DTD/svg11.dtd">
<svg width="200" height="200" viewBox="0 0 200 200" version="1.1" xmlns="http://www.w3.org/2000/svg" xmlns:xlink="http://www.w3.org/1999/xlink" xml:space="preserve" xmlns:serif="http://www.serif.com/" style="fill-rule:evenodd;clip-rule:evenodd;stroke-linejoin:round;stroke-miterlimit:2;">
    <g id="Historic" transform="matrix(2,0,0,2,0,0)">
        <path id="rect5322" d="M100,3.75C100,1.68 98.32,0 96.25,0L3.75,0C1.68,0 0,1.68 0,3.75L0,96.25C0,98.32 1.68,100 3.75,100L96.25,100C98.32,100 100,98.32 100,96.25L100,3.75Z" style="fill:rgb(34,34,34);"/>
        <path id="rect5324" d="M95,7.5C95,6.12 93.88,5 92.5,5L7.5,5C6.12,5 5,6.12 5,7.5L5,92.5C5,93.88 6.12,95 7.5,95L92.5,95C93.88,95 95,93.88 95,92.5L95,7.5Z" style="fill:rgb(255,116,0);"/>
        <g id="augustus-of-prima-porta" transform="matrix(3.0587,0,0,3.0587,50,41.2387)">
            <g transform="matrix(1,0,0,1,-9.966,-9.966)">
                <clipPath id="_clip1">
                    <rect x="0" y="0" width="19.932" height="19.932"/>
                </clipPath>
                <g clip-path="url(#_clip1)">
                    <path d="M14.89,3.196C14.422,3.196 14.062,3.238 13.724,3.557C13.384,3.875 12.982,4.234 12.982,4.234C12.982,4.234 12.559,4.022 12.408,3.726C12.262,3.429 12.028,3.048 11.669,2.838C11.307,2.626 10.967,2.561 10.715,2.413C10.46,2.265 9.722,1.842 9.381,1.714C9.041,1.586 8.851,1.459 8.533,1.291C8.215,1.121 7.558,0.994 7.136,0.931C7.136,0.931 7.03,0.362 6.311,0.117C5.461,-0.173 4.954,0.168 4.954,0.168C4.954,0.168 4.808,0.126 4.678,0.168C4.551,0.21 4.592,0.315 4.509,0.315C4.423,0.315 4.381,0.378 4.339,0.442C4.297,0.506 4.297,0.591 4.255,0.654C4.211,0.717 4.129,0.717 4.148,0.844L4.169,0.971C4.169,0.971 3.711,2.289 4.912,2.841C6.4,3.525 7.069,2.065 7.069,2.065C7.069,2.065 7.666,2.245 7.961,2.33C8.257,2.414 8.383,2.457 8.639,2.627C8.893,2.798 9.211,3.072 9.509,3.262C9.806,3.452 10.208,3.768 10.208,3.768C10.208,3.768 8.789,4.659 8.341,5.422C7.897,6.183 7.177,7.414 6.922,7.771C6.668,8.132 6.098,8.981 6.266,9.871C6.436,10.76 7.092,11.099 7.22,11.29C7.346,11.478 7.623,12.877 7.707,13.132C7.791,13.387 7.877,13.811 7.896,14.003C7.918,14.191 7.852,14.34 7.918,14.573C7.982,14.806 7.982,15.018 7.982,15.018C7.982,15.018 7.475,15.613 7.112,15.845C6.754,16.076 6.604,16.224 6.393,16.224C6.18,16.224 5.969,16.247 5.885,16.394C5.799,16.543 5.799,16.713 5.863,16.924C5.926,17.136 6.18,17.919 6.137,18.153C6.104,18.333 6.047,18.54 6.041,18.681L5.06,18.681L5.06,19.932L13.138,19.932L13.138,18.681L12.103,18.681C12.044,18.575 11.925,18.416 11.688,18.28C11.286,18.046 10.628,17.685 10.586,17.517C10.544,17.347 10.733,16.606 10.966,15.866C11.2,15.123 11.222,14.973 11.222,14.973C11.222,14.973 11.688,14.678 11.792,14.36C11.898,14.042 11.922,13.637 11.942,13.577C11.963,13.514 13.043,12.412 13.192,11.477C13.339,10.545 13.381,10.228 13.489,9.869C13.593,9.51 13.659,9.552 13.701,9.191C13.743,8.83 13.743,8.51 13.743,8.51C13.743,8.51 14.059,7.918 13.955,7.451C13.85,6.989 13.682,6.989 13.64,6.564C13.596,6.142 13.574,5.802 13.766,5.717C13.956,5.632 13.934,5.568 14.21,5.568C14.482,5.568 14.72,5.613 14.825,5.506C14.93,5.402 15.65,5.209 15.82,4.469C15.991,3.726 15.355,3.196 14.89,3.196ZM8.215,17.833C8.11,18.089 7.834,18.238 7.814,18.386C7.803,18.462 7.78,18.583 7.76,18.682L6.987,18.682C7.008,18.258 7.091,17.466 7.176,17.262C7.281,17.01 7.176,16.989 7.475,16.776C7.77,16.564 8.15,16.375 8.15,16.375C8.15,16.375 8.323,17.58 8.215,17.833ZM10.358,2.321C10.441,2.385 10.702,2.622 11.088,2.734C11.527,2.863 11.766,3.04 11.957,3.29C12.146,3.544 12.303,3.852 12.303,3.852C12.303,3.852 11.846,3.288 11.594,3.144C11.346,3 10.655,2.649 10.336,2.303C10.334,2.3 10.348,2.311 10.358,2.321ZM10.607,11.442C10.519,11.332 10.073,10.718 10.073,10.718C10.073,10.718 10.841,11.455 11.04,11.743C11.241,12.031 11.483,12.443 11.483,12.443C11.483,12.443 10.695,11.553 10.607,11.442ZM12.494,10.051C12.431,10.263 12.431,10.58 12.305,10.75C12.177,10.918 12.049,11.47 11.987,11.684C11.925,11.895 11.627,12.425 11.627,12.425C11.627,12.425 11.287,11.788 10.61,11.11C9.931,10.434 9.699,10.052 9.723,9.755C9.741,9.459 9.911,8.887 10.145,8.761C10.376,8.634 10.951,8.464 11.182,8.336C11.416,8.21 11.562,8.189 11.71,8.125C11.858,8.063 12.621,8.104 12.621,8.104C12.621,8.104 12.517,8.506 12.536,8.886C12.559,9.269 12.559,9.84 12.494,10.051ZM15.709,4.474C15.637,4.787 15.203,5.114 15.203,5.114C15.203,5.114 15.397,4.89 15.56,4.461C15.722,4.031 15.426,3.675 15.426,3.675C15.753,3.852 15.784,4.166 15.709,4.474Z" style="fill:rgb(34,34,34);fill-rule:nonzero;"/>
                </g>
            </g>
        </g>
        <path id="path5326" d="M2.75,70L2.75,95C2.75,100.817 7.433,96.25 13.25,96.25L86.75,96.25C92.567,96.25 97.25,100.817 97.25,95L97.25,70L2.75,70Z" style="fill:rgb(34,34,34);fill-rule:nonzero;"/>
        <g id="Text" transform="matrix(0.501084,0,0,0.501084,17.3409,-0.166712)">
            <g transform="matrix(31.9308,0,0,31.9308,-13.6057,177.434)">
                <path d="M0.52,-0.699L0.676,-0.699L0.676,0L0.52,0L0.52,-0.275L0.242,-0.275L0.242,0L0.086,0L0.086,-0.699L0.242,-0.699L0.242,-0.407L0.52,-0.407L0.52,-0.699Z" style="fill:rgb(255,238,238);fill-rule:nonzero;"/>
            </g>
            <g transform="matrix(31.9308,0,0,31.9308,10.7255,177.434)">
                <rect x="0.086" y="-0.699" width="0.156" height="0.699" style="fill:rgb(255,238,238);fill-rule:nonzero;"/>
            </g>
            <g transform="matrix(31.9308,0,0,31.9308,21.1988,177.434)">
                <path d="M0.311,-0.578C0.285,-0.578 0.265,-0.572 0.25,-0.56C0.234,-0.547 0.227,-0.531 0.227,-0.51C0.227,-0.49 0.236,-0.474 0.255,-0.462C0.273,-0.45 0.315,-0.436 0.382,-0.42C0.448,-0.403 0.499,-0.379 0.536,-0.346C0.573,-0.313 0.591,-0.266 0.591,-0.203C0.591,-0.14 0.568,-0.09 0.521,-0.051C0.473,-0.012 0.412,0.008 0.335,0.008C0.224,0.008 0.125,-0.033 0.036,-0.115L0.129,-0.229C0.204,-0.163 0.274,-0.13 0.338,-0.13C0.367,-0.13 0.389,-0.136 0.406,-0.149C0.422,-0.161 0.43,-0.178 0.43,-0.199C0.43,-0.22 0.421,-0.236 0.404,-0.249C0.387,-0.261 0.352,-0.273 0.301,-0.286C0.22,-0.305 0.16,-0.331 0.123,-0.362C0.085,-0.393 0.066,-0.441 0.066,-0.507C0.066,-0.574 0.09,-0.625 0.138,-0.661C0.185,-0.697 0.245,-0.715 0.316,-0.715C0.363,-0.715 0.409,-0.707 0.456,-0.691C0.503,-0.675 0.543,-0.652 0.578,-0.623L0.499,-0.509C0.438,-0.555 0.376,-0.578 0.311,-0.578Z" style="fill:rgb(255,238,238);fill-rule:nonzero;"/>
            </g>
            <g transform="matrix(31.9308,0,0,31.9308,41.3791,177.434)">
                <path d="M0.382,-0.564L0.382,0L0.226,0L0.226,-0.564L0.028,-0.564L0.028,-0.699L0.58,-0.699L0.58,-0.564L0.382,-0.564Z" style="fill:rgb(255,238,238);fill-rule:nonzero;"/>
            </g>
            <g transform="matrix(31.9308,0,0,31.9308,60.1863,177.434)">
                <path d="M0.621,-0.354C0.621,-0.416 0.601,-0.469 0.561,-0.513C0.521,-0.557 0.472,-0.579 0.413,-0.579C0.355,-0.579 0.306,-0.557 0.266,-0.513C0.226,-0.469 0.206,-0.416 0.206,-0.354C0.206,-0.291 0.226,-0.238 0.266,-0.195C0.306,-0.151 0.355,-0.129 0.413,-0.129C0.472,-0.129 0.521,-0.151 0.561,-0.195C0.601,-0.238 0.621,-0.291 0.621,-0.354ZM0.674,-0.097C0.603,-0.028 0.516,0.007 0.413,0.007C0.31,0.007 0.223,-0.028 0.152,-0.097C0.081,-0.166 0.046,-0.251 0.046,-0.354C0.046,-0.457 0.081,-0.543 0.152,-0.612C0.223,-0.681 0.31,-0.715 0.413,-0.715C0.516,-0.715 0.603,-0.681 0.674,-0.612C0.745,-0.543 0.78,-0.457 0.78,-0.354C0.78,-0.251 0.745,-0.166 0.674,-0.097Z" style="fill:rgb(255,238,238);fill-rule:nonzero;"/>
            </g>
            <g transform="matrix(31.9308,0,0,31.9308,86.5611,177.434)">
                <path d="M0.653,-0.467C0.653,-0.355 0.609,-0.283 0.52,-0.25L0.697,0L0.505,0L0.35,-0.223L0.242,-0.223L0.242,0L0.086,0L0.086,-0.699L0.351,-0.699C0.46,-0.699 0.537,-0.681 0.584,-0.644C0.63,-0.607 0.653,-0.548 0.653,-0.467ZM0.356,-0.358C0.409,-0.358 0.446,-0.367 0.465,-0.384C0.484,-0.401 0.494,-0.429 0.494,-0.467C0.494,-0.504 0.484,-0.53 0.464,-0.544C0.444,-0.558 0.409,-0.565 0.359,-0.565L0.242,-0.565L0.242,-0.358L0.356,-0.358Z" style="fill:rgb(255,238,238);fill-rule:nonzero;"/>
            </g>
            <g transform="matrix(31.9308,0,0,31.9308,109.775,177.434)">
                <rect x="0.086" y="-0.699" width="0.156" height="0.699" style="fill:rgb(255,238,238);fill-rule:nonzero;"/>
            </g>
            <g transform="matrix(31.9308,0,0,31.9308,120.248,177.434)">
                <path d="M0.407,-0.138C0.484,-0.138 0.546,-0.168 0.595,-0.229L0.695,-0.126C0.616,-0.037 0.522,0.008 0.414,0.008C0.307,0.008 0.218,-0.026 0.149,-0.094C0.079,-0.162 0.044,-0.248 0.044,-0.352C0.044,-0.455 0.08,-0.542 0.151,-0.611C0.222,-0.68 0.308,-0.715 0.411,-0.715C0.526,-0.715 0.622,-0.671 0.699,-0.584L0.602,-0.474C0.553,-0.535 0.491,-0.566 0.418,-0.566C0.359,-0.566 0.309,-0.547 0.268,-0.508C0.226,-0.47 0.205,-0.419 0.205,-0.354C0.205,-0.289 0.225,-0.236 0.264,-0.197C0.303,-0.158 0.351,-0.138 0.407,-0.138Z" style="fill:rgb(255,238,238);fill-rule:nonzero;"/>
            </g>
        </g>
    </g>
</svg>
