<?xml version="1.0" encoding="UTF-8" standalone="no"?>
<!DOCTYPE svg PUBLIC "-//W3C//DTD SVG 1.1//EN" "http://www.w3.org/Graphics/SVG/1.1/DTD/svg11.dtd">
<svg width="200" height="200" viewBox="0 0 200 200" version="1.1" xmlns="http://www.w3.org/2000/svg" xmlns:xlink="http://www.w3.org/1999/xlink" xml:space="preserve" xmlns:serif="http://www.serif.com/" style="fill-rule:evenodd;clip-rule:evenodd;stroke-linejoin:round;stroke-miterlimit:2;">
    <g id="Idealist" transform="matrix(2,0,0,2,0,0)">
        <path id="rect5322" d="M100,3.75C100,1.68 98.32,0 96.25,0L3.75,0C1.68,0 0,1.68 0,3.75L0,96.25C0,98.32 1.68,100 3.75,100L96.25,100C98.32,100 100,98.32 100,96.25L100,3.75Z" style="fill:rgb(34,34,34);"/>
        <path id="rect5324" d="M95,7.5C95,6.12 93.88,5 92.5,5L7.5,5C6.12,5 5,6.12 5,7.5L5,92.5C5,93.88 6.12,95 7.5,95L92.5,95C93.88,95 95,93.88 95,92.5L95,7.5Z" style="fill:rgb(106,176,1);"/>
        <g id="_86d02f03357f848264de0b23a958398c" serif:id="86d02f03357f848264de0b23a958398c" transform="matrix(0.0628013,0,0,0.0628013,49.9153,45.902)">
            <g transform="matrix(1,0,0,1,-500,-500)">
                <g>
                    <g>
                        <path d="M990,294.9C990,214.7 919.7,149.4 833.2,149.1C822.8,77.9 756.9,22.9 677.2,22.9C647.9,22.9 619.8,30.3 595.1,44.4C567.5,24.6 533.8,13.8 498.8,13.8C439.7,13.9 385.7,45 359,93C345.5,89.6 331.7,87.9 317.6,87.9C230.9,87.9 160.3,153.3 160.3,233.7C160.3,239.4 160.7,245.1 161.4,250.9C127.4,278.6 108.2,317.7 108.2,360C108.2,420.1 147.2,472.9 206.4,495.1C220.3,563.5 284.5,613.6 361,613.6C386.7,613.6 411.7,607.8 434.3,596.8C461.7,616.3 495.2,626.9 529.9,626.9C576.8,626.9 620.8,607.6 650.6,574.6C670.9,583 692.8,587.5 715,587.5C801.7,587.5 872.3,522.1 872.3,441.8C872.3,439.9 872.3,438.1 872.1,436.2C940.5,419.5 990,361.8 990,294.9ZM848.2,400.5L827.5,403L831.3,423.5C832.5,430 833.1,435.8 833.1,441.4C833.1,500.2 780,548.1 714.9,548.1C693.7,548.1 672.7,542.8 654.2,532.9L639.1,524.7L629.1,538.7C607.1,569.3 570,587.6 529.8,587.6C499.7,587.6 470.9,577.2 448.8,558.4L438.2,549.3L426.2,556.5C406.8,568.1 384.2,574.3 361,574.3C299.8,574.3 249.2,532.9 243.3,478L241.9,465L229.4,461.4C180.3,447.1 147.3,406.3 147.3,359.8C147.3,326.5 164.3,295.6 193.8,275.2L204.6,267.7L201.7,254.8C200.2,247.9 199.4,240.7 199.4,233.6C199.4,174.7 252.4,126.9 317.7,126.9C333.1,126.9 348.2,129.6 362.7,135L380.6,141.6L387.6,123.9C404.4,81.5 449.2,53 498.9,53C529.6,53 558.8,63.7 581.1,83.1L592.6,93.2L605.1,84.4C626,69.7 651,62 677.3,62C742.5,62 795.6,109.9 795.7,167.6L795.6,191.9L817.5,189.3C822.6,188.7 827.6,188.2 832.9,188.2C898.1,188.2 951.2,236.1 951.2,294.9C951,348.1 906.8,393.6 848.2,400.5Z" style="fill:rgb(34,34,34);fill-rule:nonzero;"/>
                        <path d="M254.5,642.7C191,642.7 139.4,685.9 139.4,739.1C139.4,792.3 191,835.4 254.5,835.4C317.9,835.4 369.6,792.2 369.6,739.1C369.6,686 318,642.7 254.5,642.7ZM254.5,796.4C212.5,796.4 178.5,770.7 178.5,739C178.5,707.4 212.5,681.7 254.5,681.7C296.4,681.7 330.6,707.4 330.6,739C330.6,770.7 296.4,796.4 254.5,796.4Z" style="fill:rgb(34,34,34);fill-rule:nonzero;"/>
                        <path d="M95.3,841.3C48.3,841.3 10,873.8 10,913.7C10,953.6 48.3,986.1 95.3,986.1C142.4,986.1 180.6,953.6 180.6,913.7C180.6,873.8 142.4,841.3 95.3,841.3ZM95.3,947.1C70.2,947.1 49,931.8 49,913.7C49,895.6 70.2,880.3 95.3,880.3C120.4,880.3 141.6,895.6 141.6,913.7C141.6,931.8 120.4,947.1 95.3,947.1Z" style="fill:rgb(34,34,34);fill-rule:nonzero;"/>
                    </g>
                </g>
            </g>
        </g>
        <path id="path5326" d="M2.75,70L2.75,95C2.75,100.817 7.433,96.25 13.25,96.25L86.75,96.25C92.567,96.25 97.25,100.817 97.25,95L97.25,70L2.75,70Z" style="fill:rgb(34,34,34);fill-rule:nonzero;"/>
        <g transform="matrix(0.466008,0,0,0.501084,17.209,-0.166712)">
            <g id="Text" transform="matrix(31.9308,0,0,31.9308,-3.76052,177.434)">
                <rect x="0.086" y="-0.699" width="0.156" height="0.699" style="fill:rgb(255,238,238);fill-rule:nonzero;"/>
            </g>
            <g transform="matrix(31.9308,0,0,31.9308,6.71278,177.434)">
                <path d="M0.333,-0.699C0.458,-0.699 0.553,-0.669 0.62,-0.608C0.687,-0.547 0.72,-0.462 0.72,-0.353C0.72,-0.244 0.688,-0.158 0.623,-0.095C0.558,-0.032 0.458,0 0.325,0L0.086,0L0.086,-0.699L0.333,-0.699ZM0.341,-0.138C0.412,-0.138 0.467,-0.156 0.505,-0.192C0.544,-0.228 0.563,-0.28 0.563,-0.349C0.563,-0.418 0.544,-0.47 0.505,-0.507C0.467,-0.545 0.408,-0.563 0.329,-0.563L0.242,-0.563L0.242,-0.138L0.341,-0.138Z" style="fill:rgb(255,238,238);fill-rule:nonzero;"/>
            </g>
            <g transform="matrix(31.9308,0,0,31.9308,31.2676,177.434)">
                <path d="M0.59,-0.699L0.59,-0.56L0.242,-0.56L0.242,-0.416L0.555,-0.416L0.555,-0.283L0.242,-0.283L0.242,-0.138L0.601,-0.138L0.601,0L0.086,0L0.086,-0.699L0.59,-0.699Z" style="fill:rgb(255,238,238);fill-rule:nonzero;"/>
            </g>
            <g transform="matrix(31.9308,0,0,31.9308,52.1503,177.434)">
                <path d="M0.584,0L0.519,-0.151L0.226,-0.151L0.161,0L-0.005,0L0.297,-0.699L0.448,-0.699L0.75,0L0.584,0ZM0.373,-0.491L0.285,-0.288L0.46,-0.288L0.373,-0.491Z" style="fill:rgb(255,238,238);fill-rule:nonzero;"/>
            </g>
            <g transform="matrix(31.9308,0,0,31.9308,75.9387,177.434)">
                <path d="M0.086,0L0.086,-0.699L0.242,-0.699L0.242,-0.139L0.54,-0.139L0.54,0L0.086,0Z" style="fill:rgb(255,238,238);fill-rule:nonzero;"/>
            </g>
            <g transform="matrix(31.9308,0,0,31.9308,94.0754,177.434)">
                <rect x="0.086" y="-0.699" width="0.156" height="0.699" style="fill:rgb(255,238,238);fill-rule:nonzero;"/>
            </g>
            <g transform="matrix(31.9308,0,0,31.9308,104.549,177.434)">
                <path d="M0.311,-0.578C0.285,-0.578 0.265,-0.572 0.25,-0.56C0.234,-0.547 0.227,-0.531 0.227,-0.51C0.227,-0.49 0.236,-0.474 0.255,-0.462C0.273,-0.45 0.315,-0.436 0.382,-0.42C0.448,-0.403 0.499,-0.379 0.536,-0.346C0.573,-0.313 0.591,-0.266 0.591,-0.203C0.591,-0.14 0.568,-0.09 0.521,-0.051C0.473,-0.012 0.412,0.008 0.335,0.008C0.224,0.008 0.125,-0.033 0.036,-0.115L0.129,-0.229C0.204,-0.163 0.274,-0.13 0.338,-0.13C0.367,-0.13 0.389,-0.136 0.406,-0.149C0.422,-0.161 0.43,-0.178 0.43,-0.199C0.43,-0.22 0.421,-0.236 0.404,-0.249C0.387,-0.261 0.352,-0.273 0.301,-0.286C0.22,-0.305 0.16,-0.331 0.123,-0.362C0.085,-0.393 0.066,-0.441 0.066,-0.507C0.066,-0.574 0.09,-0.625 0.138,-0.661C0.185,-0.697 0.245,-0.715 0.316,-0.715C0.363,-0.715 0.409,-0.707 0.456,-0.691C0.503,-0.675 0.543,-0.652 0.578,-0.623L0.499,-0.509C0.438,-0.555 0.376,-0.578 0.311,-0.578Z" style="fill:rgb(255,238,238);fill-rule:nonzero;"/>
            </g>
            <g transform="matrix(31.9308,0,0,31.9308,124.715,177.434)">
                <path d="M0.382,-0.564L0.382,0L0.226,0L0.226,-0.564L0.028,-0.564L0.028,-0.699L0.58,-0.699L0.58,-0.564L0.382,-0.564Z" style="fill:rgb(255,238,238);fill-rule:nonzero;"/>
            </g>
        </g>
    </g>
</svg>
