<?xml version="1.0" encoding="UTF-8" standalone="no"?>
<!DOCTYPE svg PUBLIC "-//W3C//DTD SVG 1.1//EN" "http://www.w3.org/Graphics/SVG/1.1/DTD/svg11.dtd">
<svg width="200" height="200" viewBox="0 0 200 200" version="1.1" xmlns="http://www.w3.org/2000/svg" xmlns:xlink="http://www.w3.org/1999/xlink" xml:space="preserve" xmlns:serif="http://www.serif.com/" style="fill-rule:evenodd;clip-rule:evenodd;stroke-linejoin:round;stroke-miterlimit:2;">
    <g id="Industrial" transform="matrix(2,0,0,2,0,0)">
        <path id="rect5322" d="M100,3.75C100,1.68 98.32,0 96.25,0L3.75,0C1.68,0 0,1.68 0,3.75L0,96.25C0,98.32 1.68,100 3.75,100L96.25,100C98.32,100 100,98.32 100,96.25L100,3.75Z" style="fill:rgb(34,34,34);"/>
        <path id="rect5324" d="M95,7.5C95,6.12 93.88,5 92.5,5L7.5,5C6.12,5 5,6.12 5,7.5L5,92.5C5,93.88 6.12,95 7.5,95L92.5,95C93.88,95 95,93.88 95,92.5L95,7.5Z" style="fill:rgb(255,116,0);"/>
        <g id="_10bc43c3b183653c2d26236c6c225d38" serif:id="10bc43c3b183653c2d26236c6c225d38" transform="matrix(0.0645,0,0,0.0645,50,44.5)">
            <g transform="matrix(1,0,0,1,-500,-500)">
                <path d="M467.4,499.8C467.4,461.5 454.6,428.8 429.1,401.7C403.6,374.6 372.8,361 336.7,361C300.7,361 269.9,374.6 244.3,401.7C218.8,428.8 206,461.5 206,499.8C206,538.1 218.8,570.8 244.3,597.9C269.8,625 300.6,638.6 336.7,638.6C372.7,638.6 403.5,625 429.1,597.9C454.7,570.8 467.4,538.1 467.4,499.8ZM859.3,777.3C859.3,758.5 852.8,742.2 839.9,728.5C827,714.8 811.7,707.9 794,707.9C776.3,707.9 761,714.8 748.1,728.5C735.2,742.2 728.7,758.5 728.7,777.3C728.7,796.4 735.1,812.8 747.8,826.4C760.6,840 776,846.7 794,846.7C812,846.7 827.4,839.9 840.2,826.4C852.9,812.8 859.3,796.5 859.3,777.3ZM859.3,222.2C859.3,203.4 852.8,187.1 839.9,173.4C827,159.7 811.7,152.8 794,152.8C776.3,152.8 761,159.7 748.1,173.4C735.2,187.1 728.7,203.4 728.7,222.2C728.7,241.3 735.1,257.7 747.8,271.3C760.6,284.9 776,291.6 794,291.6C812,291.6 827.4,284.8 840.2,271.3C852.9,257.7 859.3,241.3 859.3,222.2ZM663.4,450.5L663.4,550.8C663.4,554.4 662.2,557.9 659.8,561.4C657.4,564.8 654.7,566.7 651.6,567.1L572.5,580.1C568.8,592.8 563.3,606.5 556.2,621.3C567.8,638.7 583.1,659.5 602.1,683.7C604.5,687.3 605.7,690.9 605.7,694.6C605.7,698.9 604.5,702.4 602.1,704.9C594.3,715.7 580.3,731.9 560,753.4C539.7,774.9 526.4,785.6 519.9,785.6C516.2,785.6 512.6,784.3 509.2,781.8L450.5,733C437.9,739.9 424.8,745.5 411.2,749.8C407.5,788.8 403.6,816.8 399.5,833.8C397.1,842.5 392,846.8 384.2,846.8L289.3,846.8C285.6,846.8 282.2,845.4 279.1,842.7C276,840 274.3,836.8 274,833.2L262.3,750.3C250.7,746.7 238,741.1 224,733.5L163.8,781.8C161.4,784.4 158,785.6 153.6,785.6C149.9,785.6 146.3,784.2 142.9,781.3C93.9,733.2 69.4,704.3 69.4,694.5C69.4,691.3 70.6,687.8 73,684.2C76.4,679.1 83.4,669.6 93.9,655.5C104.5,641.4 112.5,630.4 117.9,622.4C110.1,606.5 104.1,591.7 100,578L22.4,565C19,564.6 16.1,562.9 13.7,559.8C11.3,556.7 10.1,553.2 10.1,549.2L10.1,448.9C10.1,445.3 11.3,441.8 13.7,438.3C16.1,434.9 18.8,433 21.9,432.6L101,419.6C104.7,406.9 110.2,393.2 117.3,378.4C105.6,361 90.3,340.2 71.3,316C68.9,312 67.7,308.4 67.7,305.1C67.7,300.8 68.9,297.1 71.3,294.2C78.8,283.4 92.7,267.3 113.1,245.9C133.5,224.5 147,213.9 153.4,213.9C157.1,213.9 160.7,215.2 164.1,217.7L222.8,266.5C234.4,260 247.5,254.2 262.1,249.1C265.8,210.1 269.7,182.2 273.8,165.6C276.2,156.9 281.3,152.6 289.1,152.6L384,152.6C387.7,152.6 391.1,154 394.2,156.7C397.3,159.4 399,162.6 399.3,166.2L411,249.1C422.6,252.7 435.3,258.3 449.3,265.9L509.5,217.6C512.2,215 515.6,213.8 519.7,213.8C523.4,213.8 527,215.2 530.4,218.1C579.4,266.2 603.9,295.1 603.9,304.9C603.9,308.1 602.7,311.6 600.3,315.2C596.2,321 589.1,330.7 578.9,344.5C568.7,358.2 561,369.1 555.9,377C563.7,394.4 569.5,409.2 573.3,421.4L650.9,433.8C654.3,434.5 657.2,436.4 659.6,439.5C662.1,442.9 663.3,446.4 663.4,450.5ZM989.9,739.4L989.9,815.3C989.9,821.1 964.6,826.7 913.9,832.1C909.8,841.9 904.7,851.2 898.6,860.3C915.9,901.1 924.6,926.1 924.6,935.1C924.6,936.6 923.9,937.8 922.5,938.9C881,964.6 859.9,977.4 859.2,977.4C856.5,977.4 848.7,968.9 835.7,951.9C822.7,934.9 813.9,922.6 809.2,915C802.4,915.7 797.3,916.1 793.9,916.1C790.5,916.1 785.4,915.7 778.6,915C773.8,922.6 765,934.9 752.1,951.9C739.2,968.9 731.4,977.4 728.6,977.4C727.9,977.4 706.8,964.6 665.3,938.9C663.9,937.8 663.2,936.5 663.2,935.1C663.2,926.1 671.9,901.1 689.2,860.3C683.1,851.3 678,841.9 673.9,832.1C623.2,826.7 597.9,821.1 597.9,815.3L597.9,739.4C597.9,733.6 623.2,728 673.9,722.6C678.3,712.1 683.4,702.7 689.2,694.4C671.9,653.6 663.2,628.6 663.2,619.6C663.2,618.1 663.9,616.9 665.3,615.8C666.7,615.1 672.6,611.4 683.2,604.9C693.8,598.4 703.8,592.2 713.3,586.4C722.8,580.6 727.9,577.7 728.6,577.7C731.3,577.7 739.1,586.1 752.1,602.9C765.1,619.7 773.9,631.9 778.6,639.5C785.4,638.8 790.5,638.4 793.9,638.4C797.3,638.4 802.4,638.8 809.2,639.5C826.5,613.8 842.2,593.6 856.1,578.8L859.2,577.7C860.6,577.7 881.7,590.4 922.5,615.7C923.9,616.8 924.6,618.1 924.6,619.5C924.6,628.5 915.9,653.5 898.6,694.3C904.4,702.6 909.5,712 913.9,722.5C964.7,727.9 990,733.5 989.9,739.4ZM989.9,184.2L989.9,260.1C989.9,265.9 964.6,271.5 913.9,276.9C909.8,286.7 904.7,296 898.6,305.1C915.9,345.9 924.6,370.9 924.6,379.9C924.6,381.4 923.9,382.6 922.5,383.7C881,409.4 859.9,422.2 859.2,422.2C856.5,422.2 848.7,413.7 835.7,396.7C822.7,379.7 813.9,367.4 809.2,359.8C802.4,360.5 797.3,360.9 793.9,360.9C790.5,360.9 785.4,360.5 778.6,359.8C773.8,367.4 765,379.7 752.1,396.7C739.2,413.7 731.4,422.2 728.6,422.2C727.9,422.2 706.8,409.4 665.3,383.7C663.9,382.6 663.2,381.3 663.2,379.9C663.2,370.9 671.9,345.9 689.2,305.1C683.1,296.1 678,286.7 673.9,276.9C623.2,271.5 597.9,265.9 597.9,260.1L597.9,184.2C597.9,178.4 623.2,172.8 673.9,167.4C678.3,156.9 683.4,147.5 689.2,139.2C671.9,98.4 663.2,73.4 663.2,64.4C663.2,62.9 663.9,61.7 665.3,60.6C666.7,59.9 672.6,56.2 683.2,49.7C693.8,43.2 703.8,37 713.3,31.2C722.8,25.4 727.9,22.5 728.6,22.5C731.3,22.5 739.1,30.9 752.1,47.7C765.1,64.5 773.9,76.7 778.6,84.3C785.4,83.6 790.5,83.2 793.9,83.2C797.3,83.2 802.4,83.6 809.2,84.3C826.5,58.6 842.2,38.4 856.1,23.6L859.2,22.5C860.6,22.5 881.7,35.2 922.5,60.5C923.9,61.6 924.6,62.9 924.6,64.3C924.6,73.3 915.9,98.3 898.6,139.1C904.4,147.4 909.5,156.8 913.9,167.3C964.7,172.8 990,178.4 989.9,184.2Z" style="fill:rgb(34,34,34);fill-rule:nonzero;"/>
            </g>
        </g>
        <path id="path5326" d="M2.75,70L2.75,95C2.75,100.817 7.433,96.25 13.25,96.25L86.75,96.25C92.567,96.25 97.25,100.817 97.25,95L97.25,70L2.75,70Z" style="fill:rgb(34,34,34);fill-rule:nonzero;"/>
        <g transform="matrix(0.435943,0,0,0.501084,15.9006,-0.166712)">
            <g id="Text" transform="matrix(31.9308,0,0,31.9308,-22.111,177.434)">
                <rect x="0.086" y="-0.699" width="0.156" height="0.699" style="fill:rgb(255,238,238);fill-rule:nonzero;"/>
            </g>
            <g transform="matrix(31.9308,0,0,31.9308,-11.6377,177.434)">
                <path d="M0.575,-0.699L0.731,-0.699L0.731,0L0.575,0L0.242,-0.438L0.242,0L0.086,0L0.086,-0.699L0.232,-0.699L0.575,-0.249L0.575,-0.699Z" style="fill:rgb(255,238,238);fill-rule:nonzero;"/>
            </g>
            <g transform="matrix(31.9308,0,0,31.9308,14.4498,177.434)">
                <path d="M0.333,-0.699C0.458,-0.699 0.553,-0.669 0.62,-0.608C0.687,-0.547 0.72,-0.462 0.72,-0.353C0.72,-0.244 0.688,-0.158 0.623,-0.095C0.558,-0.032 0.458,0 0.325,0L0.086,0L0.086,-0.699L0.333,-0.699ZM0.341,-0.138C0.412,-0.138 0.467,-0.156 0.505,-0.192C0.544,-0.228 0.563,-0.28 0.563,-0.349C0.563,-0.418 0.544,-0.47 0.505,-0.507C0.467,-0.545 0.408,-0.563 0.329,-0.563L0.242,-0.563L0.242,-0.138L0.341,-0.138Z" style="fill:rgb(255,238,238);fill-rule:nonzero;"/>
            </g>
            <g transform="matrix(31.9308,0,0,31.9308,39.0045,177.434)">
                <path d="M0.271,-0.181C0.297,-0.148 0.332,-0.132 0.376,-0.132C0.42,-0.132 0.455,-0.148 0.481,-0.181C0.506,-0.213 0.519,-0.257 0.519,-0.313L0.519,-0.699L0.675,-0.699L0.675,-0.308C0.675,-0.207 0.647,-0.129 0.591,-0.075C0.535,-0.02 0.463,0.007 0.376,0.007C0.289,0.007 0.217,-0.02 0.161,-0.075C0.104,-0.13 0.076,-0.207 0.076,-0.308L0.076,-0.699L0.232,-0.699L0.232,-0.313C0.232,-0.257 0.245,-0.213 0.271,-0.181Z" style="fill:rgb(255,238,238);fill-rule:nonzero;"/>
            </g>
            <g transform="matrix(31.9308,0,0,31.9308,62.9846,177.434)">
                <path d="M0.311,-0.578C0.285,-0.578 0.265,-0.572 0.25,-0.56C0.234,-0.547 0.227,-0.531 0.227,-0.51C0.227,-0.49 0.236,-0.474 0.255,-0.462C0.273,-0.45 0.315,-0.436 0.382,-0.42C0.448,-0.403 0.499,-0.379 0.536,-0.346C0.573,-0.313 0.591,-0.266 0.591,-0.203C0.591,-0.14 0.568,-0.09 0.521,-0.051C0.473,-0.012 0.412,0.008 0.335,0.008C0.224,0.008 0.125,-0.033 0.036,-0.115L0.129,-0.229C0.204,-0.163 0.274,-0.13 0.338,-0.13C0.367,-0.13 0.389,-0.136 0.406,-0.149C0.422,-0.161 0.43,-0.178 0.43,-0.199C0.43,-0.22 0.421,-0.236 0.404,-0.249C0.387,-0.261 0.352,-0.273 0.301,-0.286C0.22,-0.305 0.16,-0.331 0.123,-0.362C0.085,-0.393 0.066,-0.441 0.066,-0.507C0.066,-0.574 0.09,-0.625 0.138,-0.661C0.185,-0.697 0.245,-0.715 0.316,-0.715C0.363,-0.715 0.409,-0.707 0.456,-0.691C0.503,-0.675 0.543,-0.652 0.578,-0.623L0.499,-0.509C0.438,-0.555 0.376,-0.578 0.311,-0.578Z" style="fill:rgb(255,238,238);fill-rule:nonzero;"/>
            </g>
            <g transform="matrix(31.9308,0,0,31.9308,83.1362,177.434)">
                <path d="M0.382,-0.564L0.382,0L0.226,0L0.226,-0.564L0.028,-0.564L0.028,-0.699L0.58,-0.699L0.58,-0.564L0.382,-0.564Z" style="fill:rgb(255,238,238);fill-rule:nonzero;"/>
            </g>
            <g transform="matrix(31.9308,0,0,31.9308,102.55,177.434)">
                <path d="M0.653,-0.467C0.653,-0.355 0.609,-0.283 0.52,-0.25L0.697,0L0.505,0L0.35,-0.223L0.242,-0.223L0.242,0L0.086,0L0.086,-0.699L0.351,-0.699C0.46,-0.699 0.537,-0.681 0.584,-0.644C0.63,-0.607 0.653,-0.548 0.653,-0.467ZM0.356,-0.358C0.409,-0.358 0.446,-0.367 0.465,-0.384C0.484,-0.401 0.494,-0.429 0.494,-0.467C0.494,-0.504 0.484,-0.53 0.464,-0.544C0.444,-0.558 0.409,-0.565 0.359,-0.565L0.242,-0.565L0.242,-0.358L0.356,-0.358Z" style="fill:rgb(255,238,238);fill-rule:nonzero;"/>
            </g>
            <g transform="matrix(31.9308,0,0,31.9308,125.764,177.434)">
                <rect x="0.086" y="-0.699" width="0.156" height="0.699" style="fill:rgb(255,238,238);fill-rule:nonzero;"/>
            </g>
            <g transform="matrix(31.9308,0,0,31.9308,136.237,177.434)">
                <path d="M0.584,0L0.519,-0.151L0.226,-0.151L0.161,0L-0.005,0L0.297,-0.699L0.448,-0.699L0.75,0L0.584,0ZM0.373,-0.491L0.285,-0.288L0.46,-0.288L0.373,-0.491Z" style="fill:rgb(255,238,238);fill-rule:nonzero;"/>
            </g>
            <g transform="matrix(31.9308,0,0,31.9308,160.026,177.434)">
                <path d="M0.086,0L0.086,-0.699L0.242,-0.699L0.242,-0.139L0.54,-0.139L0.54,0L0.086,0Z" style="fill:rgb(255,238,238);fill-rule:nonzero;"/>
            </g>
        </g>
    </g>
</svg>
