<?xml version="1.0" encoding="UTF-8" standalone="no"?>
<!DOCTYPE svg PUBLIC "-//W3C//DTD SVG 1.1//EN" "http://www.w3.org/Graphics/SVG/1.1/DTD/svg11.dtd">
<svg width="200" height="200" viewBox="0 0 200 200" version="1.1" xmlns="http://www.w3.org/2000/svg" xmlns:xlink="http://www.w3.org/1999/xlink" xml:space="preserve" xmlns:serif="http://www.serif.com/" style="fill-rule:evenodd;clip-rule:evenodd;stroke-linejoin:round;stroke-miterlimit:2;">
    <g id="Market" transform="matrix(2,0,0,2,0,0)">
        <path id="rect5322" d="M100,3.75C100,1.68 98.32,0 96.25,0L3.75,0C1.68,0 0,1.68 0,3.75L0,96.25C0,98.32 1.68,100 3.75,100L96.25,100C98.32,100 100,98.32 100,96.25L100,3.75Z" style="fill:rgb(34,34,34);"/>
        <path id="rect5324" d="M95,7.5C95,6.12 93.88,5 92.5,5L7.5,5C6.12,5 5,6.12 5,7.5L5,92.5C5,93.88 6.12,95 7.5,95L92.5,95C93.88,95 95,93.88 95,92.5L95,7.5Z" style="fill:rgb(4,140,244);"/>
        <path id="path5326" d="M2.75,70L2.75,95C2.75,100.817 7.433,96.25 13.25,96.25L86.75,96.25C92.567,96.25 97.25,100.817 97.25,95L97.25,70L2.75,70Z" style="fill:rgb(34,34,34);fill-rule:nonzero;"/>
        <g id="Text" transform="matrix(0.501084,0,0,0.501084,17.3409,-0.166712)">
            <g transform="matrix(31.9308,0,0,31.9308,-5.20794,177.434)">
                <path d="M0.712,-0.44L0.523,-0.058L0.43,-0.058L0.242,-0.44L0.242,0L0.086,0L0.086,-0.699L0.297,-0.699L0.477,-0.315L0.658,-0.699L0.868,-0.699L0.868,0L0.712,0L0.712,-0.44Z" style="fill:rgb(255,238,238);fill-rule:nonzero;"/>
            </g>
            <g transform="matrix(31.9308,0,0,31.9308,25.254,177.434)">
                <path d="M0.584,0L0.519,-0.151L0.226,-0.151L0.161,0L-0.005,0L0.297,-0.699L0.448,-0.699L0.75,0L0.584,0ZM0.373,-0.491L0.285,-0.288L0.46,-0.288L0.373,-0.491Z" style="fill:rgb(255,238,238);fill-rule:nonzero;"/>
            </g>
            <g transform="matrix(31.9308,0,0,31.9308,49.0425,177.434)">
                <path d="M0.653,-0.467C0.653,-0.355 0.609,-0.283 0.52,-0.25L0.697,0L0.505,0L0.35,-0.223L0.242,-0.223L0.242,0L0.086,0L0.086,-0.699L0.351,-0.699C0.46,-0.699 0.537,-0.681 0.584,-0.644C0.63,-0.607 0.653,-0.548 0.653,-0.467ZM0.356,-0.358C0.409,-0.358 0.446,-0.367 0.465,-0.384C0.484,-0.401 0.494,-0.429 0.494,-0.467C0.494,-0.504 0.484,-0.53 0.464,-0.544C0.444,-0.558 0.409,-0.565 0.359,-0.565L0.242,-0.565L0.242,-0.358L0.356,-0.358Z" style="fill:rgb(255,238,238);fill-rule:nonzero;"/>
            </g>
            <g transform="matrix(31.9308,0,0,31.9308,72.2561,177.434)">
                <path d="M0.086,-0.699L0.242,-0.699L0.242,-0.412L0.506,-0.699L0.699,-0.699L0.421,-0.39C0.445,-0.357 0.489,-0.295 0.554,-0.203C0.619,-0.113 0.667,-0.045 0.699,0L0.517,0L0.312,-0.276L0.242,-0.198L0.242,0L0.086,0L0.086,-0.699Z" style="fill:rgb(255,238,238);fill-rule:nonzero;"/>
            </g>
            <g transform="matrix(31.9308,0,0,31.9308,94.927,177.434)">
                <path d="M0.59,-0.699L0.59,-0.56L0.242,-0.56L0.242,-0.416L0.555,-0.416L0.555,-0.283L0.242,-0.283L0.242,-0.138L0.601,-0.138L0.601,0L0.086,0L0.086,-0.699L0.59,-0.699Z" style="fill:rgb(255,238,238);fill-rule:nonzero;"/>
            </g>
            <g transform="matrix(31.9308,0,0,31.9308,115.81,177.434)">
                <path d="M0.382,-0.564L0.382,0L0.226,0L0.226,-0.564L0.028,-0.564L0.028,-0.699L0.58,-0.699L0.58,-0.564L0.382,-0.564Z" style="fill:rgb(255,238,238);fill-rule:nonzero;"/>
            </g>
        </g>
        <g id="path5347" transform="matrix(1,0,0,1,9.10167,1)">
            <path d="M35.536,70L35.468,66.952L33.149,66.567C30.666,66.155 27.37,65.197 25.583,64.368C22.653,63.008 19.637,60.233 18.593,57.934C18.041,56.72 17.925,56.134 17.93,54.572C17.936,52.312 18.496,51.027 20.023,49.768C21.602,48.467 23.409,47.851 25.705,47.832C27.95,47.813 29.363,48.268 30.845,49.489C35.675,53.466 33.054,60.056 26.381,60.707L24.817,60.86L25.498,61.508C26.792,62.74 29.709,63.877 33.344,64.566C35.854,65.042 35.59,66.179 35.59,54.903L35.59,44.994L34.309,44.459C33.604,44.165 32.074,43.525 30.908,43.037C25.441,40.747 21.62,37.394 20.195,33.635C19.079,30.691 19.413,25.898 20.951,22.805C23.092,18.498 28.062,15.217 34.187,14.068L35.59,13.804L35.59,10.926L35.59,8.048L37.543,8.048L37.543,13.613L42.424,13.613L42.424,10.831L42.424,8.048L44.621,8.048L44.621,10.942C44.621,12.533 44.703,13.836 44.804,13.837C45.613,13.845 48.406,14.395 49.916,14.845C56.142,16.698 59.829,19.974 60.18,23.962C60.336,25.726 59.843,27.076 58.576,28.355C57.14,29.805 56.074,30.194 53.529,30.195C51.52,30.197 51.219,30.138 49.997,29.506C48.379,28.669 47.214,27.224 46.802,25.547C46.542,24.488 46.567,24.173 47.019,22.816C47.558,21.199 48.079,20.605 49.912,19.52C50.677,19.068 51.273,18.908 52.29,18.88C53.037,18.861 53.648,18.77 53.649,18.68C53.656,18.096 49.771,16.533 47.183,16.079C46.378,15.937 45.471,15.773 45.167,15.714L44.615,15.607L44.743,33.896L47.137,34.755C52.319,36.614 56.818,38.969 59.23,41.087C62.573,44.021 63.621,45.978 63.83,49.675C64.059,53.731 63.237,56.71 61.051,59.738C59.079,62.471 56.238,64.278 51.856,65.586C50.399,66.021 48.175,66.496 46.914,66.641L44.621,66.905L44.621,73.048L43.522,73.048L42.424,73.048L42.424,70.043L42.424,67.038L39.983,67.038L37.543,67.038L37.543,73.048L36.573,73.048L35.604,73.048L35.536,70ZM41.509,65.037L42.424,65.034L42.424,56.154L42.424,47.273L40.226,46.47C39.017,46.029 37.918,45.668 37.785,45.668C37.628,45.668 37.543,49.085 37.543,55.338L37.543,65.009L38.58,65.098C39.15,65.147 39.837,65.154 40.105,65.114C40.374,65.074 41.005,65.039 41.509,65.038L41.509,65.037ZM47.298,63.753C49.133,62.964 51.269,61.069 51.954,59.623C52.713,58.02 52.722,55.348 51.975,53.807C50.939,51.671 49.228,50.239 45.849,48.677L44.621,48.109L44.621,64.637L45.284,64.486C45.649,64.402 46.555,64.072 47.298,63.753L47.298,63.753ZM42.424,24.298L42.424,15.394L40.899,15.396C40.06,15.398 38.96,15.461 38.455,15.537L37.537,15.676L37.665,31.723L38.275,31.886C38.61,31.975 39.654,32.304 40.593,32.617C41.533,32.93 42.329,33.189 42.363,33.194C42.397,33.198 42.424,29.195 42.424,24.298L42.424,24.298ZM35.59,23.519C35.59,15.287 35.741,15.762 33.496,16.937C31.668,17.893 29.907,19.756 29.376,21.294C28.474,23.911 29.213,26.241 31.611,28.337C32.506,29.119 35.031,30.719 35.407,30.742C35.508,30.748 35.59,27.498 35.59,23.519Z" style="fill:rgb(34,34,34);fill-rule:nonzero;"/>
        </g>
    </g>
</svg>
