<?xml version="1.0" encoding="UTF-8" standalone="no"?>
<!DOCTYPE svg PUBLIC "-//W3C//DTD SVG 1.1//EN" "http://www.w3.org/Graphics/SVG/1.1/DTD/svg11.dtd">
<svg width="200" height="200" viewBox="0 0 200 200" version="1.1" xmlns="http://www.w3.org/2000/svg" xmlns:xlink="http://www.w3.org/1999/xlink" xml:space="preserve" xmlns:serif="http://www.serif.com/" style="fill-rule:evenodd;clip-rule:evenodd;stroke-linejoin:round;stroke-miterlimit:2;">
    <g id="Particular" transform="matrix(2,0,0,2,0,0)">
        <path id="rect5322" d="M100,3.75C100,1.68 98.32,0 96.25,0L3.75,0C1.68,0 0,1.68 0,3.75L0,96.25C0,98.32 1.68,100 3.75,100L96.25,100C98.32,100 100,98.32 100,96.25L100,3.75Z" style="fill:rgb(34,34,34);"/>
        <path id="rect5324" d="M95,7.5C95,6.12 93.88,5 92.5,5L7.5,5C6.12,5 5,6.12 5,7.5L5,92.5C5,93.88 6.12,95 7.5,95L92.5,95C93.88,95 95,93.88 95,92.5L95,7.5Z" style="fill:rgb(255,191,0);"/>
        <g id="_1f9c23217063fe2f9a1b98138e7f2276" serif:id="1f9c23217063fe2f9a1b98138e7f2276" transform="matrix(-1.04083e-17,-0.064,0.064,-1.04083e-17,50,45)">
            <g transform="matrix(1,0,0,1,-500,-500)">
                <g>
                    <path d="M872.6,9.2L127.4,9.2C62.7,9.2 10,61.8 10,126.6L10,873.5C10,938.2 62.7,990.9 127.4,990.9L872.6,990.9C937.3,990.9 990,938.2 990,873.5L990,126.5C990,61.8 937.3,9.2 872.6,9.2ZM950.1,873.4C950.1,916.1 915.3,950.9 872.6,950.9L127.4,950.9C84.7,950.9 49.9,916.1 49.9,873.4L49.9,126.5C49.9,83.8 84.7,49 127.4,49L872.6,49C915.3,49 950.1,83.8 950.1,126.5L950.1,873.4Z" style="fill:rgb(34,34,34);fill-rule:nonzero;"/>
                    <path d="M283.9,204.5L283.9,173.6C283.9,162.6 275,153.7 264,153.7C253,153.7 244.1,162.6 244.1,173.6L244.1,204.5C196.2,213.9 159.8,256.1 159.8,306.7C159.8,357.3 196.1,399.6 244.1,408.9L244.1,830C244.1,841 253,849.9 264,849.9C275,849.9 283.9,841 283.9,830L283.9,408.9C331.8,399.6 368.2,357.3 368.2,306.7C368.1,256.1 331.8,213.9 283.9,204.5ZM263.9,371.1C228.4,371.1 199.6,342.2 199.6,306.8C199.6,271.3 228.5,242.5 263.9,242.5C299.3,242.5 328.2,271.4 328.2,306.8C328.2,342.2 299.4,371.1 263.9,371.1Z" style="fill:rgb(34,34,34);fill-rule:nonzero;"/>
                    <path d="M523.6,561.9L523.6,173.7C523.6,162.7 514.7,153.8 503.7,153.8C492.7,153.8 483.8,162.7 483.8,173.7L483.8,561.9C435.9,571.2 399.5,613.5 399.5,664.1C399.5,714.7 435.8,757 483.8,766.3L483.8,830.1C483.8,841.1 492.7,850 503.7,850C514.7,850 523.6,841.1 523.6,830.1L523.6,766.3C571.5,756.9 607.9,714.7 607.9,664.1C607.9,613.5 571.6,571.3 523.6,561.9ZM503.7,728.4C468.2,728.4 439.4,699.5 439.4,664.1C439.4,628.7 468.3,599.8 503.7,599.8C539.2,599.8 568,628.7 568,664.1C568,699.5 539.1,728.4 503.7,728.4Z" style="fill:rgb(34,34,34);fill-rule:nonzero;"/>
                    <path d="M763.4,306.7L763.4,173.7C763.4,162.7 754.5,153.8 743.5,153.8C732.5,153.8 723.6,162.7 723.6,173.7L723.6,306.7C675.7,316 639.3,358.3 639.3,408.9C639.3,459.5 675.6,501.8 723.6,511.1L723.6,830.1C723.6,841.1 732.5,850 743.5,850C754.5,850 763.4,841.1 763.4,830.1L763.4,511.1C811.3,501.8 847.7,459.5 847.7,408.9C847.7,358.2 811.3,316 763.4,306.7ZM763.4,469.7C757.1,471.8 750.5,473.2 743.5,473.2C736.5,473.2 729.9,471.8 723.6,469.7C697.9,461.2 679.2,437.3 679.2,408.9C679.2,380.4 697.9,356.5 723.6,348.1C729.9,346 736.5,344.6 743.5,344.6C750.5,344.6 757.1,346 763.4,348.1C789.1,356.6 807.8,380.5 807.8,408.9C807.8,437.3 789,461.2 763.4,469.7Z" style="fill:rgb(34,34,34);fill-rule:nonzero;"/>
                </g>
            </g>
        </g>
        <path id="path5326" d="M2.75,70L2.75,95C2.75,100.817 7.433,96.25 13.25,96.25L86.75,96.25C92.567,96.25 97.25,100.817 97.25,95L97.25,70L2.75,70Z" style="fill:rgb(34,34,34);fill-rule:nonzero;"/>
        <g transform="matrix(0.435943,0,0,0.501084,15.6538,-0.166712)">
            <g id="Text" transform="matrix(31.9308,0,0,31.9308,-25.8985,177.434)">
                <path d="M0.333,-0.699C0.44,-0.699 0.519,-0.678 0.568,-0.636C0.617,-0.595 0.641,-0.531 0.641,-0.445C0.641,-0.358 0.616,-0.295 0.566,-0.255C0.515,-0.215 0.438,-0.195 0.335,-0.195L0.242,-0.195L0.242,0L0.086,0L0.086,-0.699L0.333,-0.699ZM0.347,-0.33C0.399,-0.33 0.434,-0.341 0.453,-0.362C0.472,-0.383 0.481,-0.413 0.481,-0.454C0.481,-0.494 0.469,-0.523 0.445,-0.54C0.42,-0.557 0.382,-0.565 0.331,-0.565L0.242,-0.565L0.242,-0.33L0.347,-0.33Z" style="fill:rgb(255,238,238);fill-rule:nonzero;"/>
            </g>
            <g transform="matrix(31.9308,0,0,31.9308,-5.7861,177.434)">
                <path d="M0.584,0L0.519,-0.151L0.226,-0.151L0.161,0L-0.005,0L0.297,-0.699L0.448,-0.699L0.75,0L0.584,0ZM0.373,-0.491L0.285,-0.288L0.46,-0.288L0.373,-0.491Z" style="fill:rgb(255,238,238);fill-rule:nonzero;"/>
            </g>
            <g transform="matrix(31.9308,0,0,31.9308,18.0023,177.434)">
                <path d="M0.653,-0.467C0.653,-0.355 0.609,-0.283 0.52,-0.25L0.697,0L0.505,0L0.35,-0.223L0.242,-0.223L0.242,0L0.086,0L0.086,-0.699L0.351,-0.699C0.46,-0.699 0.537,-0.681 0.584,-0.644C0.63,-0.607 0.653,-0.548 0.653,-0.467ZM0.356,-0.358C0.409,-0.358 0.446,-0.367 0.465,-0.384C0.484,-0.401 0.494,-0.429 0.494,-0.467C0.494,-0.504 0.484,-0.53 0.464,-0.544C0.444,-0.558 0.409,-0.565 0.359,-0.565L0.242,-0.565L0.242,-0.358L0.356,-0.358Z" style="fill:rgb(255,238,238);fill-rule:nonzero;"/>
            </g>
            <g transform="matrix(31.9308,0,0,31.9308,40.7022,177.434)">
                <path d="M0.382,-0.564L0.382,0L0.226,0L0.226,-0.564L0.028,-0.564L0.028,-0.699L0.58,-0.699L0.58,-0.564L0.382,-0.564Z" style="fill:rgb(255,238,238);fill-rule:nonzero;"/>
            </g>
            <g transform="matrix(31.9308,0,0,31.9308,60.1161,177.434)">
                <rect x="0.086" y="-0.699" width="0.156" height="0.699" style="fill:rgb(255,238,238);fill-rule:nonzero;"/>
            </g>
            <g transform="matrix(31.9308,0,0,31.9308,70.5894,177.434)">
                <path d="M0.407,-0.138C0.484,-0.138 0.546,-0.168 0.595,-0.229L0.695,-0.126C0.616,-0.037 0.522,0.008 0.414,0.008C0.307,0.008 0.218,-0.026 0.149,-0.094C0.079,-0.162 0.044,-0.248 0.044,-0.352C0.044,-0.455 0.08,-0.542 0.151,-0.611C0.222,-0.68 0.308,-0.715 0.411,-0.715C0.526,-0.715 0.622,-0.671 0.699,-0.584L0.602,-0.474C0.553,-0.535 0.491,-0.566 0.418,-0.566C0.359,-0.566 0.309,-0.547 0.268,-0.508C0.226,-0.47 0.205,-0.419 0.205,-0.354C0.205,-0.289 0.225,-0.236 0.264,-0.197C0.303,-0.158 0.351,-0.138 0.407,-0.138Z" style="fill:rgb(255,238,238);fill-rule:nonzero;"/>
            </g>
            <g transform="matrix(31.9308,0,0,31.9308,93.9627,177.434)">
                <path d="M0.271,-0.181C0.297,-0.148 0.332,-0.132 0.376,-0.132C0.42,-0.132 0.455,-0.148 0.481,-0.181C0.506,-0.213 0.519,-0.257 0.519,-0.313L0.519,-0.699L0.675,-0.699L0.675,-0.308C0.675,-0.207 0.647,-0.129 0.591,-0.075C0.535,-0.02 0.463,0.007 0.376,0.007C0.289,0.007 0.217,-0.02 0.161,-0.075C0.104,-0.13 0.076,-0.207 0.076,-0.308L0.076,-0.699L0.232,-0.699L0.232,-0.313C0.232,-0.257 0.245,-0.213 0.271,-0.181Z" style="fill:rgb(255,238,238);fill-rule:nonzero;"/>
            </g>
            <g transform="matrix(31.9308,0,0,31.9308,117.943,177.434)">
                <path d="M0.086,0L0.086,-0.699L0.242,-0.699L0.242,-0.139L0.54,-0.139L0.54,0L0.086,0Z" style="fill:rgb(255,238,238);fill-rule:nonzero;"/>
            </g>
            <g transform="matrix(31.9308,0,0,31.9308,136.079,177.434)">
                <path d="M0.584,0L0.519,-0.151L0.226,-0.151L0.161,0L-0.005,0L0.297,-0.699L0.448,-0.699L0.75,0L0.584,0ZM0.373,-0.491L0.285,-0.288L0.46,-0.288L0.373,-0.491Z" style="fill:rgb(255,238,238);fill-rule:nonzero;"/>
            </g>
            <g transform="matrix(31.9308,0,0,31.9308,159.868,177.434)">
                <path d="M0.653,-0.467C0.653,-0.355 0.609,-0.283 0.52,-0.25L0.697,0L0.505,0L0.35,-0.223L0.242,-0.223L0.242,0L0.086,0L0.086,-0.699L0.351,-0.699C0.46,-0.699 0.537,-0.681 0.584,-0.644C0.63,-0.607 0.653,-0.548 0.653,-0.467ZM0.356,-0.358C0.409,-0.358 0.446,-0.367 0.465,-0.384C0.484,-0.401 0.494,-0.429 0.494,-0.467C0.494,-0.504 0.484,-0.53 0.464,-0.544C0.444,-0.558 0.409,-0.565 0.359,-0.565L0.242,-0.565L0.242,-0.358L0.356,-0.358Z" style="fill:rgb(255,238,238);fill-rule:nonzero;"/>
            </g>
        </g>
    </g>
</svg>
