<?xml version="1.0" encoding="UTF-8" standalone="no"?>
<!DOCTYPE svg PUBLIC "-//W3C//DTD SVG 1.1//EN" "http://www.w3.org/Graphics/SVG/1.1/DTD/svg11.dtd">
<svg width="200" height="200" viewBox="0 0 200 200" version="1.1" xmlns="http://www.w3.org/2000/svg" xmlns:xlink="http://www.w3.org/1999/xlink" xml:space="preserve" xmlns:serif="http://www.serif.com/" style="fill-rule:evenodd;clip-rule:evenodd;stroke-linejoin:round;stroke-miterlimit:2;">
    <g id="Planned" transform="matrix(2,0,0,2,0,0)">
        <path id="rect5322" d="M100,3.75C100,1.68 98.32,0 96.25,0L3.75,0C1.68,0 0,1.68 0,3.75L0,96.25C0,98.32 1.68,100 3.75,100L96.25,100C98.32,100 100,98.32 100,96.25L100,3.75Z" style="fill:rgb(34,34,34);"/>
        <path id="rect5324" d="M95,7.5C95,6.12 93.88,5 92.5,5L7.5,5C6.12,5 5,6.12 5,7.5L5,92.5C5,93.88 6.12,95 7.5,95L92.5,95C93.88,95 95,93.88 95,92.5L95,7.5Z" style="fill:rgb(255,73,0);"/>
        <path id="path5326" d="M2.75,70L2.75,95C2.75,100.817 7.433,96.25 13.25,96.25L86.75,96.25C92.567,96.25 97.25,100.817 97.25,95L97.25,70L2.75,70Z" style="fill:rgb(34,34,34);fill-rule:nonzero;"/>
        <g id="Text" transform="matrix(0.501084,0,0,0.501084,17.3409,-0.166712)">
            <g transform="matrix(31.9308,0,0,31.9308,-15.5695,177.434)">
                <path d="M0.333,-0.699C0.44,-0.699 0.519,-0.678 0.568,-0.636C0.617,-0.595 0.641,-0.531 0.641,-0.445C0.641,-0.358 0.616,-0.295 0.566,-0.255C0.515,-0.215 0.438,-0.195 0.335,-0.195L0.242,-0.195L0.242,0L0.086,0L0.086,-0.699L0.333,-0.699ZM0.347,-0.33C0.399,-0.33 0.434,-0.341 0.453,-0.362C0.472,-0.383 0.481,-0.413 0.481,-0.454C0.481,-0.494 0.469,-0.523 0.445,-0.54C0.42,-0.557 0.382,-0.565 0.331,-0.565L0.242,-0.565L0.242,-0.33L0.347,-0.33Z" style="fill:rgb(255,238,238);fill-rule:nonzero;"/>
            </g>
            <g transform="matrix(31.9308,0,0,31.9308,6.04766,177.434)">
                <path d="M0.086,0L0.086,-0.699L0.242,-0.699L0.242,-0.139L0.54,-0.139L0.54,0L0.086,0Z" style="fill:rgb(255,238,238);fill-rule:nonzero;"/>
            </g>
            <g transform="matrix(31.9308,0,0,31.9308,24.1843,177.434)">
                <path d="M0.584,0L0.519,-0.151L0.226,-0.151L0.161,0L-0.005,0L0.297,-0.699L0.448,-0.699L0.75,0L0.584,0ZM0.373,-0.491L0.285,-0.288L0.46,-0.288L0.373,-0.491Z" style="fill:rgb(255,238,238);fill-rule:nonzero;"/>
            </g>
            <g transform="matrix(31.9308,0,0,31.9308,47.9728,177.434)">
                <path d="M0.575,-0.699L0.731,-0.699L0.731,0L0.575,0L0.242,-0.438L0.242,0L0.086,0L0.086,-0.699L0.232,-0.699L0.575,-0.249L0.575,-0.699Z" style="fill:rgb(255,238,238);fill-rule:nonzero;"/>
            </g>
            <g transform="matrix(31.9308,0,0,31.9308,74.0602,177.434)">
                <path d="M0.575,-0.699L0.731,-0.699L0.731,0L0.575,0L0.242,-0.438L0.242,0L0.086,0L0.086,-0.699L0.232,-0.699L0.575,-0.249L0.575,-0.699Z" style="fill:rgb(255,238,238);fill-rule:nonzero;"/>
            </g>
            <g transform="matrix(31.9308,0,0,31.9308,100.148,177.434)">
                <path d="M0.59,-0.699L0.59,-0.56L0.242,-0.56L0.242,-0.416L0.555,-0.416L0.555,-0.283L0.242,-0.283L0.242,-0.138L0.601,-0.138L0.601,0L0.086,0L0.086,-0.699L0.59,-0.699Z" style="fill:rgb(255,238,238);fill-rule:nonzero;"/>
            </g>
            <g transform="matrix(31.9308,0,0,31.9308,121.03,177.434)">
                <path d="M0.333,-0.699C0.458,-0.699 0.553,-0.669 0.62,-0.608C0.687,-0.547 0.72,-0.462 0.72,-0.353C0.72,-0.244 0.688,-0.158 0.623,-0.095C0.558,-0.032 0.458,0 0.325,0L0.086,0L0.086,-0.699L0.333,-0.699ZM0.341,-0.138C0.412,-0.138 0.467,-0.156 0.505,-0.192C0.544,-0.228 0.563,-0.28 0.563,-0.349C0.563,-0.418 0.544,-0.47 0.505,-0.507C0.467,-0.545 0.408,-0.563 0.329,-0.563L0.242,-0.563L0.242,-0.138L0.341,-0.138Z" style="fill:rgb(255,238,238);fill-rule:nonzero;"/>
            </g>
        </g>
        <g id="planning-svgrepo-com" transform="matrix(0.135714,0,0,0.135714,50.2113,38.25)">
            <g transform="matrix(1,0,0,1,-245,-245)">
                <g>
                    <path d="M10,372.5L415,372.5C417.602,372.499 420.159,371.484 422.071,369.571L487.071,304.571C488.983,302.658 489.975,300.101 489.976,297.5L490,297.5L490,52.5C490,46.978 485.523,42.5 480,42.5L10,42.5C4.477,42.5 0,46.978 0,52.5L0,362.5C0,368.022 4.477,372.5 10,372.5ZM425,338.357L425,307.5L455.858,307.5L425,338.357ZM20,62.5L470,62.5L470,287.5L415,287.5C409.477,287.5 405,291.978 405,297.5L405,352.5L20,352.5L20,62.5Z" style="fill:rgb(34,34,34);fill-rule:nonzero;"/>
                    <path d="M350,92.5L250,92.5C244.477,92.5 240,96.978 240,102.5L240,117.5L215,117.5C209.477,117.5 205,121.978 205,127.5L205,202.5L125,202.5L125,167.5L180,167.5C185.523,167.5 190,163.022 190,157.5L190,97.5C190,91.978 185.523,87.5 180,87.5L60,87.5C54.477,87.5 50,91.978 50,97.5L50,157.5C50,163.022 54.477,167.5 60,167.5L105,167.5L105,212.5C105,218.022 109.477,222.5 115,222.5L205,222.5L205,292.5C205,298.022 209.477,302.5 215,302.5L240,302.5L240,312.5C240,318.022 244.477,322.5 250,322.5L350,322.5C355.523,322.5 360,318.022 360,312.5L360,262.5C360,256.978 355.523,252.5 350,252.5L250,252.5C244.477,252.5 240,256.978 240,262.5L240,282.5L225,282.5L225,222.5L240,222.5L240,232.5C240,238.022 244.477,242.5 250,242.5L350,242.5C355.523,242.5 360,238.022 360,232.5L360,182.5C360,176.978 355.523,172.5 350,172.5L250,172.5C244.477,172.5 240,176.978 240,182.5L240,202.5L225,202.5L225,137.5L240,137.5L240,152.5C240,158.022 244.477,162.5 250,162.5L350,162.5C355.523,162.5 360,158.022 360,152.5L360,102.5C360,96.978 355.523,92.5 350,92.5ZM70,147.5L70,107.5L170,107.5L170,147.5L70,147.5ZM260,272.5L340,272.5L340,302.5L260,302.5L260,272.5ZM260,192.5L340,192.5L340,222.5L260,222.5L260,192.5ZM340,142.5L260,142.5L260,112.5L340,112.5L340,142.5Z" style="fill:rgb(34,34,34);fill-rule:nonzero;"/>
                    <rect x="50" y="247.5" width="75" height="20" style="fill:rgb(34,34,34);"/>
                    <rect x="50" y="277.5" width="75" height="20" style="fill:rgb(34,34,34);"/>
                    <rect x="50" y="307.5" width="130" height="20" style="fill:rgb(34,34,34);"/>
                    <rect x="135" y="247.5" width="20" height="20" style="fill:rgb(34,34,34);"/>
                    <rect x="380" y="92.5" width="25" height="20" style="fill:rgb(34,34,34);"/>
                    <rect x="420" y="92.5" width="25" height="20" style="fill:rgb(34,34,34);"/>
                    <rect x="380" y="122.5" width="25" height="20" style="fill:rgb(34,34,34);"/>
                    <rect x="420" y="122.5" width="25" height="20" style="fill:rgb(34,34,34);"/>
                    <rect x="380" y="152.5" width="25" height="20" style="fill:rgb(34,34,34);"/>
                    <rect x="420" y="152.5" width="25" height="20" style="fill:rgb(34,34,34);"/>
                    <rect x="380" y="182.5" width="25" height="20" style="fill:rgb(34,34,34);"/>
                    <rect x="420" y="182.5" width="25" height="20" style="fill:rgb(34,34,34);"/>
                    <path d="M483.162,408.013L423.162,388.013C422.129,387.669 421.062,387.515 420,387.515L420,387.5L10,387.5C4.477,387.5 0,391.978 0,397.5L0,437.5C0,443.022 4.477,447.5 10,447.5L420.001,447.5C421.062,447.5 422.13,447.331 423.162,446.987L483.162,426.987C487.245,425.626 490,421.804 490,417.5C490,413.196 487.246,409.374 483.162,408.013ZM60,427.5L20,427.5L20,407.5L60,407.5L60,427.5ZM410,427.5L80,427.5L80,407.5L410,407.5L410,427.5ZM430,423.626L430,411.374L448.377,417.5L430,423.626Z" style="fill:rgb(34,34,34);fill-rule:nonzero;"/>
                </g>
            </g>
        </g>
    </g>
</svg>
