<?xml version="1.0" encoding="UTF-8" standalone="no"?>
<!DOCTYPE svg PUBLIC "-//W3C//DTD SVG 1.1//EN" "http://www.w3.org/Graphics/SVG/1.1/DTD/svg11.dtd">
<svg width="200" height="200" viewBox="0 0 200 200" version="1.1" xmlns="http://www.w3.org/2000/svg" xmlns:xlink="http://www.w3.org/1999/xlink" xml:space="preserve" xmlns:serif="http://www.serif.com/" style="fill-rule:evenodd;clip-rule:evenodd;stroke-linejoin:round;stroke-miterlimit:2;">
    <g id="Pragmatic" transform="matrix(2,0,0,2,0,0)">
        <path id="rect5322" d="M100,3.75C100,1.68 98.32,0 96.25,0L3.75,0C1.68,0 0,1.68 0,3.75L0,96.25C0,98.32 1.68,100 3.75,100L96.25,100C98.32,100 100,98.32 100,96.25L100,3.75Z" style="fill:rgb(34,34,34);"/>
        <path id="rect5324" d="M95,7.5C95,6.12 93.88,5 92.5,5L7.5,5C6.12,5 5,6.12 5,7.5L5,92.5C5,93.88 6.12,95 7.5,95L92.5,95C93.88,95 95,93.88 95,92.5L95,7.5Z" style="fill:rgb(161,1,179);"/>
        <g id="brain" transform="matrix(0.128906,0,0,0.128906,50,45)">
            <g transform="matrix(1,0,0,1,-256,-256)">
                <path d="M306,83C300.48,83 296,87.48 296,93C296,98.52 300.48,103 306,103C311.52,103 316,98.52 316,93C316,87.48 311.52,83 306,83Z" style="fill:rgb(34,34,34);fill-rule:nonzero;"/>
                <path d="M206,83C200.48,83 196,87.48 196,93C196,98.52 200.48,103 206,103C211.52,103 216,98.52 216,93C216,87.48 211.52,83 206,83Z" style="fill:rgb(34,34,34);fill-rule:nonzero;"/>
                <path d="M473.123,298.882C481.706,286 486,269.927 486,256C486,235.004 476.673,215.497 460.668,202.269C464.21,193.805 466,185.002 466,176C466,148.145 449.744,122.197 425.575,110.08C429.242,79.666 409.424,51.788 380.055,44.677C368.56,18.104 342.975,0 316,0C290.89,0 268.369,14.646 256,36.016C243.63,14.646 221.109,0 196,0C169.023,0 143.438,18.104 131.945,44.678C102.4,51.834 82.768,79.851 86.425,110.08C62.257,122.196 46,148.145 46,176C46,185.002 47.79,193.805 51.332,202.269C35.327,215.498 26,235.004 26,256C26,270 30.33,286.052 38.877,298.881C30.525,310.671 26,324.644 26,339C26,357.616 33.548,375.35 46.899,388.518C40.035,430.01 73.125,472 116,472C116.31,472 116.615,471.995 116.914,471.986C131.129,496.508 157.515,512 186,512C215.688,512 242.216,494.18 256,468.506C269.784,494.18 296.312,512 326,512C354.485,512 380.871,496.508 395.086,471.986C395.386,471.995 395.69,472 396,472C433.944,472 466,438.57 466,399C466,395.631 465.704,392.166 465.101,388.518C478.452,375.35 486,357.617 486,339C486,324.644 481.475,310.671 473.123,298.882ZM246,151.381C240.112,147.966 233.283,146 226,146C220.477,146 216,150.477 216,156C216,161.523 220.477,166 226,166C237.028,166 246,174.972 246,186L246,376.169C231.329,359.528 209.877,349 186,349C180.477,349 176,353.477 176,359C176,364.523 180.477,369 186,369C219.084,369 246,395.916 246,429C246,463.149 218.523,492 186,492C162.848,492 141.535,478.309 131.701,457.12C129.888,453.215 125.782,450.912 121.501,451.394C120.794,451.475 120.091,451.569 119.388,451.665C90.928,455.557 58.878,423.33 67.554,387.278C68.445,383.575 67.155,379.689 64.228,377.253C52.644,367.614 46,353.671 46,339C46,329.929 48.565,321.052 53.338,313.268C65.332,323.098 80.251,329 96,329C101.523,329 106,324.523 106,319C106,313.477 101.523,309 96,309C68.861,309 46,284.23 46,256C46,238.875 54.729,223.121 69.352,213.858C73.857,211.004 75.33,205.117 72.699,200.478C68.254,192.639 66,184.403 66,176C66,149.01 88.002,123 116,123C142.636,123 166,147.767 166,176C166,181.523 170.477,186 176,186C181.523,186 186,181.523 186,176C186,136.43 153.944,103 116,103C112.652,103 109.322,103.271 106.025,103.784C106.02,103.521 106,103.265 106,103C106,80.683 124.117,63 146,63C156.682,63 166.73,67.161 174.292,74.715C178.199,78.618 184.53,78.614 188.434,74.708C192.337,70.8 192.334,64.469 188.427,60.566C179.304,51.453 167.765,45.641 155.26,43.715C164.079,30.624 178.744,20 196,20C222.636,20 246,44.766 246,73L246,151.381ZM416,329C431.75,329 446.669,323.097 458.663,313.271C463.435,321.054 466,329.93 466,339C466,353.671 459.356,367.614 447.773,377.253C444.845,379.689 443.556,383.576 444.447,387.278C445.507,391.681 446,395.406 446,398.999C446,430.039 417.925,455.125 392.613,451.665C391.91,451.569 391.206,451.474 390.499,451.394C386.212,450.909 382.111,453.215 380.3,457.12C370.466,478.309 349.151,492 326,492C293.477,492 266,463.149 266,429C266,395.916 292.916,369 326,369C331.522,369 336,364.523 336,359C336,353.477 331.522,349 326,349C302.123,349 280.671,359.528 266,376.169L266,186C266,174.972 274.972,166 286,166C291.522,166 296,161.523 296,156C296,150.477 291.522,146 286,146C278.717,146 271.888,147.966 266,151.381L266,73C266,44.766 289.364,20 316,20C333.256,20 347.92,30.624 356.739,43.714C344.235,45.64 332.697,51.452 323.573,60.565C319.665,64.468 319.661,70.799 323.564,74.707C327.467,78.615 333.8,78.618 337.706,74.715C345.271,67.161 355.318,63 366,63C387.993,63 406,80.787 406,103C406,103.264 405.98,103.521 405.975,103.784C402.678,103.271 399.348,103 396,103C358.056,103 326,136.43 326,176C326,181.523 330.478,186 336,186C341.522,186 346,181.523 346,176C346,147.767 369.364,123 396,123C423.982,123 446,148.997 446,176C446,184.403 443.746,192.639 439.301,200.478C436.671,205.117 438.144,211.004 442.649,213.858C457.271,223.121 466,238.875 466,256C466,284.331 443.059,309 416,309C410.478,309 406,313.477 406,319C406,324.523 410.478,329 416,329Z" style="fill:rgb(34,34,34);fill-rule:nonzero;"/>
                <path d="M223.453,214.053C219.771,209.937 213.45,209.585 209.333,213.267C177.265,241.952 126,219.027 126,176C126,170.477 121.523,166 116,166C110.477,166 106,170.477 106,176C106,210.715 131.407,239.595 164.6,245.057C160.75,257.185 149.386,266 136,266C130.477,266 126,270.477 126,276C126,281.523 130.477,286 136,286C160.357,286 180.69,268.49 185.102,245.398C199.009,243.579 212.098,237.628 222.667,228.173C226.783,224.491 227.135,218.169 223.453,214.053Z" style="fill:rgb(34,34,34);fill-rule:nonzero;"/>
                <path d="M116,389C110.477,389 106,393.477 106,399C106,404.523 110.477,409 116,409C142.636,409 166,433.767 166,462C166,467.523 170.477,472 176,472C181.523,472 186,467.523 186,462C186,422.43 153.944,389 116,389Z" style="fill:rgb(34,34,34);fill-rule:nonzero;"/>
                <path d="M196,309C162.114,309 133.02,327.585 117.7,354.608C114.977,359.413 116.664,365.516 121.468,368.239C126.273,370.962 132.375,369.276 135.099,364.471C147.034,343.415 169.68,329 196,329C201.523,329 206,324.523 206,319C206,313.477 201.523,309 196,309Z" style="fill:rgb(34,34,34);fill-rule:nonzero;"/>
                <path d="M376,266C362.614,266 351.25,257.185 347.4,245.057C380.593,239.595 406,210.715 406,176C406,170.477 401.522,166 396,166C390.478,166 386,170.477 386,176C386,203.57 363.57,226 336,226C323.684,226 311.847,221.478 302.667,213.267C298.552,209.585 292.229,209.936 288.547,214.053C284.864,218.169 285.217,224.491 289.333,228.173C299.902,237.628 312.992,243.579 326.898,245.398C331.31,268.49 351.643,286 376,286C381.522,286 386,281.523 386,276C386,270.477 381.522,266 376,266Z" style="fill:rgb(34,34,34);fill-rule:nonzero;"/>
                <path d="M396,389C358.056,389 326,422.43 326,462C326,467.523 330.478,472 336,472C341.522,472 346,467.523 346,462C346,433.767 369.364,409 396,409C401.522,409 406,404.523 406,399C406,393.477 401.522,389 396,389Z" style="fill:rgb(34,34,34);fill-rule:nonzero;"/>
                <path d="M394.3,354.609C379.018,327.65 349.964,309 316,309C310.478,309 306,313.477 306,319C306,324.523 310.478,329 316,329C342.301,329 364.964,343.411 376.899,364.471C379.626,369.282 385.733,370.96 390.53,368.24C395.335,365.517 397.022,359.414 394.3,354.609Z" style="fill:rgb(34,34,34);fill-rule:nonzero;"/>
            </g>
        </g>
        <path id="path5326" d="M2.75,70L2.75,95C2.75,100.817 7.433,96.25 13.25,96.25L86.75,96.25C92.567,96.25 97.25,100.817 97.25,95L97.25,70L2.75,70Z" style="fill:rgb(34,34,34);fill-rule:nonzero;"/>
        <g transform="matrix(0.460997,0,0,0.501084,16.2901,-0.166712)">
            <g id="Text" transform="matrix(31.9308,0,0,31.9308,-26.2139,177.434)">
                <path d="M0.333,-0.699C0.44,-0.699 0.519,-0.678 0.568,-0.636C0.617,-0.595 0.641,-0.531 0.641,-0.445C0.641,-0.358 0.616,-0.295 0.566,-0.255C0.515,-0.215 0.438,-0.195 0.335,-0.195L0.242,-0.195L0.242,0L0.086,0L0.086,-0.699L0.333,-0.699ZM0.347,-0.33C0.399,-0.33 0.434,-0.341 0.453,-0.362C0.472,-0.383 0.481,-0.413 0.481,-0.454C0.481,-0.494 0.469,-0.523 0.445,-0.54C0.42,-0.557 0.382,-0.565 0.331,-0.565L0.242,-0.565L0.242,-0.33L0.347,-0.33Z" style="fill:rgb(255,238,238);fill-rule:nonzero;"/>
            </g>
            <g transform="matrix(31.9308,0,0,31.9308,-4.59679,177.434)">
                <path d="M0.653,-0.467C0.653,-0.355 0.609,-0.283 0.52,-0.25L0.697,0L0.505,0L0.35,-0.223L0.242,-0.223L0.242,0L0.086,0L0.086,-0.699L0.351,-0.699C0.46,-0.699 0.537,-0.681 0.584,-0.644C0.63,-0.607 0.653,-0.548 0.653,-0.467ZM0.356,-0.358C0.409,-0.358 0.446,-0.367 0.465,-0.384C0.484,-0.401 0.494,-0.429 0.494,-0.467C0.494,-0.504 0.484,-0.53 0.464,-0.544C0.444,-0.558 0.409,-0.565 0.359,-0.565L0.242,-0.565L0.242,-0.358L0.356,-0.358Z" style="fill:rgb(255,238,238);fill-rule:nonzero;"/>
            </g>
            <g transform="matrix(31.9308,0,0,31.9308,18.6169,177.434)">
                <path d="M0.584,0L0.519,-0.151L0.226,-0.151L0.161,0L-0.005,0L0.297,-0.699L0.448,-0.699L0.75,0L0.584,0ZM0.373,-0.491L0.285,-0.288L0.46,-0.288L0.373,-0.491Z" style="fill:rgb(255,238,238);fill-rule:nonzero;"/>
            </g>
            <g transform="matrix(31.9308,0,0,31.9308,42.4053,177.434)">
                <path d="M0.54,-0.356L0.697,-0.356L0.697,-0.108C0.628,-0.031 0.532,0.008 0.409,0.008C0.306,0.008 0.22,-0.026 0.151,-0.094C0.081,-0.162 0.046,-0.248 0.046,-0.352C0.046,-0.455 0.082,-0.542 0.153,-0.611C0.224,-0.68 0.309,-0.715 0.409,-0.715C0.51,-0.715 0.597,-0.682 0.671,-0.616L0.59,-0.499C0.559,-0.526 0.53,-0.545 0.503,-0.556C0.477,-0.566 0.449,-0.571 0.418,-0.571C0.359,-0.571 0.309,-0.551 0.268,-0.51C0.227,-0.47 0.207,-0.417 0.207,-0.351C0.207,-0.285 0.227,-0.232 0.266,-0.193C0.305,-0.153 0.351,-0.133 0.405,-0.133C0.459,-0.133 0.504,-0.143 0.54,-0.164L0.54,-0.356Z" style="fill:rgb(255,238,238);fill-rule:nonzero;"/>
            </g>
            <g transform="matrix(31.9308,0,0,31.9308,66.3534,177.434)">
                <path d="M0.712,-0.44L0.523,-0.058L0.43,-0.058L0.242,-0.44L0.242,0L0.086,0L0.086,-0.699L0.297,-0.699L0.477,-0.315L0.658,-0.699L0.868,-0.699L0.868,0L0.712,0L0.712,-0.44Z" style="fill:rgb(255,238,238);fill-rule:nonzero;"/>
            </g>
            <g transform="matrix(31.9308,0,0,31.9308,96.8154,177.434)">
                <path d="M0.584,0L0.519,-0.151L0.226,-0.151L0.161,0L-0.005,0L0.297,-0.699L0.448,-0.699L0.75,0L0.584,0ZM0.373,-0.491L0.285,-0.288L0.46,-0.288L0.373,-0.491Z" style="fill:rgb(255,238,238);fill-rule:nonzero;"/>
            </g>
            <g transform="matrix(31.9308,0,0,31.9308,118.834,177.434)">
                <path d="M0.382,-0.564L0.382,0L0.226,0L0.226,-0.564L0.028,-0.564L0.028,-0.699L0.58,-0.699L0.58,-0.564L0.382,-0.564Z" style="fill:rgb(255,238,238);fill-rule:nonzero;"/>
            </g>
            <g transform="matrix(31.9308,0,0,31.9308,138.248,177.434)">
                <rect x="0.086" y="-0.699" width="0.156" height="0.699" style="fill:rgb(255,238,238);fill-rule:nonzero;"/>
            </g>
            <g transform="matrix(31.9308,0,0,31.9308,148.721,177.434)">
                <path d="M0.407,-0.138C0.484,-0.138 0.546,-0.168 0.595,-0.229L0.695,-0.126C0.616,-0.037 0.522,0.008 0.414,0.008C0.307,0.008 0.218,-0.026 0.149,-0.094C0.079,-0.162 0.044,-0.248 0.044,-0.352C0.044,-0.455 0.08,-0.542 0.151,-0.611C0.222,-0.68 0.308,-0.715 0.411,-0.715C0.526,-0.715 0.622,-0.671 0.699,-0.584L0.602,-0.474C0.553,-0.535 0.491,-0.566 0.418,-0.566C0.359,-0.566 0.309,-0.547 0.268,-0.508C0.226,-0.47 0.205,-0.419 0.205,-0.354C0.205,-0.289 0.225,-0.236 0.264,-0.197C0.303,-0.158 0.351,-0.138 0.407,-0.138Z" style="fill:rgb(255,238,238);fill-rule:nonzero;"/>
            </g>
        </g>
    </g>
</svg>
