<?xml version="1.0" encoding="UTF-8" standalone="no"?>
<!DOCTYPE svg PUBLIC "-//W3C//DTD SVG 1.1//EN" "http://www.w3.org/Graphics/SVG/1.1/DTD/svg11.dtd">
<svg width="200" height="200" viewBox="0 0 200 200" version="1.1" xmlns="http://www.w3.org/2000/svg" xmlns:xlink="http://www.w3.org/1999/xlink" xml:space="preserve" xmlns:serif="http://www.serif.com/" style="fill-rule:evenodd;clip-rule:evenodd;stroke-linejoin:round;stroke-miterlimit:2;">
    <g id="Religious" transform="matrix(2,0,0,2,0,0)">
        <path id="rect5322" d="M100,3.75C100,1.68 98.32,0 96.25,0L3.75,0C1.68,0 0,1.68 0,3.75L0,96.25C0,98.32 1.68,100 3.75,100L96.25,100C98.32,100 100,98.32 100,96.25L100,3.75Z" style="fill:rgb(34,34,34);"/>
        <path id="rect5324" d="M95,7.5C95,6.12 93.88,5 92.5,5L7.5,5C6.12,5 5,6.12 5,7.5L5,92.5C5,93.88 6.12,95 7.5,95L92.5,95C93.88,95 95,93.88 95,92.5L95,7.5Z" style="fill:rgb(255,191,0);"/>
        <g id="_15a148373c45a6116ea1133a743fd33d" serif:id="15a148373c45a6116ea1133a743fd33d" transform="matrix(0.0605,0,0,0.0605,51.25,43.75)">
            <g transform="matrix(1,0,0,1,-500,-500)">
                <g transform="matrix(1,0,0,-1,0,1920)">
                    <path d="M68.8,930L68.8,1478.8L29.6,1478.8L29.6,1518L186.4,1672.8L186.4,1792.4L108,1792.4L108,1831.6L186.4,1831.6L186.4,1910L225.6,1910L225.6,1831.6L304,1831.6L304,1792.4L225.6,1792.4L225.6,1672.8L382.4,1518L382.4,1478.8L343.2,1478.8L343.2,1204.4L931.2,1204.4L931.2,969.2L970.4,969.2L970.4,930L68.8,930ZM382.4,1243.6L382.4,1400.4L813.6,1400.4L931.2,1282.8L931.2,1243.6L382.4,1243.6ZM421.6,1008.4L460.8,1008.4L460.8,1126L421.6,1126L421.6,1008.4ZM500,1008.4L539.2,1008.4L539.2,1126L500,1126L500,1008.4ZM578.4,1008.4L617.6,1008.4L617.6,1126L578.4,1126L578.4,1008.4ZM656.8,1008.4L696,1008.4L696,1126L656.8,1126L656.8,1008.4ZM735.2,1008.4L774.4,1008.4L774.4,1126L735.2,1126L735.2,1008.4ZM813.6,1008.4L852.8,1008.4L852.8,1126L813.6,1126L813.6,1008.4Z" style="fill:rgb(34,34,34);fill-rule:nonzero;"/>
                </g>
            </g>
        </g>
        <path id="path5326" d="M2.75,70L2.75,95C2.75,100.817 7.433,96.25 13.25,96.25L86.75,96.25C92.567,96.25 97.25,100.817 97.25,95L97.25,70L2.75,70Z" style="fill:rgb(34,34,34);fill-rule:nonzero;"/>
        <g id="Text" transform="matrix(0.501084,0,0,0.501084,17.3409,-0.166712)">
            <g transform="matrix(31.9308,0,0,31.9308,-23.9194,177.434)">
                <path d="M0.653,-0.467C0.653,-0.355 0.609,-0.283 0.52,-0.25L0.697,0L0.505,0L0.35,-0.223L0.242,-0.223L0.242,0L0.086,0L0.086,-0.699L0.351,-0.699C0.46,-0.699 0.537,-0.681 0.584,-0.644C0.63,-0.607 0.653,-0.548 0.653,-0.467ZM0.356,-0.358C0.409,-0.358 0.446,-0.367 0.465,-0.384C0.484,-0.401 0.494,-0.429 0.494,-0.467C0.494,-0.504 0.484,-0.53 0.464,-0.544C0.444,-0.558 0.409,-0.565 0.359,-0.565L0.242,-0.565L0.242,-0.358L0.356,-0.358Z" style="fill:rgb(255,238,238);fill-rule:nonzero;"/>
            </g>
            <g transform="matrix(31.9308,0,0,31.9308,-0.705703,177.434)">
                <path d="M0.59,-0.699L0.59,-0.56L0.242,-0.56L0.242,-0.416L0.555,-0.416L0.555,-0.283L0.242,-0.283L0.242,-0.138L0.601,-0.138L0.601,0L0.086,0L0.086,-0.699L0.59,-0.699Z" style="fill:rgb(255,238,238);fill-rule:nonzero;"/>
            </g>
            <g transform="matrix(31.9308,0,0,31.9308,20.177,177.434)">
                <path d="M0.086,0L0.086,-0.699L0.242,-0.699L0.242,-0.139L0.54,-0.139L0.54,0L0.086,0Z" style="fill:rgb(255,238,238);fill-rule:nonzero;"/>
            </g>
            <g transform="matrix(31.9308,0,0,31.9308,38.3137,177.434)">
                <rect x="0.086" y="-0.699" width="0.156" height="0.699" style="fill:rgb(255,238,238);fill-rule:nonzero;"/>
            </g>
            <g transform="matrix(31.9308,0,0,31.9308,48.787,177.434)">
                <path d="M0.54,-0.356L0.697,-0.356L0.697,-0.108C0.628,-0.031 0.532,0.008 0.409,0.008C0.306,0.008 0.22,-0.026 0.151,-0.094C0.081,-0.162 0.046,-0.248 0.046,-0.352C0.046,-0.455 0.082,-0.542 0.153,-0.611C0.224,-0.68 0.309,-0.715 0.409,-0.715C0.51,-0.715 0.597,-0.682 0.671,-0.616L0.59,-0.499C0.559,-0.526 0.53,-0.545 0.503,-0.556C0.477,-0.566 0.449,-0.571 0.418,-0.571C0.359,-0.571 0.309,-0.551 0.268,-0.51C0.227,-0.47 0.207,-0.417 0.207,-0.351C0.207,-0.285 0.227,-0.232 0.266,-0.193C0.305,-0.153 0.351,-0.133 0.405,-0.133C0.459,-0.133 0.504,-0.143 0.54,-0.164L0.54,-0.356Z" style="fill:rgb(255,238,238);fill-rule:nonzero;"/>
            </g>
            <g transform="matrix(31.9308,0,0,31.9308,72.7351,177.434)">
                <rect x="0.086" y="-0.699" width="0.156" height="0.699" style="fill:rgb(255,238,238);fill-rule:nonzero;"/>
            </g>
            <g transform="matrix(31.9308,0,0,31.9308,83.2084,177.434)">
                <path d="M0.621,-0.354C0.621,-0.416 0.601,-0.469 0.561,-0.513C0.521,-0.557 0.472,-0.579 0.413,-0.579C0.355,-0.579 0.306,-0.557 0.266,-0.513C0.226,-0.469 0.206,-0.416 0.206,-0.354C0.206,-0.291 0.226,-0.238 0.266,-0.195C0.306,-0.151 0.355,-0.129 0.413,-0.129C0.472,-0.129 0.521,-0.151 0.561,-0.195C0.601,-0.238 0.621,-0.291 0.621,-0.354ZM0.674,-0.097C0.603,-0.028 0.516,0.007 0.413,0.007C0.31,0.007 0.223,-0.028 0.152,-0.097C0.081,-0.166 0.046,-0.251 0.046,-0.354C0.046,-0.457 0.081,-0.543 0.152,-0.612C0.223,-0.681 0.31,-0.715 0.413,-0.715C0.516,-0.715 0.603,-0.681 0.674,-0.612C0.745,-0.543 0.78,-0.457 0.78,-0.354C0.78,-0.251 0.745,-0.166 0.674,-0.097Z" style="fill:rgb(255,238,238);fill-rule:nonzero;"/>
            </g>
            <g transform="matrix(31.9308,0,0,31.9308,109.583,177.434)">
                <path d="M0.271,-0.181C0.297,-0.148 0.332,-0.132 0.376,-0.132C0.42,-0.132 0.455,-0.148 0.481,-0.181C0.506,-0.213 0.519,-0.257 0.519,-0.313L0.519,-0.699L0.675,-0.699L0.675,-0.308C0.675,-0.207 0.647,-0.129 0.591,-0.075C0.535,-0.02 0.463,0.007 0.376,0.007C0.289,0.007 0.217,-0.02 0.161,-0.075C0.104,-0.13 0.076,-0.207 0.076,-0.308L0.076,-0.699L0.232,-0.699L0.232,-0.313C0.232,-0.257 0.245,-0.213 0.271,-0.181Z" style="fill:rgb(255,238,238);fill-rule:nonzero;"/>
            </g>
            <g transform="matrix(31.9308,0,0,31.9308,133.563,177.434)">
                <path d="M0.311,-0.578C0.285,-0.578 0.265,-0.572 0.25,-0.56C0.234,-0.547 0.227,-0.531 0.227,-0.51C0.227,-0.49 0.236,-0.474 0.255,-0.462C0.273,-0.45 0.315,-0.436 0.382,-0.42C0.448,-0.403 0.499,-0.379 0.536,-0.346C0.573,-0.313 0.591,-0.266 0.591,-0.203C0.591,-0.14 0.568,-0.09 0.521,-0.051C0.473,-0.012 0.412,0.008 0.335,0.008C0.224,0.008 0.125,-0.033 0.036,-0.115L0.129,-0.229C0.204,-0.163 0.274,-0.13 0.338,-0.13C0.367,-0.13 0.389,-0.136 0.406,-0.149C0.422,-0.161 0.43,-0.178 0.43,-0.199C0.43,-0.22 0.421,-0.236 0.404,-0.249C0.387,-0.261 0.352,-0.273 0.301,-0.286C0.22,-0.305 0.16,-0.331 0.123,-0.362C0.085,-0.393 0.066,-0.441 0.066,-0.507C0.066,-0.574 0.09,-0.625 0.138,-0.661C0.185,-0.697 0.245,-0.715 0.316,-0.715C0.363,-0.715 0.409,-0.707 0.456,-0.691C0.503,-0.675 0.543,-0.652 0.578,-0.623L0.499,-0.509C0.438,-0.555 0.376,-0.578 0.311,-0.578Z" style="fill:rgb(255,238,238);fill-rule:nonzero;"/>
            </g>
        </g>
    </g>
</svg>
