<?xml version="1.0" encoding="UTF-8" standalone="no"?>
<!DOCTYPE svg PUBLIC "-//W3C//DTD SVG 1.1//EN" "http://www.w3.org/Graphics/SVG/1.1/DTD/svg11.dtd">
<svg width="200" height="200" viewBox="0 0 200 200" version="1.1" xmlns="http://www.w3.org/2000/svg" xmlns:xlink="http://www.w3.org/1999/xlink" xml:space="preserve" xmlns:serif="http://www.serif.com/" style="fill-rule:evenodd;clip-rule:evenodd;stroke-linejoin:round;stroke-miterlimit:2;">
    <g id="Universal" transform="matrix(2,0,0,2,0,0)">
        <path id="rect5322" d="M100,3.75C100,1.68 98.32,0 96.25,0L3.75,0C1.68,0 0,1.68 0,3.75L0,96.25C0,98.32 1.68,100 3.75,100L96.25,100C98.32,100 100,98.32 100,96.25L100,3.75Z" style="fill:rgb(34,34,34);"/>
        <path id="rect5324" d="M95,7.5C95,6.12 93.88,5 92.5,5L7.5,5C6.12,5 5,6.12 5,7.5L5,92.5C5,93.88 6.12,95 7.5,95L92.5,95C93.88,95 95,93.88 95,92.5L95,7.5Z" style="fill:rgb(4,140,244);"/>
        <g id="path4806-0" transform="matrix(0.132292,0,0,0.132292,-108.898,-136.27)">
            <path d="M1201.11,1103.02C1192.79,1103.02 1184.47,1103.23 1179.71,1103.67C1125.11,1108.72 1077.42,1128.1 1035.41,1162.37C1026.37,1169.75 1008.57,1187.53 1000.93,1196.8C967.06,1237.9 947.472,1285.27 942.055,1339.04C940.956,1349.94 940.797,1373.76 941.774,1384.35C946.892,1439.79 966.916,1488.29 1002.15,1530.6C1005.06,1534.1 1011.74,1541.2 1017.33,1546.79C1031.29,1560.75 1042.09,1569.65 1058.06,1580.26C1094.16,1604.26 1137.54,1619.16 1180.54,1622.28C1184.78,1622.59 1189.4,1622.9 1190.81,1623C1196.83,1623.44 1216.4,1622.8 1225.08,1622C1257.57,1619.01 1287.86,1610.39 1317.2,1595.77C1393.44,1557.79 1446.6,1484.27 1458.48,1400.42C1460.48,1386.32 1461.12,1377.27 1461.11,1362.48C1461.06,1333.33 1456.85,1307.41 1447.66,1279.95C1437.4,1249.27 1421.55,1221.16 1400.06,1195.36C1393.34,1187.28 1376.64,1170.57 1368.71,1163.99C1326.09,1128.63 1278,1108.8 1222.51,1103.67C1217.75,1103.23 1209.43,1103.02 1201.11,1103.02L1201.11,1103.02ZM1140.37,1143.9C1127.37,1158.12 1113.14,1176.79 1102.26,1194.8C1096.98,1203.53 1089.04,1218.71 1084.35,1229.06C1083.57,1230.77 1082.87,1232.29 1082.28,1233.52C1081.98,1233.4 1081.85,1233.38 1081.5,1233.24C1079.3,1232.35 1076.17,1230.94 1072.74,1229.34C1065.86,1226.13 1057.56,1221.99 1051.54,1218.63C1047.24,1216.23 1042.14,1213.24 1038.09,1210.76C1036.39,1209.72 1035.03,1208.84 1033.85,1208.08C1034.41,1207.44 1034.86,1206.86 1035.58,1206.12C1054.11,1186.83 1073.73,1172.14 1097.07,1160.03C1109.86,1153.4 1126.02,1147.92 1140.37,1143.9L1140.37,1143.9ZM1261.68,1143.96C1296.58,1153.6 1330.95,1171.87 1356.65,1196.3C1360.98,1200.42 1364.61,1204.02 1367.08,1206.62C1367.65,1207.22 1367.93,1207.53 1368.37,1208.02C1367.13,1208.81 1365.73,1209.75 1364.02,1210.81C1359.97,1213.31 1355.08,1216.24 1351.62,1218.17C1348.66,1219.83 1341.92,1223.3 1336.9,1225.76C1331.88,1228.23 1325.15,1231.32 1322.27,1232.52L1319.93,1233.52L1319.26,1231.96C1315.68,1223.92 1305.02,1203.15 1301.24,1196.86C1289.88,1177.93 1275.56,1159.23 1261.68,1143.96ZM1185.01,1144.24C1185.04,1147.17 1185.09,1150.29 1185.12,1154.73C1185.19,1165.94 1185.23,1181.41 1185.23,1198.42L1185.23,1256.68L1184.34,1256.68C1172.17,1256.49 1148.47,1253.22 1131.83,1249.37C1125.86,1247.99 1120.21,1246.5 1116.1,1245.3C1114.64,1244.87 1113.68,1244.52 1112.69,1244.18C1113.34,1242.7 1114.2,1240.84 1115.2,1238.71C1117.36,1234.15 1120.1,1228.7 1122.23,1224.76C1135.68,1199.88 1149.62,1180.47 1168.72,1160.09C1171.54,1157.08 1176.96,1151.76 1181.66,1147.31C1182.94,1146.1 1183.89,1145.27 1185.01,1144.24ZM1217.21,1144.24C1217.93,1144.9 1218.48,1145.35 1219.27,1146.08C1223.17,1149.71 1227.69,1154.02 1230.27,1156.68C1250.55,1177.67 1265.77,1198.46 1279.81,1224.37C1281.82,1228.06 1284.55,1233.64 1286.79,1238.38C1287.86,1240.64 1288.83,1242.66 1289.52,1244.23C1288.39,1244.61 1287.19,1244.99 1285.5,1245.46C1266.9,1250.72 1245.88,1254.58 1226.24,1256.24C1222.98,1256.51 1218.64,1256.73 1216.98,1256.74L1216.98,1198.37C1216.98,1179.23 1217.07,1163.76 1217.15,1153.11C1217.18,1149.23 1217.17,1146.78 1217.21,1144.24L1217.21,1144.24ZM1013.7,1233.35C1014.5,1233.84 1015.24,1234.29 1016.21,1234.92C1032.18,1245.28 1052.01,1255.7 1069.22,1262.81C1070.21,1263.22 1070.45,1263.39 1071.01,1263.65C1070.61,1264.95 1070.3,1265.99 1069.61,1268.23C1062.1,1292.67 1056.87,1322.11 1055.7,1346.85L1014.49,1346.97L973.634,1347.08L973.752,1345.34C974.141,1338.72 975.275,1329.98 976.926,1321.02C980.838,1299.8 988.503,1277.61 998.415,1258.52C1002.84,1250 1009.79,1238.85 1013.7,1233.35L1013.7,1233.35ZM1388.34,1233.52C1404.33,1257.17 1415.69,1281.12 1422.22,1307.23C1425.52,1320.44 1428.37,1339.58 1428.46,1347.08L1387.84,1347.08C1375.66,1347.08 1364.57,1347.08 1356.48,1347.02C1352.44,1346.99 1349.15,1346.95 1346.88,1346.91C1346.67,1346.9 1346.58,1346.91 1346.38,1346.91C1346.38,1346.88 1346.38,1346.87 1346.38,1346.85C1346.38,1335.28 1343.17,1311.53 1339.35,1293.95C1337.54,1285.63 1333.14,1269.15 1331.21,1263.65C1331.8,1263.38 1332.32,1263.11 1333.04,1262.81C1350.11,1255.76 1370.11,1245.22 1386,1234.92C1386.9,1234.33 1387.59,1233.96 1388.34,1233.52L1388.34,1233.52ZM1302.18,1270.34C1303.15,1270.03 1303.42,1270.56 1305.31,1276.57C1311.81,1297.2 1317.13,1326.84 1317.78,1346.04L1317.93,1350.41L1265.92,1350.54C1224.59,1350.64 1213.87,1350.54 1213.67,1350.03C1213.54,1349.67 1213.48,1335.06 1213.55,1317.55L1213.69,1285.71L1218.82,1285.34C1244.53,1283.48 1262.94,1280.7 1282.63,1275.72C1289.56,1273.96 1298.51,1271.5 1302.18,1270.34L1302.18,1270.34ZM1101.47,1274.2C1126.04,1281.78 1152.87,1286.78 1182.89,1288.88L1184.96,1289.04L1184.96,1346.85L1136.58,1346.97C1120.37,1347.01 1107.32,1347.03 1098.35,1346.97C1093.87,1346.94 1090.42,1346.85 1088.08,1346.8C1087.98,1346.79 1087.96,1346.8 1087.86,1346.8C1087.92,1345.58 1088.01,1344.29 1088.14,1342.55C1088.49,1338.21 1089.07,1332.6 1089.7,1327.49C1091.66,1311.59 1095.93,1291.55 1100.31,1277.66C1100.97,1275.57 1101.18,1274.99 1101.47,1274.2L1101.47,1274.2ZM973.634,1378.88L1055.5,1378.88C1055.65,1380.61 1056.03,1385.5 1056.33,1389.71C1058.02,1412.95 1062.56,1437.13 1069.5,1459.96L1070.34,1462.63C1069.26,1463.09 1068.06,1463.63 1066.71,1464.2C1050.51,1471.05 1028.68,1482.72 1015.43,1491.6C1014.78,1492.04 1014.22,1492.39 1013.64,1492.77C1013.49,1492.56 1013.42,1492.5 1013.25,1492.26C1011.95,1490.45 1010.16,1487.77 1008.23,1484.67C1004.37,1478.48 999.884,1470.63 996.85,1464.59C984.339,1439.66 975.253,1406.59 973.752,1380.61L973.634,1378.88ZM1087.69,1378.88L1136.18,1378.99L1184.96,1379.16L1184.96,1436.91L1182.89,1437.08C1153.35,1439.15 1130.92,1442.99 1105.22,1450.42L1102.71,1451.15C1102.01,1451.34 1101.22,1451.54 1100.64,1451.7C1100.36,1450.87 1100.1,1450.1 1099.75,1448.91C1098.67,1445.35 1097.28,1440.45 1096,1435.3C1091.76,1418.19 1088.85,1398.89 1087.8,1381.11L1087.69,1378.88ZM1314.52,1378.88L1314.41,1381.12C1313.09,1403.53 1309.01,1426.75 1302.58,1448.63C1302.14,1450.11 1301.89,1451.04 1301.63,1451.81C1301.46,1451.76 1301.5,1451.76 1301.29,1451.7C1277.78,1444.23 1249.17,1439.11 1219.61,1437.08L1217.26,1436.91L1217.26,1407.9L1217.26,1379.1L1266.03,1378.99L1314.52,1378.88ZM1346.66,1378.88L1428.52,1378.88C1428.48,1380.33 1428.23,1384.14 1427.85,1387.47C1423.52,1425 1411.45,1458.36 1391.02,1489.25C1390.11,1490.63 1389.33,1491.74 1388.62,1492.77C1388.29,1492.55 1388.04,1492.4 1387.68,1492.15C1374.05,1483 1351.76,1471.07 1335.5,1464.2C1334.16,1463.63 1332.96,1463.09 1331.88,1462.63L1332.71,1459.96C1339.83,1436.56 1344.94,1408.68 1346.16,1386.3C1346.31,1383.57 1346.53,1380.37 1346.66,1378.88ZM1185.23,1469.28L1185.23,1531.88C1185.23,1547.83 1185.16,1562.75 1185.12,1573.4C1185.1,1578.04 1185.09,1581.36 1185.07,1584.39C1185.02,1584.35 1184.99,1584.32 1184.95,1584.28C1181.73,1581.31 1177.62,1577.41 1173.85,1573.62C1151.86,1551.56 1134.09,1527.03 1119.72,1498.96C1117.87,1495.33 1115.56,1490.46 1113.7,1486.41C1112.91,1484.69 1112.22,1483.25 1111.68,1482C1112.14,1481.85 1112.34,1481.73 1112.92,1481.55C1115.93,1480.64 1120.57,1479.4 1126.75,1477.87C1144.46,1473.47 1166.42,1470.14 1181.77,1469.45L1185.23,1469.28ZM1216.98,1469.28L1220.33,1469.45C1229.75,1469.89 1243.35,1471.46 1255.32,1473.57C1262.67,1474.87 1272.42,1477.11 1280.26,1479.1C1284.17,1480.1 1287.63,1481.03 1290.02,1481.77C1290.27,1481.85 1290.36,1481.87 1290.58,1481.94C1289.86,1483.62 1288.79,1486.01 1287.18,1489.48C1271.63,1523.11 1247.58,1556.16 1220.5,1581.27C1219.28,1582.4 1218.29,1583.3 1217.21,1584.29C1217.19,1583.61 1217.16,1583.66 1217.15,1582.83C1217.03,1574.66 1216.98,1558.8 1216.98,1528.76L1216.98,1469.28ZM1081.33,1492.88C1081.71,1493.65 1081.98,1494.17 1082.78,1496.01C1096.38,1527.12 1116.24,1557 1138.8,1582.38C1134.77,1581.19 1130.25,1579.77 1126.81,1578.59C1099.04,1569.04 1073.29,1554.16 1050.92,1534.67C1049.2,1533.17 1044.14,1528.21 1039.65,1523.74C1037.45,1521.55 1035.38,1519.46 1033.85,1517.88C1035.52,1516.78 1037.69,1515.4 1040.37,1513.8C1046.1,1510.39 1053.45,1506.24 1059.74,1502.98C1063.3,1501.14 1068.66,1498.54 1073.41,1496.34C1077.19,1494.59 1079.66,1493.55 1081.33,1492.88ZM1320.88,1492.88C1323.78,1493.99 1329.02,1496.32 1335.61,1499.58C1343.1,1503.28 1351.29,1507.61 1356.93,1510.9C1362.57,1514.19 1366.34,1516.43 1368.42,1517.88C1367.27,1519.1 1365.77,1520.69 1364.07,1522.4C1360.62,1525.86 1356.48,1529.84 1353.75,1532.33C1328.93,1555 1296.63,1571.86 1264.18,1581.16C1286.51,1555.79 1305.91,1526.91 1319.43,1496.01C1320.24,1494.17 1320.49,1493.65 1320.88,1492.88Z" style="fill:rgb(34,34,34);fill-rule:nonzero;"/>
        </g>
        <path id="path5326" d="M2.75,70L2.75,95C2.75,100.817 7.433,96.25 13.25,96.25L86.75,96.25C92.567,96.25 97.25,100.817 97.25,95L97.25,70L2.75,70Z" style="fill:rgb(34,34,34);fill-rule:nonzero;"/>
        <g transform="matrix(0.466008,0,0,0.501084,16.5445,-0.166712)">
            <g id="Text" transform="matrix(31.9308,0,0,31.9308,-22.7041,177.434)">
                <path d="M0.271,-0.181C0.297,-0.148 0.332,-0.132 0.376,-0.132C0.42,-0.132 0.455,-0.148 0.481,-0.181C0.506,-0.213 0.519,-0.257 0.519,-0.313L0.519,-0.699L0.675,-0.699L0.675,-0.308C0.675,-0.207 0.647,-0.129 0.591,-0.075C0.535,-0.02 0.463,0.007 0.376,0.007C0.289,0.007 0.217,-0.02 0.161,-0.075C0.104,-0.13 0.076,-0.207 0.076,-0.308L0.076,-0.699L0.232,-0.699L0.232,-0.313C0.232,-0.257 0.245,-0.213 0.271,-0.181Z" style="fill:rgb(255,238,238);fill-rule:nonzero;"/>
            </g>
            <g transform="matrix(31.9308,0,0,31.9308,1.27592,177.434)">
                <path d="M0.575,-0.699L0.731,-0.699L0.731,0L0.575,0L0.242,-0.438L0.242,0L0.086,0L0.086,-0.699L0.232,-0.699L0.575,-0.249L0.575,-0.699Z" style="fill:rgb(255,238,238);fill-rule:nonzero;"/>
            </g>
            <g transform="matrix(31.9308,0,0,31.9308,27.3634,177.434)">
                <rect x="0.086" y="-0.699" width="0.156" height="0.699" style="fill:rgb(255,238,238);fill-rule:nonzero;"/>
            </g>
            <g transform="matrix(31.9308,0,0,31.9308,37.8367,177.434)">
                <path d="M0.344,-0.254L0.522,-0.699L0.691,-0.699L0.41,0L0.278,0L-0.003,-0.699L0.166,-0.699L0.344,-0.254Z" style="fill:rgb(255,238,238);fill-rule:nonzero;"/>
            </g>
            <g transform="matrix(31.9308,0,0,31.9308,59.8051,177.434)">
                <path d="M0.59,-0.699L0.59,-0.56L0.242,-0.56L0.242,-0.416L0.555,-0.416L0.555,-0.283L0.242,-0.283L0.242,-0.138L0.601,-0.138L0.601,0L0.086,0L0.086,-0.699L0.59,-0.699Z" style="fill:rgb(255,238,238);fill-rule:nonzero;"/>
            </g>
            <g transform="matrix(31.9308,0,0,31.9308,80.6878,177.434)">
                <path d="M0.653,-0.467C0.653,-0.355 0.609,-0.283 0.52,-0.25L0.697,0L0.505,0L0.35,-0.223L0.242,-0.223L0.242,0L0.086,0L0.086,-0.699L0.351,-0.699C0.46,-0.699 0.537,-0.681 0.584,-0.644C0.63,-0.607 0.653,-0.548 0.653,-0.467ZM0.356,-0.358C0.409,-0.358 0.446,-0.367 0.465,-0.384C0.484,-0.401 0.494,-0.429 0.494,-0.467C0.494,-0.504 0.484,-0.53 0.464,-0.544C0.444,-0.558 0.409,-0.565 0.359,-0.565L0.242,-0.565L0.242,-0.358L0.356,-0.358Z" style="fill:rgb(255,238,238);fill-rule:nonzero;"/>
            </g>
            <g transform="matrix(31.9308,0,0,31.9308,103.901,177.434)">
                <path d="M0.311,-0.578C0.285,-0.578 0.265,-0.572 0.25,-0.56C0.234,-0.547 0.227,-0.531 0.227,-0.51C0.227,-0.49 0.236,-0.474 0.255,-0.462C0.273,-0.45 0.315,-0.436 0.382,-0.42C0.448,-0.403 0.499,-0.379 0.536,-0.346C0.573,-0.313 0.591,-0.266 0.591,-0.203C0.591,-0.14 0.568,-0.09 0.521,-0.051C0.473,-0.012 0.412,0.008 0.335,0.008C0.224,0.008 0.125,-0.033 0.036,-0.115L0.129,-0.229C0.204,-0.163 0.274,-0.13 0.338,-0.13C0.367,-0.13 0.389,-0.136 0.406,-0.149C0.422,-0.161 0.43,-0.178 0.43,-0.199C0.43,-0.22 0.421,-0.236 0.404,-0.249C0.387,-0.261 0.352,-0.273 0.301,-0.286C0.22,-0.305 0.16,-0.331 0.123,-0.362C0.085,-0.393 0.066,-0.441 0.066,-0.507C0.066,-0.574 0.09,-0.625 0.138,-0.661C0.185,-0.697 0.245,-0.715 0.316,-0.715C0.363,-0.715 0.409,-0.707 0.456,-0.691C0.503,-0.675 0.543,-0.652 0.578,-0.623L0.499,-0.509C0.438,-0.555 0.376,-0.578 0.311,-0.578Z" style="fill:rgb(255,238,238);fill-rule:nonzero;"/>
            </g>
            <g transform="matrix(31.9308,0,0,31.9308,123.999,177.434)">
                <path d="M0.584,0L0.519,-0.151L0.226,-0.151L0.161,0L-0.005,0L0.297,-0.699L0.448,-0.699L0.75,0L0.584,0ZM0.373,-0.491L0.285,-0.288L0.46,-0.288L0.373,-0.491Z" style="fill:rgb(255,238,238);fill-rule:nonzero;"/>
            </g>
            <g transform="matrix(31.9308,0,0,31.9308,147.787,177.434)">
                <path d="M0.086,0L0.086,-0.699L0.242,-0.699L0.242,-0.139L0.54,-0.139L0.54,0L0.086,0Z" style="fill:rgb(255,238,238);fill-rule:nonzero;"/>
            </g>
        </g>
    </g>
</svg>
